<?xml version="1.0" encoding="UTF-8"?>
<svg id="Layer_2" data-name="Layer 2" xmlns="http://www.w3.org/2000/svg" xmlns:xlink="http://www.w3.org/1999/xlink" viewBox="0 0 301.48 90.29">
  <defs>
    <style>
      .cls-1 {
        fill: #61ffbb;
      }

      .cls-1, .cls-2, .cls-3, .cls-4, .cls-5, .cls-6, .cls-7, .cls-8, .cls-9, .cls-10, .cls-11, .cls-12, .cls-13, .cls-14, .cls-15, .cls-16, .cls-17, .cls-18, .cls-19, .cls-20, .cls-21, .cls-22 {
        stroke-width: 0px;
      }

      .cls-2 {
        fill: #77ffc3;
      }

      .cls-3 {
        fill: #3ee4ff;
      }

      .cls-4 {
        fill: #22d5ff;
      }

      .cls-5 {
        fill: #ff7b41;
      }

      .cls-6 {
        fill: #1ee396;
      }

      .cls-7 {
        fill: #65e9ff;
      }

      .cls-8 {
        fill: #7a62f1;
      }

      .cls-9 {
        fill: #ff6e41;
      }

      .cls-23 {
        clip-path: url(#clippath-2);
      }

      .cls-10 {
        fill: none;
      }

      .cls-24 {
        clip-path: url(#clippath-1);
      }

      .cls-25 {
        clip-path: url(#clippath-4);
      }

      .cls-11 {
        fill: #3fffaf;
      }

      .cls-12 {
        fill: #ff9e41;
      }

      .cls-13 {
        fill: #66f8ff;
      }

      .cls-14 {
        fill: #9f9ae5;
      }

      .cls-15 {
        fill: #f14964;
      }

      .cls-26 {
        clip-path: url(#clippath);
      }

      .cls-16 {
        fill: #f35f77;
      }

      .cls-27 {
        clip-path: url(#clippath-3);
      }

      .cls-17 {
        fill: #8a7dea;
      }

      .cls-18 {
        fill: #fff;
      }

      .cls-28 {
        clip-path: url(#clippath-5);
      }

      .cls-19 {
        fill: #f4324a;
      }

      .cls-20 {
        fill: #ffc341;
      }

      .cls-21 {
        fill: #ffe141;
      }

      .cls-22 {
        fill: #ffd522;
      }
    </style>
    <clipPath id="clippath">
      <path class="cls-10" d="M73.81,57.58l-32.72,32.71-5.25-5.25c-3.73-3.73-3.61-9.9.26-13.77l38.17-38.16h0c6.63,6.63,6.42,17.59-.46,24.47Z"/>
    </clipPath>
    <clipPath id="clippath-1">
      <path class="cls-10" d="M73.81,57.58l-32.72,32.71-5.25-5.25c-3.73-3.73-3.61-9.9.26-13.77l38.17-38.16h0c6.63,6.63,6.42,17.59-.46,24.47Z"/>
    </clipPath>
    <clipPath id="clippath-2">
      <path class="cls-10" d="M40.69,24.47L7.97,57.18l-5.25-5.25c-3.73-3.73-3.61-9.9.26-13.77L41.16,0h0c6.63,6.63,6.42,17.59-.46,24.47Z"/>
    </clipPath>
    <clipPath id="clippath-3">
      <path class="cls-10" d="M40.69,24.47L7.97,57.18l-5.25-5.25c-3.73-3.73-3.61-9.9.26-13.77L41.16,0h0c6.63,6.63,6.42,17.59-.46,24.47Z"/>
    </clipPath>
    <clipPath id="clippath-4">
      <path class="cls-10" d="M43.44,54.83l-18.91,18.9-5.25-5.25c-3.73-3.73-4.25-9.26-1.15-12.36l31.64-31.63h0c6.63,6.63,7.55,16.46,2.05,21.96l-8.38,8.37"/>
    </clipPath>
    <clipPath id="clippath-5">
      <path class="cls-10" d="M43.44,54.83l-18.91,18.9-5.25-5.25c-3.73-3.73-4.25-9.26-1.15-12.36l31.64-31.63h0c6.63,6.63,7.55,16.46,2.05,21.96l-8.38,8.37"/>
    </clipPath>
  </defs>
  <g id="Layer_1-2" data-name="Layer 1">
    <g>
      <g>
        <path class="cls-18" d="M101.58,58.83h16.92c2.56,0,4.64,2.08,4.64,4.64v3.72h-25.64c-3.29,0-5.96-2.67-5.96-5.96V23.08h30.98v2.9c0,3.02-2.45,5.46-5.46,5.46h-15.48v9.42h18.46v7.43h-18.46v10.53Z"/>
        <path class="cls-18" d="M139.31,28.28v38.92h-9.29V21.22h2.24c3.9,0,7.05,3.16,7.05,7.05Z"/>
        <path class="cls-18" d="M147.29,26c0-3.04,2.23-5.2,5.39-5.2s5.39,2.17,5.39,5.2-2.23,5.27-5.39,5.27-5.39-2.17-5.39-5.27ZM157.33,40.88v26.32h-9.29v-31.72h3.89c2.98,0,5.4,2.42,5.4,5.4Z"/>
        <path class="cls-18" d="M168.54,42.54h-4.46v-3.96c0-1.71,1.39-3.1,3.1-3.1h1.8s-.1-4.22-.1-4.22c-.05-2.07,1.61-3.77,3.68-3.77h5.27v7.99h0s7.18,0,7.18,0c0,0,0,0,0,0h0c0,3.9-3.16,7.06-7.06,7.06h-.13s0,0,0,0v13.44c0,2.66,1.61,4.46,4.21,4.46.87,0,2.23-.19,3.28-.49h0s0,3.28,0,3.28c0,2.64-2,4.89-4.63,5.12-.61.05-1.2.08-1.75.08-6.32,0-10.41-4.77-10.41-11.52v-14.37h0Z"/>
        <path class="cls-18" d="M208,34.23c10.16,0,17.1,6.94,17.1,16.98,0,.81,0,2.11-.12,2.79l-24.84-.06c.8,4.46,3.84,7.37,8.05,7.37,3.47,0,6.38-1.98,7.37-4.77l8.36,1.18c-1.55,6.2-8.24,10.72-15.99,10.72-10.22,0-17.41-7.12-17.41-17.35s7.25-16.85,17.47-16.85ZM215.68,48.36c-.56-4.03-3.65-7-7.87-7s-6.94,2.79-7.74,7h15.61Z"/>
        <path class="cls-18" d="M263.82,46.81l-8.67,1.11c-.8-3.41-3.97-5.89-7.5-5.89-4.52,0-8.05,3.9-8.05,9.29s3.47,9.29,8.05,9.29c3.66,0,6.69-2.48,7.56-5.89l8.67,1.11c-1.18,7.31-8.12,12.58-16.29,12.58-9.97,0-17.29-7.19-17.29-17.1s7.25-17.1,17.29-17.1c8.3,0,15.24,5.27,16.23,12.58Z"/>
        <path class="cls-18" d="M279.67,29.7v9.36c2.11-3.1,5.89-4.83,9.73-4.83,7.31,0,12.08,5.33,12.08,12.82v20.13h-9.29v-18.21c0-3.84-2.23-6.5-5.95-6.57-3.59,0-6.57,2.91-6.57,6.94v17.84h-9.29V22.81h2.4c3.81,0,6.9,3.09,6.9,6.9Z"/>
      </g>
      <g>
        <g>
          <g class="cls-26">
            <rect class="cls-13" x="69.56" y="32.56" width="12.68" height="20.65" transform="translate(-8.09 66.23) rotate(-45)"/>
            <g>
              <polygon class="cls-22" points="65.95 77.52 42.72 54.29 42.28 77.96 65.95 77.52"/>
              <polygon class="cls-22" points="42.72 54.29 42.67 54.24 18.51 78.41 42.28 77.96 42.72 54.29"/>
              <polygon class="cls-22" points="42.28 77.96 41.84 101.63 65.95 77.52 42.28 77.96"/>
              <polygon class="cls-22" points="18.51 78.41 41.78 101.69 41.84 101.63 42.28 77.96 18.51 78.41"/>
            </g>
            <g>
              <polygon class="cls-13" points="83.64 57.73 60.41 34.5 59.97 58.17 83.64 57.73"/>
              <polygon class="cls-13" points="60.41 34.5 60.36 34.45 36.2 58.61 59.97 58.17 60.41 34.5"/>
              <polygon class="cls-13" points="59.97 58.17 59.53 81.84 83.64 57.73 59.97 58.17"/>
              <polygon class="cls-13" points="36.2 58.61 59.47 81.89 59.53 81.84 59.97 58.17 36.2 58.61"/>
            </g>
          </g>
          <g class="cls-24">
            <rect class="cls-7" x="69.56" y="32.56" width="12.68" height="20.65" transform="translate(-8.09 66.23) rotate(-45)"/>
            <g>
              <polygon class="cls-21" points="65.95 77.52 42.72 54.29 42.28 77.96 65.95 77.52"/>
              <polygon class="cls-22" points="42.72 54.29 42.67 54.24 18.51 78.41 42.28 77.96 42.72 54.29"/>
              <polygon class="cls-22" points="42.28 77.96 41.84 101.63 65.95 77.52 42.28 77.96"/>
              <polygon class="cls-20" points="18.51 78.41 41.78 101.69 41.84 101.63 42.28 77.96 18.51 78.41"/>
            </g>
            <g>
              <polygon class="cls-7" points="83.64 57.73 60.41 34.5 59.97 58.17 83.64 57.73"/>
              <polygon class="cls-3" points="60.41 34.5 60.36 34.45 36.2 58.61 59.97 58.17 60.41 34.5"/>
              <polygon class="cls-3" points="59.97 58.17 59.53 81.84 83.64 57.73 59.97 58.17"/>
              <polygon class="cls-4" points="36.2 58.61 59.47 81.89 59.53 81.84 59.97 58.17 36.2 58.61"/>
            </g>
          </g>
        </g>
        <g>
          <g class="cls-23">
            <g>
              <polygon class="cls-5" points="32.82 44.46 9.6 21.23 9.15 44.9 32.82 44.46"/>
              <polygon class="cls-5" points="9.6 21.23 9.54 21.18 -14.62 45.35 9.15 44.9 9.6 21.23"/>
              <polygon class="cls-5" points="9.15 44.9 8.71 68.57 32.82 44.46 9.15 44.9"/>
              <polygon class="cls-5" points="-14.62 45.35 8.66 68.63 8.71 68.57 9.15 44.9 -14.62 45.35"/>
            </g>
            <polygon class="cls-16" points="54.56 12.64 39.96 -1.96 31.92 6.08 27.29 1.44 27.24 1.39 3.07 25.55 26.35 48.83 26.4 48.78 50.51 24.67 46.52 20.68 54.56 12.64"/>
          </g>
          <g class="cls-27">
            <rect class="cls-16" x="36.44" y="-.5" width="12.68" height="20.65" transform="translate(5.59 33.13) rotate(-45)"/>
            <g>
              <polygon class="cls-12" points="32.82 44.46 9.6 21.23 9.15 44.9 32.82 44.46"/>
              <polygon class="cls-5" points="9.6 21.23 9.54 21.18 -14.62 45.35 9.15 44.9 9.6 21.23"/>
              <polygon class="cls-5" points="9.15 44.9 8.71 68.57 32.82 44.46 9.15 44.9"/>
              <polygon class="cls-9" points="-14.62 45.35 8.66 68.63 8.71 68.57 9.15 44.9 -14.62 45.35"/>
            </g>
            <g>
              <polygon class="cls-16" points="50.51 24.67 27.29 1.44 26.85 25.11 50.51 24.67"/>
              <polygon class="cls-15" points="27.29 1.44 27.24 1.39 3.07 25.55 26.85 25.11 27.29 1.44"/>
              <polygon class="cls-15" points="26.85 25.11 26.4 48.78 50.51 24.67 26.85 25.11"/>
              <polygon class="cls-19" points="3.07 25.55 26.35 48.83 26.4 48.78 26.85 25.11 3.07 25.55"/>
            </g>
          </g>
        </g>
        <g>
          <g class="cls-25">
            <g>
              <polygon class="cls-17" points="45.78 61.44 25.36 41.02 25.36 61.44 45.78 61.44"/>
              <polygon class="cls-17" points="25.36 41.02 25.32 40.98 4.86 61.44 25.36 61.44 25.36 41.02"/>
              <polygon class="cls-17" points="25.36 61.44 25.36 81.86 45.78 61.44 25.36 61.44"/>
              <polygon class="cls-17" points="4.86 61.44 25.32 81.9 25.36 81.86 25.36 61.44 4.86 61.44"/>
            </g>
            <g>
              <polygon class="cls-1" points="75.39 44.1 41.65 10.36 41.65 44.1 75.39 44.1"/>
              <polygon class="cls-1" points="41.65 23.68 41.61 23.64 21.15 44.1 41.65 44.1 41.65 23.68"/>
              <polygon class="cls-1" points="41.65 44.1 41.65 64.52 62.07 44.1 41.65 44.1"/>
              <polygon class="cls-1" points="21.15 44.1 41.61 64.56 41.65 64.52 41.65 44.1 21.15 44.1"/>
            </g>
          </g>
          <g class="cls-28">
            <g>
              <polygon class="cls-14" points="45.78 61.44 25.36 41.02 25.36 61.44 45.78 61.44"/>
              <polygon class="cls-17" points="25.36 41.02 25.32 40.98 4.86 61.44 25.36 61.44 25.36 41.02"/>
              <polygon class="cls-17" points="25.36 61.44 25.36 81.86 45.78 61.44 25.36 61.44"/>
              <polygon class="cls-8" points="4.86 61.44 25.32 81.9 25.36 81.86 25.36 61.44 4.86 61.44"/>
            </g>
            <g>
              <polygon class="cls-2" points="75.39 44.1 41.65 10.36 41.65 44.1 75.39 44.1"/>
              <polygon class="cls-11" points="41.65 23.68 41.61 23.64 21.15 44.1 41.65 44.1 41.65 23.68"/>
              <polygon class="cls-11" points="41.65 44.1 41.65 64.52 62.07 44.1 41.65 44.1"/>
              <polygon class="cls-6" points="21.15 44.1 41.61 64.56 41.65 64.52 41.65 44.1 21.15 44.1"/>
            </g>
          </g>
        </g>
      </g>
    </g>
  </g>
</svg>