<svg xmlns="http://www.w3.org/2000/svg" width="58.542" height="61.618" viewBox="0 0 58.542 61.618">
  <g id="Group_273" data-name="Group 273" transform="translate(0)">
    <path id="Path_1188" data-name="Path 1188" d="M156.269,94.414a10.918,10.918,0,0,1-1.165-.45,4.119,4.119,0,0,1-2.287-3.984c.005-5.835-.009-11.67.018-17.505a1.421,1.421,0,0,0-.7-1.362c-2.824-1.906-5.62-3.854-8.424-5.789-2.208-1.525-2.218-3.958-.021-5.476,2.87-1.982,5.734-3.971,8.618-5.931a1.078,1.078,0,0,0,.524-1.029c-.015-5.233-.009-10.467-.009-15.7a4.042,4.042,0,0,1,2.434-4,4.192,4.192,0,0,1,1.682-.37q14.378-.032,28.758-.01a4.052,4.052,0,0,1,4.079,3.724,8.487,8.487,0,0,1,.037.9q0,7.76-.008,15.519a.981.981,0,0,0,.476.932q4.323,2.945,8.62,5.928c2.258,1.559,2.25,3.985-.021,5.553q-4.3,2.971-8.618,5.929a.931.931,0,0,0-.455.882q.017,8.6.008,17.2c0,2.963-.718,4.012-3.451,5.036Zm-1.392-31.841c0,2.446.012,4.894-.01,7.34a1.028,1.028,0,0,0,.51.979q7.491,5.135,14.96,10.3c.905.625,1.06.624,1.98-.01q7.452-5.138,14.908-10.269a1.089,1.089,0,0,0,.539-1.025q-.026-7.281,0-14.562a1.124,1.124,0,0,0-.473-1.067.942.942,0,0,1,.072-1.579.785.785,0,0,0,.4-.831q-.008-4.9,0-9.808c0-1.664.015-3.329-.006-4.994a2.053,2.053,0,0,0-2.236-2.2c-1-.006-2.007-.024-3.009.014a1.25,1.25,0,0,0-.765.329c-.781.779-1.521,1.6-2.277,2.4a4.154,4.154,0,0,1-3.161,1.359q-4.964-.01-9.93,0a4.207,4.207,0,0,1-3.214-1.378c-.757-.8-1.5-1.62-2.277-2.4a1.159,1.159,0,0,0-.713-.312c-1-.034-2.006-.018-3.009-.014a2.07,2.07,0,0,0-2.276,2.282q-.013,7.431.01,14.862a.884.884,0,0,0,.318.605,1.016,1.016,0,0,1,.072,1.719.983.983,0,0,0-.41.916C154.883,57.678,154.877,60.126,154.877,62.573Zm0,10.46v.749q0,5.473,0,10.945c0,1.754.735,2.489,2.481,2.489h27.908c1.747,0,2.484-.736,2.485-2.485q0-5.473,0-10.945v-.745c-.311.211-.509.343-.7.478q-6.853,4.726-13.707,9.451a3.144,3.144,0,0,1-4.052-.005q-4.677-3.223-9.352-6.449C158.292,75.38,156.643,74.248,154.877,73.033Zm32.849,15.94c-1.012.1-1.972.281-2.933.284q-12.275.034-24.551,0c-1.776-.007-3.6.339-5.365-.5v1.1c0,1.768.751,2.508,2.535,2.508h27.8c.18,0,.361.005.542,0a2,2,0,0,0,1.964-1.84C187.769,89.966,187.726,89.4,187.726,88.973Zm2.112-19.96a.912.912,0,0,0,.195-.053c2.638-1.815,5.279-3.625,7.907-5.454.8-.555.768-1.325-.057-1.9q-3.824-2.652-7.661-5.283a3.08,3.08,0,0,0-.385-.19Zm-37.056-12.9c-.189.112-.325.182-.449.268q-3.765,2.591-7.527,5.188c-.934.646-.925,1.382.022,2.037q3.736,2.582,7.477,5.154c.139.1.292.172.478.279Zm10.661-21.236c.351.378.631.638.863.936a2.859,2.859,0,0,0,2.516,1.1c3.023-.05,6.05-.091,9.07.012,1.63.056,2.32-1.032,3.267-2.052Z" transform="translate(-142.044 -32.796)" fill="#fff"/>
    <path id="Path_1189" data-name="Path 1189" d="M183.763,60.272c0,1.444-.012,2.887.005,4.33a1.372,1.372,0,0,1-.708,1.29q-3.908,2.423-7.8,4.871a1.267,1.267,0,0,1-1.5,0q-3.86-2.441-7.746-4.84a1.455,1.455,0,0,1-.765-1.377q.026-4.3,0-8.6a1.411,1.411,0,0,1,.735-1.333q3.911-2.414,7.8-4.87a1.235,1.235,0,0,1,1.452,0q3.918,2.463,7.849,4.9a1.328,1.328,0,0,1,.683,1.242C183.754,57.345,183.763,58.808,183.763,60.272Zm-15.529-4.635c2.076,1.3,4.074,2.55,6.087,3.778.126.077.413-.008.572-.1,1.519-.93,3.028-1.877,4.538-2.822.436-.272.869-.552,1.35-.858-2.046-1.279-4.028-2.525-6.022-3.75a.607.607,0,0,0-.524.022C172.257,53.118,170.292,54.352,168.234,55.637Zm5.243,12.516c0-2.271.011-4.394-.019-6.517a.892.892,0,0,0-.425-.563c-1.722-1.1-3.459-2.174-5.192-3.254-.145-.09-.3-.164-.531-.289V58.2c0,1.763.023,3.528-.014,5.29a1.132,1.132,0,0,0,.67,1.237,14.957,14.957,0,0,1,1.43.882C170.716,66.436,172.037,67.257,173.477,68.153Zm2.065-.047a3.074,3.074,0,0,0,.306-.137c1.851-1.156,3.707-2.306,5.543-3.486a.855.855,0,0,0,.3-.625c.023-1.964.015-3.927.011-5.891a3.536,3.536,0,0,0-.063-.438c-2,1.248-3.932,2.452-5.857,3.673a.6.6,0,0,0-.235.435C175.537,63.759,175.543,65.881,175.543,68.106Z" transform="translate(-145.239 -35.096)" fill="#fff"/>
    <path id="Path_1190" data-name="Path 1190" d="M181.069,46.121c.73-.02,3.153,1.6,3.2,2.07a1.4,1.4,0,0,1-.289,1.061,1.168,1.168,0,0,1-1.07.158,13,13,0,0,1-2.266-1.561,1.225,1.225,0,0,1-.23-1.067C180.511,46.47,180.924,46.256,181.069,46.121Z" transform="translate(-147.322 -34.63)" fill="#fff"/>
    <path id="Path_1191" data-name="Path 1191" d="M167.886,49.678a4.109,4.109,0,0,1-.822-.748A.827.827,0,0,1,167.3,47.8a26.412,26.412,0,0,1,2.213-1.529.915.915,0,0,1,1.24.239.849.849,0,0,1,.02,1.247c-.8.651-1.685,1.192-2.54,1.771-.059.04-.155.023-.235.033Z" transform="translate(-145.47 -34.631)" fill="#fff"/>
    <path id="Path_1192" data-name="Path 1192" d="M190.379,54.359a2.557,2.557,0,0,1-.566-.163c-.763-.51-1.537-1.007-2.265-1.563a1,1,0,0,1,1.161-1.611c.745.463,1.47.964,2.169,1.494a.828.828,0,0,1,.254,1.127A3.835,3.835,0,0,1,190.379,54.359Z" transform="translate(-148.265 -35.287)" fill="#fff"/>
    <path id="Path_1193" data-name="Path 1193" d="M160.986,54.335c-.206-.18-.615-.372-.71-.665a1.232,1.232,0,0,1,.17-1.077A15.08,15.08,0,0,1,162.7,51a.894.894,0,0,1,1.224.316.884.884,0,0,1-.065,1.259c-.744.6-1.568,1.1-2.365,1.633A2.043,2.043,0,0,1,160.986,54.335Z" transform="translate(-144.547 -35.285)" fill="#fff"/>
    <path id="Path_1194" data-name="Path 1194" d="M177.527,43.911a.98.98,0,0,1-1.356.955.95.95,0,0,0-.931-.013.908.908,0,0,1-1.208-.352.988.988,0,0,1,.137-1.308,12.462,12.462,0,0,1,1.077-.754.521.521,0,0,1,.111-.042A2.066,2.066,0,0,1,177.527,43.911Z" transform="translate(-146.422 -34.112)" fill="#fff"/>
  </g>
</svg>
