<svg xmlns="http://www.w3.org/2000/svg" width="55.243" height="58.103" viewBox="0 0 55.243 58.103">
  <g id="Group_296" data-name="Group 296" transform="translate(0)">
    <path id="Path_1221" data-name="Path 1221" d="M31.514,171.554c0-8.56,0-14.912,0-23.472a5.482,5.482,0,0,1,3.8-5.609,6.894,6.894,0,0,1,2.047-.3q11.109-.031,22.218-.01a5.555,5.555,0,0,1,5.875,5.891c0,1.782,0,1.353,0,3.135,0,.13.006.262,0,.391-.037.564-.4.972-.877.936a.845.845,0,0,1-.848-.953c0-1.89.012-1.57-.014-3.461a5.773,5.773,0,0,0-.216-1.6,3.68,3.68,0,0,0-3.406-2.58c-.78-.027-1.564.012-2.345-.024-.383-.017-.529.152-.647.475-.238.651-.5,1.292-.771,1.934a2.874,2.874,0,0,1-2.874,1.934q-4.886-.009-9.773,0a2.851,2.851,0,0,1-2.829-1.9c-.277-.66-.556-1.32-.792-2a.58.58,0,0,0-.672-.441c-.824.026-1.65-.007-2.475.021a3.748,3.748,0,0,0-3.65,3.683c-.019.8-.007-.6-.007.2,0,16.513,0,30.079,0,46.592a3.8,3.8,0,0,0,2.985,4.024,5.414,5.414,0,0,0,1.164.09q11.077.008,22.153,0a3.831,3.831,0,0,0,4.163-4.186c0-1.412,0,.122,0-1.291,0-.754.305-1.13.87-1.122s.866.4.856,1.145a12.139,12.139,0,0,1-.13,2.583,5.31,5.31,0,0,1-4.882,4.573c-.26.023-.521.043-.78.043q-11.175,0-22.348,0a5.468,5.468,0,0,1-5.506-3.85,7.948,7.948,0,0,1-.277-2.247C31.507,185.642,31.514,180.071,31.514,171.554Zm23.888-27.6H41.772c.249.624.476,1.182.693,1.745a1.191,1.191,0,0,0,1.2.822c3.278,0,6.556.02,9.834-.024a1.482,1.482,0,0,0,1.061-.585A12.482,12.482,0,0,0,55.4,143.953Z" transform="translate(-31.513 -142.16)" fill="#fff"/>
    <path id="Path_1222" data-name="Path 1222" d="M84.59,167.926q0,6.256,0,12.513c0,1.579-.7,2.277-2.28,2.367a30.3,30.3,0,0,0-14.759,4.533,1.092,1.092,0,0,1-1.317,0,30.183,30.183,0,0,0-14.76-4.533c-1.579-.089-2.289-.789-2.29-2.367q0-12.512,0-25.025c0-1.634.8-2.427,2.406-2.35a31.686,31.686,0,0,1,14.84,4.323.774.774,0,0,0,.926,0,31.7,31.7,0,0,1,15.035-4.328,1.972,1.972,0,0,1,2.2,2.161Q84.6,161.571,84.59,167.926Zm-16.825,17.19c.193-.083.275-.111.349-.152a31.893,31.893,0,0,1,14.11-3.87c.525-.023.657-.229.654-.715-.017-2.584-.008-5.168-.008-7.753q0-8.567,0-17.135c0-.439-.019-.753-.615-.718a31.5,31.5,0,0,0-13.818,3.968,1.205,1.205,0,0,0-.689,1.223q.031,12.184.014,24.367Zm-1.732-.176v-.567q0-12.254.012-24.507a1.062,1.062,0,0,0-.616-1.072,29.866,29.866,0,0,0-11.084-3.744c-1.106-.139-2.228-.159-3.368-.236-.02.285-.039.434-.039.581q0,12.515-.012,25.03c0,.54.21.65.69.668a28.4,28.4,0,0,1,8.179,1.423C61.88,183.23,63.91,184.109,66.034,184.941Z" transform="translate(-33.826 -143.586)" fill="#fff"/>
    <path id="Path_1223" data-name="Path 1223" d="M88.394,171.647q0,6.419,0,12.839c0,1.626-.494,2.211-2.1,2.523q-9.833,1.912-19.669,3.82a2.226,2.226,0,0,1-.831-.006q-9.9-1.909-19.8-3.834a2.1,2.1,0,0,1-1.958-2.327q0-13.034,0-26.069a2.009,2.009,0,0,1,2.12-2.248c.522.028.906.257.938.8a.783.783,0,0,1-.852.919c-.388,0-.489.2-.478.532,0,.109,0,.217,0,.326q0,12.709-.014,25.417c0,.65.183.88.835,1,6.369,1.212,12.729,2.478,19.1,3.687a4.936,4.936,0,0,0,1.794-.121c6.175-1.19,12.345-2.406,18.52-3.595.5-.1.673-.275.672-.8q-.023-12.872-.008-25.743c0-.394.023-.723-.548-.723a.752.752,0,0,1-.772-.862.805.805,0,0,1,.765-.825,1.954,1.954,0,0,1,2.243,1.6,5.983,5.983,0,0,1,.043.91Q88.4,165.26,88.394,171.647Z" transform="translate(-33.152 -144.015)" fill="#fff"/>
    <path id="Path_1224" data-name="Path 1224" d="M49.642,204.754q-3.779,0-7.558,0c-.216,0-.5.06-.634-.052a1.774,1.774,0,0,1-.638-.86.711.711,0,0,1,.693-.793,4.5,4.5,0,0,1,.649-.033q7.526,0,15.053,0c.992,0,1.4.255,1.392.871s-.417.87-1.4.87Z" transform="translate(-32.729 -150.126)" fill="#fff"/>
    <path id="Path_1225" data-name="Path 1225" d="M82.035,169.7c.674-.043,1.037.168,1.132.713a.831.831,0,0,1-.8.986,30.706,30.706,0,0,0-7.228,1.857.8.8,0,0,1-1.133-.443.778.778,0,0,1,.448-1.127A29.433,29.433,0,0,1,82.035,169.7Z" transform="translate(-37.063 -145.764)" fill="#fff"/>
    <path id="Path_1226" data-name="Path 1226" d="M82.058,161.3c.7-.025,1.087.252,1.115.758a.82.82,0,0,1-.783.941,31.134,31.134,0,0,0-7.292,1.874.857.857,0,1,1-.6-1.6A29.837,29.837,0,0,1,82.058,161.3Z" transform="translate(-37.064 -144.665)" fill="#fff"/>
    <path id="Path_1227" data-name="Path 1227" d="M83.183,178.953a.836.836,0,0,1-.8.844,30.838,30.838,0,0,0-7.231,1.849.825.825,0,0,1-1.166-.483.806.806,0,0,1,.519-1.1,28.821,28.821,0,0,1,7.6-1.957C82.767,178.027,83.179,178.374,83.183,178.953Z" transform="translate(-37.065 -146.864)" fill="#fff"/>
    <path id="Path_1228" data-name="Path 1228" d="M55.543,161.288a29.723,29.723,0,0,1,7.711,1.987.858.858,0,1,1-.654,1.586,31.05,31.05,0,0,0-7.279-1.872.8.8,0,0,1-.751-.959A.813.813,0,0,1,55.543,161.288Z" transform="translate(-34.53 -144.663)" fill="#fff"/>
    <path id="Path_1229" data-name="Path 1229" d="M55.661,169.695a29.7,29.7,0,0,1,7.606,1.986.782.782,0,0,1,.448,1.128.833.833,0,0,1-1.132.455q-2.925-.851-5.867-1.648a13.267,13.267,0,0,0-1.346-.214.845.845,0,0,1-.81-.924C54.576,169.967,54.964,169.678,55.661,169.695Z" transform="translate(-34.53 -145.764)" fill="#fff"/>
    <path id="Path_1230" data-name="Path 1230" d="M55.669,178.095a29.629,29.629,0,0,1,7.6,1.982.782.782,0,0,1,.45,1.127.8.8,0,0,1-1.129.449,30.373,30.373,0,0,0-7.214-1.855.836.836,0,0,1-.813-.921C54.576,178.366,54.962,178.079,55.669,178.095Z" transform="translate(-34.53 -146.864)" fill="#fff"/>
  </g>
</svg>
