<svg xmlns="http://www.w3.org/2000/svg" width="56.061" height="56.246" viewBox="0 0 56.061 56.246">
  <g id="Group_292" data-name="Group 292" transform="translate(-67.61 -688.551)">
    <path id="Path_1311" data-name="Path 1311" d="M84.9,741.993c-.247.775-.455,1.4-.644,2.027a.99.99,0,0,1-1.077.777c-.912-.015-1.825-.01-2.738,0a.967.967,0,0,1-1.03-.758c-.277-.887-.566-1.771-.854-2.656a1.734,1.734,0,0,0-1.981-.858c-.82.4-1.648.778-2.458,1.2a1.043,1.043,0,0,1-1.365-.212q-.957-.979-1.936-1.935a.926.926,0,0,1-.194-1.249q.681-1.25,1.27-2.55a1.33,1.33,0,0,0,.019-.751,1.82,1.82,0,0,0-1.638-1.517,17.784,17.784,0,0,1-1.939-.609.931.931,0,0,1-.721-.993q.016-1.4,0-2.795a1.087,1.087,0,0,1,.866-1.151c.816-.247,1.642-.464,2.443-.753a1.533,1.533,0,0,0,.626-.574,1.823,1.823,0,0,0-.083-2.19c-.341-.56-.57-1.187-.877-1.77a1.034,1.034,0,0,1,.242-1.359q.98-.954,1.937-1.933a.911.911,0,0,1,1.2-.187c.84.443,1.686.877,2.552,1.265a1.48,1.48,0,0,0,.8.019,1.767,1.767,0,0,0,1.479-1.6,16.648,16.648,0,0,1,.592-1.884,1.061,1.061,0,0,1,1.134-.8c.854.019,1.709,0,2.563,0s1.047.142,1.288.947a2.748,2.748,0,0,0,.346.8v-.66c0-8.287.039-16.575-.026-24.862a3.689,3.689,0,0,1,3.877-3.87c7.125.066,14.252.035,21.377.007a2.216,2.216,0,0,1,1.736.724q3.985,4.085,8,8.141c1.158,1.176,2.306,2.361,3.474,3.526a1.624,1.624,0,0,1,.5,1.241q-.015,19.477-.009,38.954a3.416,3.416,0,0,1-3.644,3.646q-15.872.006-31.746-.007a4.633,4.633,0,0,1-1.372-.2,2.287,2.287,0,0,1-1.668-1.627C85.159,742.674,85.043,742.406,84.9,741.993Zm1.374-1.619c.212.575.383.983.514,1.4.27.869.308,1.166,1.7,1.167q15.754.014,31.507,0c1.391,0,2.018-.632,2.018-2.032q0-18.8,0-37.607v-.7h-.741c-2.466,0-4.931,0-7.4,0a3.865,3.865,0,0,1-4.152-4.14c0-2.464,0-4.929,0-7.393v-.751H88.764c-.214,0-.428-.008-.641,0a1.662,1.662,0,0,0-1.641,1.693c-.013.582,0,1.164,0,1.746v26.079c0,.864,0,.864.794.467s1.563-.776,2.34-1.172a.955.955,0,0,1,1.221.185q1.078,1.1,2.138,2.224a1.033,1.033,0,0,1,.166,1.328c-.336.612-.589,1.27-.952,1.863a1.556,1.556,0,0,0-.068,1.757,1.314,1.314,0,0,0,.827.766c.839.236,1.657.542,2.491.8a.988.988,0,0,1,.782,1.07q-.021,1.31,0,2.62a1,1,0,0,1-.831,1.09c-.634.176-1.244.447-1.884.592a1.792,1.792,0,0,0-1.55,1.391,1.272,1.272,0,0,0,.033,1.021c.416.787.779,1.6,1.18,2.4a1.008,1.008,0,0,1-.233,1.311c-.675.642-1.353,1.281-2.014,1.938a1.073,1.073,0,0,1-1.417.2c-.785-.421-1.586-.816-2.394-1.191A3.524,3.524,0,0,0,86.27,740.374ZM73.593,720.9c-.32.356-.625.735-.973,1.068a.469.469,0,0,0-.1.654c.32.62.575,1.276.931,1.873a2.35,2.35,0,0,1,.061,2.04,3.446,3.446,0,0,1-2.874,2.585c-1.346.353-1.315.429-1.286,1.852a.484.484,0,0,0,.391.534c.848.273,1.694.555,2.528.87a1.169,1.169,0,0,1,.624.469c.7,1.466,1.218,2.876.1,4.482-.828,1.193-.685,1.305.416,2.276A.674.674,0,0,0,74,739.7a16.8,16.8,0,0,0,1.988-.959,2.225,2.225,0,0,1,1.884-.055c1.652.411,2.26,1.515,2.66,2.981.362,1.326.429,1.295,1.787,1.294.344,0,.526-.089.626-.435.179-.613.456-1.2.6-1.819.2-.865.758-1.205,1.527-1.608a3.532,3.532,0,0,1,3.734.232c1.272.72,1.3.648,2.315-.4a.477.477,0,0,0,.092-.651c-.4-.794-.771-1.607-1.18-2.4a.927.927,0,0,1,.01-1.034,1.514,1.514,0,0,0,.278-.572c.224-1.6,1.359-2.087,2.739-2.415s1.345-.395,1.327-1.813a.522.522,0,0,0-.426-.576c-.811-.262-1.609-.564-2.423-.816a1.18,1.18,0,0,1-.811-.829,12.362,12.362,0,0,0-.6-1.506,1.434,1.434,0,0,1,0-1.385c.375-.744.75-1.489,1.085-2.251a.662.662,0,0,0-.079-.58c-.986-1.116-.994-1.109-2.356-.448a4.526,4.526,0,0,0-.522.255,3.385,3.385,0,0,1-4.856-2.214.821.821,0,0,0-.039-.109c-.512-1.634-.512-1.634-2.229-1.527a.562.562,0,0,0-.1.033c-.3.865-.639,1.75-.91,2.655a1.354,1.354,0,0,1-1.025.986,6.908,6.908,0,0,0-1.343.541,1.441,1.441,0,0,1-1.532-.015C75.393,721.792,74.537,721.384,73.593,720.9Zm46.948-20.077-8.985-8.964v.453q0,3.115,0,6.23a2.032,2.032,0,0,0,2.281,2.307c2.077.007,4.154,0,6.232,0C120.239,700.849,120.408,700.831,120.541,700.823Z" transform="translate(0 0)" fill="#fff"/>
    <path id="Path_1312" data-name="Path 1312" d="M81.841,699.865c0,2.852.009,5.7-.011,8.556a2.5,2.5,0,0,1-.247,1.05c-1.122,2.277-2.271,4.54-3.411,6.808-.189.375-.425.811-.884.687a1.58,1.58,0,0,1-.883-.718c-1.208-2.3-2.371-4.619-3.532-6.942a1.669,1.669,0,0,1-.152-.724q-.012-8.643,0-17.287a2.571,2.571,0,0,1,2.709-2.706c1.223-.011,2.446-.008,3.668,0a2.554,2.554,0,0,1,2.743,2.72C81.851,694.161,81.84,697.013,81.841,699.865Zm-1.792-4.307H74.5v12.371h5.55Zm.023-1.9c0-.884.014-1.716,0-2.548a.735.735,0,0,0-.8-.754c-1.319-.024-2.639-.021-3.958,0a.755.755,0,0,0-.826.736c-.036.845-.01,1.693-.01,2.569Zm-.619,16.106h-4.43l2.261,4.432Z" transform="translate(-1.947 -0.012)" fill="#fff"/>
    <path id="Path_1313" data-name="Path 1313" d="M124.383,740.1q-5.065,0-10.131,0a5.033,5.033,0,0,1-.7-.029.754.754,0,0,1-.672-.761.776.776,0,0,1,.575-.895,2.126,2.126,0,0,1,.574-.068q10.364-.006,20.728,0a1.856,1.856,0,0,1,.627.088.8.8,0,0,1,.535.924.74.74,0,0,1-.709.718,5.638,5.638,0,0,1-.639.021Q129.478,740.106,124.383,740.1Z" transform="translate(-17.275 -19.002)" fill="#fff"/>
    <path id="Path_1314" data-name="Path 1314" d="M112.2,700.284q-3.7,0-7.4,0a2.336,2.336,0,0,1-.633-.05.812.812,0,0,1-.632-.919.762.762,0,0,1,.785-.771c.155-.011.31-.011.466-.011h14.85c.155,0,.311,0,.465.012a.776.776,0,0,1,.771.795.8.8,0,0,1-.7.922,3.016,3.016,0,0,1-.581.024Q115.9,700.285,112.2,700.284Z" transform="translate(-13.71 -3.808)" fill="#fff"/>
    <path id="Path_1315" data-name="Path 1315" d="M110.389,718.52q2.821,0,5.642,0c.73,0,1.059.27,1.069.851.01.606-.333.9-1.086.9q-5.671,0-11.343,0c-.738,0-1.123-.3-1.137-.866-.014-.606.343-.882,1.154-.883Q107.539,718.517,110.389,718.52Z" transform="translate(-13.709 -11.436)" fill="#fff"/>
    <path id="Path_1316" data-name="Path 1316" d="M123.825,758.367q2.851,0,5.7,0c.43,0,.814.068.991.538a.843.843,0,0,1-.659,1.182,3.059,3.059,0,0,1-.522.026q-5.555,0-11.111,0c-.116,0-.234.005-.349-.006a.884.884,0,0,1-.89-.887.819.819,0,0,1,.9-.845c.892-.02,1.784-.007,2.676-.007Z" transform="translate(-18.842 -26.64)" fill="#fff"/>
    <path id="Path_1317" data-name="Path 1317" d="M135.5,770.017c-1.881,0-3.762.021-5.642-.021a1.114,1.114,0,0,1-.816-.482.969.969,0,0,1,.1-.895,1.362,1.362,0,0,1,.922-.338c2-.029,3.994-.015,5.991-.015q2.355,0,4.711,0a3.416,3.416,0,0,1,.523.017.858.858,0,0,1,.781.921.775.775,0,0,1-.867.807C139.3,770.024,137.4,770.016,135.5,770.017Z" transform="translate(-23.417 -30.417)" fill="#fff"/>
    <path id="Path_1318" data-name="Path 1318" d="M136.267,718.52q2.561,0,5.122,0c.759,0,1.1.284,1.088.891-.01.579-.345.857-1.069.858q-5.15.006-10.3,0c-.7,0-1.066-.3-1.072-.867s.357-.879,1.053-.881C132.814,718.516,134.541,718.52,136.267,718.52Z" transform="translate(-23.821 -11.436)" fill="#fff"/>
    <path id="Path_1319" data-name="Path 1319" d="M125.934,728.46c1.514,0,3.028,0,4.543,0,.725,0,1.064.277,1.072.847s-.343.894-1.041.895q-4.6.009-9.2,0c-.828,0-1.267-.562-.981-1.224a.9.9,0,0,1,.951-.522C122.827,728.464,124.38,728.46,125.934,728.46Z" transform="translate(-20.082 -15.228)" fill="#fff"/>
    <path id="Path_1320" data-name="Path 1320" d="M119.943,710.2c-1.32,0-2.64,0-3.96,0a2.945,2.945,0,0,1-.636-.052.767.767,0,0,1-.62-.861.743.743,0,0,1,.628-.794,5.082,5.082,0,0,1,.869-.051q3.785-.006,7.57,0c.175,0,.351-.007.524.007.6.048.923.38.91.916-.014.516-.315.821-.918.829-1.455.019-2.911.006-4.367.006Z" transform="translate(-17.98 -7.588)" fill="#fff"/>
    <path id="Path_1321" data-name="Path 1321" d="M140.2,750.04c-1.145,0-2.289.005-3.434,0-.7,0-1.051-.3-1.046-.881s.355-.866,1.064-.867q3.376-.006,6.752,0c.078,0,.156,0,.233,0a.866.866,0,0,1,.874.893.8.8,0,0,1-.892.848c-1.184.015-2.367,0-3.551,0Z" transform="translate(-25.992 -22.795)" fill="#fff"/>
    <path id="Path_1322" data-name="Path 1322" d="M107.718,728.461c1.007,0,2.014-.007,3.022,0,.625.005.968.31.972.828a.911.911,0,0,1-.942.907q-3.108.025-6.217,0a.868.868,0,1,1,.028-1.733C105.626,728.452,106.672,728.461,107.718,728.461Z" transform="translate(-13.752 -15.228)" fill="#fff"/>
    <path id="Path_1323" data-name="Path 1323" d="M120.781,750.039c-.912,0-1.823.006-2.735,0-.665-.006-1.064-.348-1.061-.891s.378-.857,1.078-.858q2.792-.005,5.585,0c.707,0,1.044.3,1.039.884s-.331.859-1.057.864C122.682,750.044,121.731,750.039,120.781,750.039Z" transform="translate(-18.842 -22.795)" fill="#fff"/>
    <path id="Path_1324" data-name="Path 1324" d="M144.805,760.107c-.522,0-1.045.022-1.565-.006a.8.8,0,0,1-.844-.894.775.775,0,0,1,.845-.828q1.535-.035,3.072,0a.819.819,0,0,1,.88.868.8.8,0,0,1-.881.858c-.5.023-1,0-1.506,0Z" transform="translate(-28.538 -26.639)" fill="#fff"/>
    <path id="Path_1325" data-name="Path 1325" d="M115.262,770.015c-.5,0-1.006.014-1.508,0a.831.831,0,0,1-.887-.863.821.821,0,0,1,.829-.868c1.024-.03,2.051-.033,3.075,0a.863.863,0,0,1,.834.934.828.828,0,0,1-.892.8C116.23,770.027,115.746,770.015,115.262,770.015Z" transform="translate(-17.27 -30.415)" fill="#fff"/>
    <path id="Path_1326" data-name="Path 1326" d="M105.752,710.191c-.444,0-.89.022-1.332-.006a.843.843,0,0,1-.882-.875.8.8,0,0,1,.876-.861c.907-.026,1.816-.027,2.723,0a.866.866,0,0,1,.007,1.732c-.463.023-.927.005-1.391.005Z" transform="translate(-13.71 -7.586)" fill="#fff"/>
    <path id="Path_1327" data-name="Path 1327" d="M145.3,728.464c.446,0,.894-.019,1.339.006a.817.817,0,0,1,.829.861.762.762,0,0,1-.767.852c-.93.039-1.863.038-2.793,0a.861.861,0,0,1,.054-1.72C144.405,728.448,144.852,728.463,145.3,728.464Z" transform="translate(-28.812 -15.228)" fill="#fff"/>
    <path id="Path_1328" data-name="Path 1328" d="M87.154,758.453a5.44,5.44,0,1,1,5.53-5.366A5.491,5.491,0,0,1,87.154,758.453Zm.084-1.755a3.685,3.685,0,1,0,0-7.371,3.675,3.675,0,0,0-3.679,3.65A3.721,3.721,0,0,0,87.238,756.7Z" transform="translate(-5.414 -22.522)" fill="#fff"/>
  </g>
</svg>
