<svg xmlns="http://www.w3.org/2000/svg" width="65.919" height="65.913" viewBox="0 0 65.919 65.913">
  <g id="Group_375" data-name="Group 375" transform="translate(-317.203 -691.183)">
    <path id="Path_1501" data-name="Path 1501" d="M338.447,691.183h1.417c1.234.333,2.486.834,2.962,2.046.5,1.28,1.333,1.382,2.423,1.262a1.379,1.379,0,0,1,.638.02c.52.211,1.016.48,1.524.721a2.1,2.1,0,0,0,.755.323c2.4.025,4.8.01,7.205.016a5.489,5.489,0,0,1,5.766,5.723c.011,1.8,0,3.6,0,5.4,0,.225.02.45.033.723a2.776,2.776,0,0,0,.292-.1,6.534,6.534,0,0,1,6.558.3,4.858,4.858,0,0,0,2.26.569,6.641,6.641,0,0,1,5.987,3.445,5.2,5.2,0,0,0,1.725,1.747,6.532,6.532,0,0,1,3.477,6.02,5.914,5.914,0,0,0,.39,1.928c.368,1.041.835,2.046,1.261,3.067v1.673a15.983,15.983,0,0,1-.884,2.326,5.925,5.925,0,0,0-.8,3.059,5.941,5.941,0,0,1-2.145,4.7c-.431.377-.968.631-1.427.979-1.4,1.061-2.476,2.289-2.459,4.215.036,4.076-.009,8.153.022,12.23a3.085,3.085,0,0,1-5.128,2.713c-1.729-1.193-3.5-2.323-5.231-3.517a.917.917,0,0,0-1.235-.01c-1.869,1.293-3.755,2.562-5.667,3.79a2.977,2.977,0,0,1-4.7-2.495c-.023-.729-.005-1.459-.006-2.189v-1.354h-.879q-14.772,0-29.545,0a5.523,5.523,0,0,1-5.839-5.859q0-21.629,0-43.256a5.517,5.517,0,0,1,5.863-5.832c2.3,0,4.591-.008,6.887.005a1.452,1.452,0,0,0,1.121-.428,3.025,3.025,0,0,1,1.355-.625,4.346,4.346,0,0,1,1.409-.026,1.142,1.142,0,0,0,1.427-.855,3.542,3.542,0,0,1,1.935-1.974C337.6,691.478,338.032,691.343,338.447,691.183Zm-14.611,11.009v41.734H352.7a1.215,1.215,0,0,0,.445-.016c.126-.053.307-.206.3-.306-.1-1.641.432-3.361-.81-4.853A6.885,6.885,0,0,0,350.8,737a6.165,6.165,0,0,1-3.355-5.8,4.9,4.9,0,0,0-.711-2.627,6.188,6.188,0,0,1,.014-6.7,4.76,4.76,0,0,0,.7-2.566,6.179,6.179,0,0,1,3.388-5.845,5.171,5.171,0,0,0,1.846-1.83c.431-.679,1.019-1.257,1.5-1.9a1.547,1.547,0,0,0,.351-.811c.029-2.037.017-4.075.014-6.113,0-.2-.025-.407-.04-.645h-.77c-2.6,0-5.191-.021-7.786.017a6.234,6.234,0,0,0-1.58.368,9.655,9.655,0,0,1-1.948.6c-1.795.114-3.6.108-5.4.125a6.764,6.764,0,0,1-3.322-.869,2.014,2.014,0,0,0-.9-.232c-2.788-.018-5.577-.011-8.366-.009C324.247,702.16,324.058,702.18,323.836,702.192Zm46.342,37.876a4.238,4.238,0,0,0,4.26-2.494,5.861,5.861,0,0,1,2.5-2.438,4.1,4.1,0,0,0,2.327-3.982,6.538,6.538,0,0,1,1-3.667,4.048,4.048,0,0,0,0-4.5,6.529,6.529,0,0,1-.994-3.668,4.071,4.071,0,0,0-2.275-3.945,6.568,6.568,0,0,1-2.687-2.692,4.1,4.1,0,0,0-3.956-2.267,6.342,6.342,0,0,1-3.553-.935,4.161,4.161,0,0,0-4.671-.009,6.313,6.313,0,0,1-3.552.941,4.1,4.1,0,0,0-4,2.3,6.372,6.372,0,0,1-2.64,2.649,4.058,4.058,0,0,0-2.295,3.93,6.538,6.538,0,0,1-.986,3.671,4.078,4.078,0,0,0,0,4.555,6.551,6.551,0,0,1,.983,3.672,4.062,4.062,0,0,0,2.3,3.928,6.263,6.263,0,0,1,2.606,2.595,4.183,4.183,0,0,0,4.1,2.351,5.9,5.9,0,0,1,3.373.883,4.243,4.243,0,0,0,4.839.014A5.98,5.98,0,0,1,370.178,740.068Zm-38.989-40.107a17.786,17.786,0,0,1-.583-1.714c-.094-.406-.282-.492-.66-.489-2.3.014-4.591.005-6.887.008a3.346,3.346,0,0,0-3.661,3.685q0,21.594,0,43.189a3.352,3.352,0,0,0,3.667,3.682q14.836,0,29.673,0c.225,0,.451-.02.689-.031v-2.165H324.3c-1.9,0-2.713-.8-2.713-2.689q0-20.4,0-40.808c0-1.846.821-2.666,2.67-2.667Zm42.036,41.964c-1.2.121-2.3.183-3.388.362a5.8,5.8,0,0,0-1.928.622,6.473,6.473,0,0,1-6.894.014,5.017,5.017,0,0,0-1.67-.611c-1.194-.188-2.4-.263-3.653-.389,0,.06-.023.247-.023.433q0,5.7,0,11.393c0,.415-.031.918.448,1.022a1.623,1.623,0,0,0,1.1-.229c1.911-1.228,3.793-2.5,5.684-3.764a2.283,2.283,0,0,1,3.067-.017q2.841,1.886,5.675,3.78c.358.238.768.585,1.152.22a1.591,1.591,0,0,0,.41-1.048c.029-3.712.018-7.424.018-11.136Zm-40.587-45.238a4.112,4.112,0,0,0,3.486,4.249,33.134,33.134,0,0,0,6.091,0,4.086,4.086,0,0,0,3.491-4.251c-.953,0-1.914,0-2.874,0-1.018,0-1.313-.269-1.461-1.288a2.221,2.221,0,0,0-2.206-2.02A2.186,2.186,0,0,0,337,695.423c-.12.952-.459,1.255-1.437,1.262C334.6,696.692,333.64,696.687,332.638,696.687Zm14.527,3.274h.706c2.143,0,4.287-.005,6.43,0a2.21,2.21,0,0,1,2.443,2.423c.006,1.758,0,3.515,0,5.273v.7l2.2-.193c0-2.345.009-4.636,0-6.927a3.282,3.282,0,0,0-3.472-3.467c-2.079-.011-4.158,0-6.237,0h-1.294Z" fill="#fff"/>
    <path id="Path_1502" data-name="Path 1502" d="M343.016,705.469c1.949,0,3.9,0,5.846,0,.8,0,1.3.44,1.3,1.1a1.124,1.124,0,0,1-1.253,1.086c-3.919.005-7.838,0-11.757.005a1.126,1.126,0,0,1-1.222-.828.98.98,0,0,1,.507-1.2,1.733,1.733,0,0,1,.8-.161C339.161,705.463,341.088,705.469,343.016,705.469Z" fill="#fff"/>
    <path id="Path_1503" data-name="Path 1503" d="M340.895,715.364c1.2,0,2.4-.006,3.6,0,.773.005,1.258.42,1.273,1.059a1.144,1.144,0,0,1-1.286,1.13q-3.663.013-7.328,0a1.138,1.138,0,0,1-1.27-1.142c.023-.644.5-1.042,1.282-1.047C338.409,715.358,339.652,715.364,340.895,715.364Z" fill="#fff"/>
    <path id="Path_1504" data-name="Path 1504" d="M340.822,737.316c-1.222,0-2.443.009-3.664,0-.785-.007-1.256-.413-1.275-1.058a1.136,1.136,0,0,1,1.28-1.132q3.664-.018,7.328,0a1.136,1.136,0,0,1,1.277,1.137c-.023.64-.5,1.046-1.283,1.053C343.264,737.325,342.043,737.316,340.822,737.316Z" fill="#fff"/>
    <path id="Path_1505" data-name="Path 1505" d="M340.281,739.52c1.027,0,2.055-.011,3.082,0,.834.012,1.29.42,1.286,1.106s-.458,1.086-1.3,1.091q-3.081.017-6.164,0c-.811-.005-1.305-.447-1.3-1.106s.495-1.08,1.316-1.09C338.226,739.51,339.254,739.52,340.281,739.52Z" fill="#fff"/>
    <path id="Path_1506" data-name="Path 1506" d="M329.2,729.022c.841-1.121,1.616-2.226,2.477-3.259a1.473,1.473,0,0,1,1.094-.444,1.165,1.165,0,0,1,.8.676,1.339,1.339,0,0,1-.182,1.058c-1.028,1.447-2.1,2.862-3.185,4.27a1.078,1.078,0,0,1-1.767.114c-.313-.292-.612-.6-.908-.909a1.1,1.1,0,0,1-.143-1.6,1.082,1.082,0,0,1,1.6-.044C329.037,728.921,329.09,728.951,329.2,729.022Z" fill="#fff"/>
    <path id="Path_1507" data-name="Path 1507" d="M329.2,738.912c.839-1.118,1.632-2.206,2.459-3.267a1.063,1.063,0,0,1,1.927.219,1.417,1.417,0,0,1-.182,1.066c-1.027,1.447-2.1,2.861-3.183,4.269a1.1,1.1,0,0,1-1.77.132c-.313-.291-.612-.6-.908-.907a1.112,1.112,0,0,1-.158-1.6,1.08,1.08,0,0,1,1.6-.059C329.03,738.8,329.082,738.834,329.2,738.912Z" fill="#fff"/>
    <path id="Path_1508" data-name="Path 1508" d="M329.193,719.139c.81-1.076,1.59-2.119,2.376-3.157a1.141,1.141,0,0,1,1.652-.415c.567.407.608,1.047.09,1.744q-1.492,2.01-3,4.005c-.617.813-1.244.843-1.982.115-.228-.225-.455-.453-.68-.681-.6-.611-.7-1.188-.275-1.689S328.4,718.554,329.193,719.139Z" fill="#fff"/>
    <path id="Path_1509" data-name="Path 1509" d="M329.2,709.241c.813-1.082,1.579-2.163,2.421-3.18a1.626,1.626,0,0,1,1.06-.554,1.02,1.02,0,0,1,.837,1.584c-1.109,1.571-2.275,3.1-3.458,4.621a1,1,0,0,1-1.493.054c-.37-.322-.71-.681-1.05-1.036a1.107,1.107,0,0,1-.156-1.552,1.121,1.121,0,0,1,1.6-.093C329.032,709.13,329.1,709.173,329.2,709.241Z" fill="#fff"/>
    <path id="Path_1510" data-name="Path 1510" d="M339.69,731.843c-.835,0-1.669.009-2.5,0-.8-.011-1.3-.452-1.3-1.109s.491-1.079,1.311-1.082q2.535-.01,5.071,0c.812,0,1.312.432,1.308,1.09s-.513,1.091-1.315,1.1C341.4,731.852,340.546,731.843,339.69,731.843Z" fill="#fff"/>
    <path id="Path_1511" data-name="Path 1511" d="M339.755,712.049c-.878,0-1.755.008-2.633,0a1.118,1.118,0,0,1-1.24-1.093,1.132,1.132,0,0,1,1.247-1.095q2.6-.014,5.2,0a1.1,1.1,0,1,1-.006,2.187C341.467,712.057,340.611,712.049,339.755,712.049Z" fill="#fff"/>
    <path id="Path_1512" data-name="Path 1512" d="M339.717,719.756c.877,0,1.755-.009,2.632,0a1.1,1.1,0,1,1,.018,2.186q-2.633.02-5.264,0a1.119,1.119,0,0,1-1.22-1.121,1.1,1.1,0,0,1,1.2-1.064C337.962,719.746,338.839,719.756,339.717,719.756Z" fill="#fff"/>
    <path id="Path_1513" data-name="Path 1513" d="M339.733,725.247c.877,0,1.755-.015,2.632.005a1.1,1.1,0,1,1-.014,2.186q-2.631.028-5.263,0a1.1,1.1,0,1,1,.013-2.187C337.978,725.233,338.856,725.247,339.733,725.247Z" fill="#fff"/>
    <path id="Path_1514" data-name="Path 1514" d="M351.271,725.213a13.17,13.17,0,1,1,13.213,13.21A13.2,13.2,0,0,1,351.271,725.213Zm24.144.037a10.972,10.972,0,1,0-11.029,10.979A10.986,10.986,0,0,0,375.415,725.25Z" fill="#fff"/>
    <path id="Path_1515" data-name="Path 1515" d="M362.059,728.059l5.65-7.535a3.771,3.771,0,0,1,.364-.45,1.087,1.087,0,0,1,1.731,1.273,3.757,3.757,0,0,1-.362.53q-3.049,4.066-6.1,8.132c-.7.931-1.292.972-2.112.153-.607-.607-1.218-1.21-1.818-1.824a1.1,1.1,0,1,1,1.531-1.569,8.248,8.248,0,0,1,.589.594C361.7,727.555,361.841,727.77,362.059,728.059Z" fill="#fff"/>
  </g>
</svg>
