<svg id="Group_256" data-name="Group 256" xmlns="http://www.w3.org/2000/svg" width="75.911" height="77.625" viewBox="0 0 75.911 77.625">
  <g id="Group_218" data-name="Group 218" transform="translate(0 0)">
    <g id="_805_Computer_File_Education_Online" data-name="805, Computer, File, Education, Online">
      <g id="Group_217" data-name="Group 217">
        <g id="Group_216" data-name="Group 216">
          <g id="Group_198" data-name="Group 198" transform="translate(1.451 1.845)">
            <g id="Group_196" data-name="Group 196" transform="translate(0 49.422)">
              <g id="Group_195" data-name="Group 195">
                <path id="Path_584" data-name="Path 584" d="M298.094,95.705v5.139a3.966,3.966,0,0,1-3.954,3.954H229.564a3.965,3.965,0,0,1-3.954-3.954V95.705h72.484Z" transform="translate(-225.61 -95.705)" fill="#dcffee"/>
              </g>
            </g>
            <g id="Group_197" data-name="Group 197" transform="translate(6.72)">
              <path id="Path_585" data-name="Path 585" d="M255.534,64.444V90.8H230.757V57.854h18.714l6.062,6.062Z" transform="translate(-230.757 -57.854)" fill="#dcffee"/>
            </g>
          </g>
          <g id="Group_215" data-name="Group 215">
            <g id="Group_214" data-name="Group 214">
              <g id="Group_199" data-name="Group 199" transform="translate(22.062 58.514)">
                <path id="Path_586" data-name="Path 586" d="M268.228,120.366a1.656,1.656,0,0,1-1.581-1.187l-4.349-14.5h-13.31l-4.349,14.5a1.667,1.667,0,0,1-3.162-1.054l4.744-15.684a1.7,1.7,0,0,1,1.581-1.186h15.684a1.7,1.7,0,0,1,1.581,1.186l4.745,15.684a1.727,1.727,0,0,1-1.055,2.107C268.492,120.233,268.36,120.366,268.228,120.366Z" transform="translate(-241.396 -101.256)" fill="#1ee396"/>
              </g>
              <g id="Group_200" data-name="Group 200" transform="translate(14.103 74.197)">
                <path id="Path_587" data-name="Path 587" d="M277.867,116.694H237.013a1.714,1.714,0,0,1,0-3.427h40.854a1.714,1.714,0,0,1,0,3.427Z" transform="translate(-235.3 -113.267)" fill="#1ee396"/>
              </g>
              <g id="Group_201" data-name="Group 201" transform="translate(0 49.42)">
                <path id="Path_588" data-name="Path 588" d="M254.152,97.718h-27.94a1.714,1.714,0,0,1,0-3.427h27.94a1.744,1.744,0,0,1,1.713,1.714A1.841,1.841,0,0,1,254.152,97.718Z" transform="translate(-224.499 -94.291)" fill="#1ee396"/>
              </g>
              <g id="Group_202" data-name="Group 202" transform="translate(27.94 49.42)">
                <path id="Path_589" data-name="Path 589" d="M292.024,97.718H247.611a1.714,1.714,0,0,1,0-3.427h44.545a1.745,1.745,0,0,1,1.713,1.714A1.866,1.866,0,0,1,292.024,97.718Z" transform="translate(-245.898 -94.291)" fill="#1ee396"/>
              </g>
              <g id="Group_203" data-name="Group 203" transform="translate(41.119 13.18)">
                <path id="Path_590" data-name="Path 590" d="M282.349,69.961H257.7a1.713,1.713,0,1,1,0-3.426h24.777a1.744,1.744,0,0,1,1.713,1.713A1.968,1.968,0,0,1,282.349,69.961Z" transform="translate(-255.991 -66.535)" fill="#1ee396"/>
              </g>
              <g id="Group_204" data-name="Group 204" transform="translate(54.825 18.187)">
                <path id="Path_591" data-name="Path 591" d="M279.14,73.8H268.2a1.714,1.714,0,0,1,0-3.427H279.14a1.714,1.714,0,0,1,0,3.427Z" transform="translate(-266.488 -70.37)" fill="#1ee396"/>
              </g>
              <g id="Group_205" data-name="Group 205" transform="translate(41.119 24.777)">
                <path id="Path_592" data-name="Path 592" d="M282.349,78.843H257.7a1.713,1.713,0,1,1,0-3.426h24.777a1.744,1.744,0,0,1,1.713,1.713A1.968,1.968,0,0,1,282.349,78.843Z" transform="translate(-255.991 -75.417)" fill="#1ee396"/>
              </g>
              <g id="Group_206" data-name="Group 206" transform="translate(54.825 29.652)">
                <path id="Path_593" data-name="Path 593" d="M279.14,82.578H268.2a1.714,1.714,0,0,1,0-3.427H279.14a1.714,1.714,0,0,1,0,3.427Z" transform="translate(-266.488 -79.151)" fill="#1ee396"/>
              </g>
              <g id="Group_207" data-name="Group 207" transform="translate(0 6.59)">
                <path id="Path_594" data-name="Path 594" d="M294.612,116.707H230.035a5.569,5.569,0,0,1-5.536-5.535V67.155a5.569,5.569,0,0,1,5.536-5.535h2.635a1.713,1.713,0,1,1,0,3.426h-2.635a2.31,2.31,0,0,0-2.241,2.241V111.3a2.31,2.31,0,0,0,2.241,2.241h64.577a2.31,2.31,0,0,0,2.241-2.241V67.155a2.31,2.31,0,0,0-2.241-2.241H257.447a1.713,1.713,0,1,1,0-3.426h37.165a5.569,5.569,0,0,1,5.535,5.535V111.04A5.6,5.6,0,0,1,294.612,116.707Z" transform="translate(-224.499 -61.488)" fill="#1ee396"/>
              </g>
              <g id="Group_208" data-name="Group 208" transform="translate(6.458)">
                <path id="Path_595" data-name="Path 595" d="M255.935,92.815H231.158a1.745,1.745,0,0,1-1.713-1.713V58.154a1.745,1.745,0,0,1,1.713-1.713h18.714a1.611,1.611,0,0,1,1.187.527l6.062,6.062a1.967,1.967,0,0,1,.526,1.186V91.1A1.955,1.955,0,0,1,255.935,92.815Zm-23.062-3.294h21.349V64.876l-5.007-5.009H232.872Z" transform="translate(-229.445 -56.441)" fill="#1ee396"/>
              </g>
              <g id="Group_209" data-name="Group 209" transform="translate(11.467 6.59)">
                <path id="Path_596" data-name="Path 596" d="M238.288,64.914h-3.294a1.713,1.713,0,0,1,0-3.426h3.294A1.744,1.744,0,0,1,240,63.2,1.956,1.956,0,0,1,238.288,64.914Z" transform="translate(-233.281 -61.488)" fill="#1ee396"/>
              </g>
              <g id="Group_210" data-name="Group 210" transform="translate(19.638 6.59)">
                <path id="Path_597" data-name="Path 597" d="M244.546,64.914h-3.294a1.713,1.713,0,1,1,0-3.426h3.294a1.713,1.713,0,1,1,0,3.426Z" transform="translate(-239.539 -61.488)" fill="#1ee396"/>
              </g>
              <g id="Group_211" data-name="Group 211" transform="translate(11.467 13.18)">
                <path id="Path_598" data-name="Path 598" d="M249.755,69.961H234.994a1.713,1.713,0,0,1,0-3.426h14.893a1.744,1.744,0,0,1,1.713,1.713A1.969,1.969,0,0,1,249.755,69.961Z" transform="translate(-233.281 -66.535)" fill="#1ee396"/>
              </g>
              <g id="Group_212" data-name="Group 212" transform="translate(11.467 18.187)">
                <path id="Path_599" data-name="Path 599" d="M249.755,73.8H234.994a1.714,1.714,0,0,1,0-3.427h14.893a1.745,1.745,0,0,1,1.713,1.713A1.969,1.969,0,0,1,249.755,73.8Z" transform="translate(-233.281 -70.37)" fill="#1ee396"/>
              </g>
              <g id="Group_213" data-name="Group 213" transform="translate(17.924 23.064)">
                <path id="Path_600" data-name="Path 600" d="M248.243,77.531h-8.3a1.713,1.713,0,0,1,0-3.426h8.3a1.713,1.713,0,0,1,0,3.426Z" transform="translate(-238.227 -74.105)" fill="#1ee396"/>
              </g>
            </g>
          </g>
        </g>
      </g>
    </g>
  </g>
</svg>
