<svg xmlns="http://www.w3.org/2000/svg" width="60.568" height="60.564" viewBox="0 0 60.568 60.564">
  <g id="Group_374" data-name="Group 374" transform="translate(-116.057 -696.256)">
    <path id="Path_1496" data-name="Path 1496" d="M123.272,696.256a17.092,17.092,0,0,1,2.507.973,6.2,6.2,0,0,1,2.952,4.231H159.88a3.59,3.59,0,0,1,3.96,3.95q0,9.845,0,19.691c0,.829-.327,1.319-.943,1.433a1.171,1.171,0,0,1-1.414-1.07c-.019-.2-.008-.394-.008-.591V705.418c0-1.22-.371-1.592-1.585-1.592H128.831v30.342c0,1.084-.392,1.642-1.163,1.656-.793.015-1.2-.555-1.2-1.674q0-15.641,0-31.281a4.024,4.024,0,0,0-8.032-.488c-.013.216-.009.434-.009.65v42.356a6.5,6.5,0,0,1,10.326,3.828h31.632c-.166-.183-.274-.312-.392-.43-1.295-1.3-2.6-2.587-3.881-3.9a1.177,1.177,0,0,0-.926-.384q-11.146.015-22.293.007c-.2,0-.4.011-.591-.008a1.177,1.177,0,0,1,.012-2.349c.2-.018.394-.008.591-.008h20.374c-.136-.17-.215-.291-.314-.391-.82-.825-1.657-1.633-2.459-2.475a1.341,1.341,0,0,0-1.075-.456c-5.519.016-11.038.01-16.557.01a5.542,5.542,0,0,1-.591-.01,1.176,1.176,0,0,1-.009-2.344,5.282,5.282,0,0,1,.591-.011h14.786c-.955-1.084-2.181-1.838-2.368-3.312h-.721q-5.943,0-11.886,0c-1.057,0-1.474-.414-1.475-1.464q0-5.412,0-10.822c0-1.007.43-1.43,1.446-1.432q3.222,0,6.445,0c.9,0,1.455.459,1.447,1.193s-.555,1.17-1.47,1.171c-1.81,0-3.62,0-5.467,0v8.96h10.708c-.134-.364-.256-.709-.387-1.051q-1.189-3.115-2.385-6.229a1.352,1.352,0,0,1,.14-1.593,1.333,1.333,0,0,1,1.589-.165c3.509,1.343,7.023,2.673,10.528,4.028a2.916,2.916,0,0,1,.975.632q10.362,10.335,20.7,20.692a3.307,3.307,0,0,1,.006,5.014q-1.793,1.8-3.6,3.6a3.306,3.306,0,0,1-4.973.012c-1.246-1.235-2.471-2.491-3.733-3.709a1.394,1.394,0,0,0-.855-.364c-1.614-.035-3.23-.017-4.936-.017,0,.457,0,.882,0,1.308a3.572,3.572,0,0,1-3.894,3.9q-15.345,0-30.69,0a6.366,6.366,0,0,1-6.656-5.4.616.616,0,0,0-.087-.155V701.815a1.451,1.451,0,0,0,.1-.266,5.884,5.884,0,0,1,2.668-4.127,17.714,17.714,0,0,1,2.787-1.166Zm25.309,37.621L164.4,749.694l5.108-5.1q-7.909-7.9-15.828-15.813ZM155,751.609H128.055c-1.168,0-1.514-.319-1.6-1.468a4.021,4.021,0,1,0-3.939,4.3q15.543.012,31.085,0a2.9,2.9,0,0,0,.295-.006,1.133,1.133,0,0,0,1.1-1.1C155.031,752.792,155,752.24,155,751.609Zm16.422-5.258-5.289,5.258c.806.8,1.652,1.652,2.515,2.489a.921.921,0,0,0,1.456.011q1.92-1.886,3.8-3.806a.918.918,0,0,0-.017-1.455C173.059,747.985,172.206,747.138,171.426,746.351ZM147.164,731.58l4.223-4.221-6.824-2.594Z" fill="#fff"/>
    <path id="Path_1497" data-name="Path 1497" d="M145.181,706.191q6.2,0,12.409,0c1.126,0,1.518.4,1.519,1.537q0,3.457,0,6.914c0,1.057-.417,1.482-1.457,1.482q-12.5,0-25,0c-1.043,0-1.458-.422-1.459-1.479q0-3.486,0-6.973c0-1.083.409-1.481,1.515-1.481Q138.946,706.189,145.181,706.191Zm-11.592,7.528H156.7v-5.131H133.589Z" fill="#fff"/>
    <path id="Path_1498" data-name="Path 1498" d="M155.037,719.438c.924,0,1.848-.008,2.771,0a1.186,1.186,0,1,1-.017,2.359q-2.771.014-5.542,0a1.186,1.186,0,1,1,.017-2.359C153.189,719.431,154.113,719.438,155.037,719.438Z" fill="#fff"/>
    <path id="Path_1499" data-name="Path 1499" d="M162.659,730.788a1.179,1.179,0,1,1,1.177-1.166A1.193,1.193,0,0,1,162.659,730.788Z" fill="#fff"/>
    <path id="Path_1500" data-name="Path 1500" d="M127.646,740.96a1.178,1.178,0,1,1,1.18-1.148A1.193,1.193,0,0,1,127.646,740.96Z" fill="#fff"/>
  </g>
</svg>
