<svg xmlns="http://www.w3.org/2000/svg" width="56.709" height="56.687" viewBox="0 0 56.709 56.687">
  <g id="Group_376" data-name="Group 376" transform="translate(-412.496 -696.783)">
    <path id="Path_1516" data-name="Path 1516" d="M444.842,696.783c.058.042.114.086.174.125a1.108,1.108,0,0,1-.613,2.086q-4.181.009-8.36,0A3.7,3.7,0,0,0,432,703.052q0,8.609,0,17.215a3.68,3.68,0,0,0,3.962,3.974q9.328,0,18.657-.008a2.059,2.059,0,0,1,1.452.535c1.838,1.6,3.7,3.169,5.551,4.749.166.141.339.275.568.462.016-.216.037-.37.038-.523,0-1.329-.005-2.657,0-3.986a1.117,1.117,0,0,1,1.186-1.23,3.648,3.648,0,0,0,3.572-3.752q.012-8.856,0-17.713A3.643,3.643,0,0,0,463.219,699c-2.879-.008-5.758,0-8.636-.005a1.107,1.107,0,0,1-.612-2.086c.059-.04.115-.084.173-.125h9.967a2.761,2.761,0,0,0,.3.1,5.794,5.794,0,0,1,4.473,3.892c.13.357.214.73.32,1.1v19.487c-.069.245-.137.49-.208.734a5.827,5.827,0,0,1-4.03,4.124c-.122.04-.249.069-.372.1a1.488,1.488,0,0,0-.154.068v3.56c0,.756-.009,1.513,0,2.269a1.144,1.144,0,0,1-1.993.92q-3.744-3.2-7.5-6.388a1.4,1.4,0,0,0-.78-.286c-.717-.038-1.437-.013-2.24-.013v.658q0,6.532,0,13.064a5.887,5.887,0,0,1-6.22,6.208c-6.035,0-12.069-.005-18.1.014a1.483,1.483,0,0,0-.877.318q-3.707,3.117-7.376,6.278a1.172,1.172,0,0,1-2.087-.944c.013-1.9,0-3.8,0-5.733-.161-.053-.311-.108-.464-.152a5.831,5.831,0,0,1-4.291-5.55q-.033-9.051,0-18.1a5.825,5.825,0,0,1,5.838-5.8c3.562-.026,7.124-.006,10.686-.006h.741v-.663q0-6.531,0-13.064a5.854,5.854,0,0,1,4.955-6.122.584.584,0,0,0,.139-.081Zm-10.734,29.611c.049.134.109.3.173.476q1.941,5.142,3.88,10.286a1.135,1.135,0,0,1-.564,1.615c-.625.252-1.208-.06-1.5-.813-.233-.6-.466-1.2-.675-1.811a.491.491,0,0,0-.548-.4q-2.656.027-5.314,0a.5.5,0,0,0-.544.406c-.25.693-.5,1.389-.8,2.061a1.047,1.047,0,0,1-1.39.553,1.089,1.089,0,0,1-.643-1.357c.04-.141.1-.277.151-.415l2.97-7.795c.609-1.6,1.217-3.2,1.774-4.659a17.473,17.473,0,0,1-1.123-2.676,18.43,18.43,0,0,1-.249-2.939h-.533q-5.286,0-10.572,0a3.664,3.664,0,0,0-3.884,3.883q0,8.744,0,17.488a3.656,3.656,0,0,0,3.62,3.872,1.113,1.113,0,0,1,1.14,1.22c.009,1.31,0,2.62,0,3.93v.619c.261-.21.434-.341.6-.481,1.838-1.568,3.684-3.128,5.506-4.715a2.187,2.187,0,0,1,1.544-.583c6.2.018,12.4.011,18.6.01a3.676,3.676,0,0,0,3.982-3.953q0-6.586,0-13.172v-.652Zm.311,7.122-2.183-5.781-2.2,5.781Z" fill="#fff"/>
    <path id="Path_1517" data-name="Path 1517" d="M449.825,696.783c.088.061.177.121.264.184a1.1,1.1,0,0,1-.623,2.02,1.035,1.035,0,0,1-1.02-.776,1.05,1.05,0,0,1,.451-1.244c.087-.063.176-.123.264-.184Z" fill="#fff"/>
    <path id="Path_1518" data-name="Path 1518" d="M449.5,717.469a12.142,12.142,0,0,1-5.239,2.939,12.373,12.373,0,0,1-1.57.308,1.1,1.1,0,1,1-.311-2.166,10.194,10.194,0,0,0,5-2.18c.157-.128.308-.264.459-.4.053-.049.1-.108.173-.194a12.378,12.378,0,0,1-2.307-7.084h-2.672c-.313,0-.628.012-.94-.012a1.106,1.106,0,0,1-1.125-1.122,1.087,1.087,0,0,1,1.165-1.073c1.07-.018,2.14-.007,3.21-.007h3.041v-1.751c0-1.719.26-2.237,1.121-2.227s1.094.519,1.094,2.254v1.724h.688c1.864,0,3.727-.008,5.59.009a1.074,1.074,0,0,1,1.136,1.044,1.1,1.1,0,0,1-1.043,1.14,4.122,4.122,0,0,1-.5.02q-1.3,0-2.6,0h-.59a12.431,12.431,0,0,1-2.325,7.1,9.969,9.969,0,0,0,5.3,2.7c.164.028.329.05.489.092a1.065,1.065,0,0,1,.855,1.228,1.007,1.007,0,0,1-1.171.914,21.387,21.387,0,0,1-3.041-.771A11.061,11.061,0,0,1,449.5,717.469Zm0-3.483a9.751,9.751,0,0,0,1.542-5.249h-3.1A9.912,9.912,0,0,0,449.495,713.986Z" fill="#fff"/>
  </g>
</svg>
