<svg xmlns="http://www.w3.org/2000/svg" width="66.587" height="66.738" viewBox="0 0 66.587 66.738">
  <g id="Group_378" data-name="Group 378" transform="translate(-204.389 -681.488)">
    <g id="Group_356" data-name="Group 356" transform="translate(204.389 688.168)">
      <path id="Path_1521" data-name="Path 1521" d="M211.5,701.064V690.392c0-1.2.2-1.355,1.394-1.231a40.371,40.371,0,0,1,11.182,2.668,29.189,29.189,0,0,1,13.4,10.928q.171.251.348.5c.025.035.066.059.03.028,2.08-.653,4.111-1.3,6.149-1.923.557-.17,1.136-.271,1.708-.394.778-.166,1.192-.021,1.245.477.076.718-.48.769-.994.922-2.345.7-4.677,1.439-7.019,2.15a.81.81,0,0,0-.632.932q.024,17.5.013,34.994c0,.2.018.4.031.7,10.358-4,20.688-4.541,31.095-.013v-.787q0-17.429.012-34.858a.917.917,0,0,0-.629-1.007,33.864,33.864,0,0,0-8.5-2.554c-.178-.028-.41-.013-.517-.118-.227-.226-.565-.549-.527-.775a.933.933,0,0,1,.734-.557,18.783,18.783,0,0,1,2.592.431,36.449,36.449,0,0,1,7.443,2.572,1.252,1.252,0,0,1,.823,1.3q-.021,21.549-.012,43.1c0,1.047-.267,1.252-1.271.981a61.352,61.352,0,0,0-17.753-2.208,56.966,56.966,0,0,0-13.506,2.078,2.8,2.8,0,0,1-1.428.009,54.694,54.694,0,0,0-17.421-2.062,61.414,61.414,0,0,0-13.242,2.072c-.217.058-.431.132-.65.179-.688.149-1.019-.109-1.061-.825-.012-.2,0-.405,0-.608q0-21.213-.017-42.425a1.513,1.513,0,0,1,1.054-1.7C207.524,702.642,209.458,701.859,211.5,701.064Zm25.392,38.589v-.7q0-16.956-.013-33.912a2.1,2.1,0,0,0-.319-1.058,27.941,27.941,0,0,0-14.413-11.363,35.846,35.846,0,0,0-9.152-2.02v36.408C222.691,727.876,230.9,731.475,236.889,739.653Zm-1.214.962a28.129,28.129,0,0,0-8.2-7.62,35.264,35.264,0,0,0-14.765-4.553c-1.15-.124-1.216-.19-1.216-1.38V702.589c-1.717.662-3.295,1.3-4.894,1.874-.549.2-.663.509-.663,1.048q.023,17.424.012,34.849c0,.234.02.467.035.764a37.659,37.659,0,0,1,14.8-3.223A46.08,46.08,0,0,1,235.675,740.615Zm33.775,6.668a3.177,3.177,0,0,1,0-.517c.13-.712-.174-1.055-.848-1.319a36.032,36.032,0,0,0-10.89-2.416,49.014,49.014,0,0,0-18.422,2.436c-1.091.354-1.164.514-.876,1.712A61.653,61.653,0,0,1,269.449,747.283Zm-32.626,0c.18-1.459.184-1.47-1.03-1.864a47.556,47.556,0,0,0-19.087-2.3,34.488,34.488,0,0,0-10.243,2.49c-.2.082-.454.272-.486.448a7.6,7.6,0,0,0-.023,1.3C216.3,744.7,226.564,744.235,236.823,747.285Zm1.5-3.017c10.437-3.353,20.763-4.04,31.129-.032a4,4,0,0,1,0-.621,1.022,1.022,0,0,0-.814-1.29c-1.062-.364-2.08-.854-3.145-1.206a36.285,36.285,0,0,0-17.73-1.148,43.308,43.308,0,0,0-8.875,2.492c-.412.164-.637.365-.576.835A8.151,8.151,0,0,1,238.321,744.268Zm-1.431-.013a3.325,3.325,0,0,1,0-.5c.148-.8-.2-1.157-.957-1.447a43.123,43.123,0,0,0-11.033-2.712,34.9,34.9,0,0,0-17.759,2.574c-1.243.536-1.243.536-1.182,1.907,0,.036.037.07.075.138C216.289,740.234,226.553,740.907,236.889,744.255Z" transform="translate(-204.403 -689.015)" fill="#fff"/>
      <path id="Path_1522" data-name="Path 1522" d="M270.225,749.06a2.691,2.691,0,0,1-.672-.113,61.277,61.277,0,0,0-17.721-2.2,56.538,56.538,0,0,0-13.481,2.073,2.855,2.855,0,0,1-1.486.009,54.747,54.747,0,0,0-17.387-2.056,61.55,61.55,0,0,0-13.218,2.067c-.079.02-.158.044-.236.068-.14.041-.277.082-.419.112a1.016,1.016,0,0,1-.858-.1,1.049,1.049,0,0,1-.337-.824c-.008-.146-.007-.293-.005-.441l0-.172v-8.291c0-11.187,0-22.755-.017-34.134a1.628,1.628,0,0,1,1.126-1.8c1.391-.512,2.746-1.046,4.182-1.613.552-.217,1.109-.436,1.674-.657v-10.6c0-.595.045-.98.28-1.19s.615-.214,1.237-.15a40.253,40.253,0,0,1,11.213,2.676,29.421,29.421,0,0,1,13.453,10.968c.1.156.212.309.321.461l1.528-.482c1.563-.492,3.038-.958,4.552-1.42.429-.132.875-.222,1.306-.311q.207-.041.411-.085a1.415,1.415,0,0,1,1.118.079.668.668,0,0,1,.261.5c.076.725-.437.864-.89.988-.06.017-.123.034-.184.052-1.358.4-2.735.83-4.067,1.242q-1.475.456-2.952.907c-.413.125-.554.333-.553.824q.019,13.934.013,27.866v7.129c0,.13.007.26.017.419l.006.124c11.005-4.221,21.109-4.229,30.881-.023v-5.982c0-9.667,0-19.663.012-29.5a.813.813,0,0,0-.563-.905,33.489,33.489,0,0,0-8.473-2.545c-.044-.007-.092-.011-.141-.015a.693.693,0,0,1-.437-.134l-.03-.031c-.256-.253-.575-.568-.528-.841a1.038,1.038,0,0,1,.825-.651h.028a19.214,19.214,0,0,1,2.606.434,36.815,36.815,0,0,1,7.466,2.579,1.359,1.359,0,0,1,.887,1.4q-.016,16.065-.011,32.128v10.971c0,.6-.089.909-.3,1.074A.683.683,0,0,1,270.225,749.06Zm-16.886-2.56a62.408,62.408,0,0,1,16.272,2.232c.491.134.763.141.914.024s.218-.385.218-.9V736.887q0-16.065.011-32.128a1.139,1.139,0,0,0-.758-1.2A36.565,36.565,0,0,0,262.574,701a18.888,18.888,0,0,0-2.575-.429h-.014a.874.874,0,0,0-.6.466c-.027.158.282.464.466.646l.03.03a.59.59,0,0,0,.3.071c.054,0,.108.01.157.018a33.689,33.689,0,0,1,8.528,2.561,1.027,1.027,0,0,1,.7,1.109c-.013,9.832-.012,19.828-.012,29.5v6.32l-.156-.068c-9.8-4.264-19.948-4.26-31.01.015l-.144.056-.022-.429c-.009-.164-.017-.3-.017-.431V733.3q0-13.931-.013-27.866a.916.916,0,0,1,.711-1.038q1.476-.447,2.951-.906c1.332-.412,2.709-.837,4.068-1.244l.189-.052c.5-.136.781-.238.725-.751a.448.448,0,0,0-.169-.338,1.257,1.257,0,0,0-.942-.042c-.138.03-.276.058-.413.086-.427.087-.868.177-1.287.3-1.512.462-2.988.928-4.55,1.422l-1.519.478-.008.029-.07.012a.16.16,0,0,1-.148-.078l-.09-.085.022-.009c-.1-.136-.193-.275-.287-.414a29.213,29.213,0,0,0-13.353-10.888,40.144,40.144,0,0,0-11.152-2.66c-.544-.055-.894-.06-1.065.094-.15.136-.206.413-.206,1.026v10.747l-.071.028c-.589.23-1.169.459-1.743.685-1.438.567-2.794,1.1-4.187,1.615a1.406,1.406,0,0,0-.982,1.6c.019,11.378.018,22.946.017,34.134l0,8.466c0,.142,0,.285.005.426a.851.851,0,0,0,.249.66.826.826,0,0,0,.677.064c.135-.029.269-.069.4-.108.081-.024.161-.048.243-.069a61.811,61.811,0,0,1,13.266-2.074,55.12,55.12,0,0,1,17.456,2.065,2.634,2.634,0,0,0,1.367-.01,56.741,56.741,0,0,1,13.533-2.081Q252.58,746.5,253.339,746.5Zm-47.51.991v-.143c0-.142,0-.279-.008-.412a4.273,4.273,0,0,1,.033-.91c.044-.239.355-.448.553-.532a34.806,34.806,0,0,1,10.276-2.5,47.931,47.931,0,0,1,19.13,2.3c1.263.409,1.295.465,1.108,1.976l-.016.13-.127-.029c-9.531-2.833-19.608-2.807-30.81.078Zm14.818-4.448q-1.984,0-3.945.175a34.627,34.627,0,0,0-10.21,2.481c-.2.085-.4.257-.42.367a4.1,4.1,0,0,0-.029.863c0,.09.005.181.007.276,11.136-2.848,21.17-2.874,30.666-.078.154-1.249.12-1.26-.971-1.614A48.893,48.893,0,0,0,220.647,743.043Zm48.9,4.369-.139-.036a61.884,61.884,0,0,0-30.977-.1l-.109.028-.027-.109c-.3-1.265-.2-1.471.95-1.843a49.344,49.344,0,0,1,18.464-2.441,36.271,36.271,0,0,1,10.922,2.422c.783.308,1.049.726.918,1.443a1.437,1.437,0,0,0-.007.3c0,.061.005.126.005.2Zm-15.909-2.28a63.559,63.559,0,0,1,15.683,1.992l0-.043a1.625,1.625,0,0,1,.011-.349c.111-.605-.1-.93-.78-1.2a36.03,36.03,0,0,0-10.856-2.407,49.12,49.12,0,0,0-18.381,2.43c-.99.322-1.072.429-.828,1.471A61.691,61.691,0,0,1,253.637,745.133Zm-15.442-.726v-.153c0-.131,0-.252.006-.364a3.754,3.754,0,0,0-.012-.591.827.827,0,0,1,.645-.951,43.774,43.774,0,0,1,8.9-2.5A36.14,36.14,0,0,1,265.516,741c.558.185,1.111.411,1.646.629.489.2.995.4,1.5.579a1.135,1.135,0,0,1,.888,1.415,1.65,1.65,0,0,0-.009.352c0,.075.006.157.006.248v.163l-.151-.059c-9.45-3.655-19.607-3.643-31.055.034Zm16.386-4.933a40.718,40.718,0,0,0-6.812.594,43.5,43.5,0,0,0-8.853,2.486c-.427.171-.555.351-.507.717a4,4,0,0,1,.014.626c0,.065,0,.134-.005.205,11.375-3.627,21.488-3.64,30.9-.042q0-.04,0-.077a1.839,1.839,0,0,1,.012-.4c.11-.609-.1-.947-.742-1.166-.511-.175-1.02-.382-1.511-.582-.532-.216-1.081-.44-1.632-.622A34.2,34.2,0,0,0,254.582,739.474Zm-17.6,4.921-.145-.047c-11.331-3.67-21.4-3.685-30.777-.047l-.091.036-.047-.084c-.012-.022-.024-.039-.034-.055a.258.258,0,0,1-.055-.132c-.064-1.421-.04-1.459,1.249-2.015a35.176,35.176,0,0,1,17.814-2.581,42.846,42.846,0,0,1,11.06,2.718c.739.284,1.2.659,1.027,1.571a1.218,1.218,0,0,0-.006.262c0,.064,0,.136,0,.221Zm-16.33-3.034a52.547,52.547,0,0,1,16.1,2.727l0-.06a1.451,1.451,0,0,1,.01-.31c.125-.678-.107-1.023-.887-1.323a42.614,42.614,0,0,0-11-2.706,34.949,34.949,0,0,0-17.7,2.565c-1.173.506-1.173.506-1.115,1.8,0,0,0,0,.009.007A40.115,40.115,0,0,1,220.657,741.361Zm-14.788-.084-.008-.161c0-.1-.01-.195-.014-.284-.011-.173-.02-.33-.02-.485v-8.237q0-13.306-.012-26.611a1.018,1.018,0,0,1,.735-1.152c1.142-.412,2.266-.851,3.456-1.316q.7-.275,1.437-.558l.151-.059v24.635c0,1.128.021,1.152,1.117,1.27a35,35,0,0,1,14.811,4.567,28.442,28.442,0,0,1,8.229,7.651l.205.282-.331-.111A45.779,45.779,0,0,0,220.956,738h-.183a37.328,37.328,0,0,0-14.757,3.215Zm5.5-38.539q-.655.253-1.286.5c-1.191.464-2.315.9-3.46,1.316-.5.181-.589.449-.589.944q.016,13.306.012,26.611v8.237c0,.152.009.3.019.473,0,.041.005.083.007.126a37.5,37.5,0,0,1,14.7-3.17h.184a45.571,45.571,0,0,1,14.408,2.609,27.7,27.7,0,0,0-7.956-7.309,34.768,34.768,0,0,0-14.721-4.538c-1.216-.131-1.315-.242-1.315-1.49Zm25.615,37.242-.2-.275c-5.516-7.539-13.308-11.66-23.818-12.6l-.1-.008V690.464l.122.013a35.778,35.778,0,0,1,9.181,2.025,28.2,28.2,0,0,1,14.467,11.409,2.176,2.176,0,0,1,.337,1.117c.014,9.782.014,19.729.013,29.347Zm-23.9-13.086c10.4.95,18.149,5.011,23.676,12.408v-4.927c0-9.618,0-19.564-.013-29.347a1.975,1.975,0,0,0-.3-1,27.975,27.975,0,0,0-14.357-11.319,35.444,35.444,0,0,0-9-2Z" transform="translate(-204.389 -689.001)" fill="#fff"/>
    </g>
    <g id="Group_357" data-name="Group 357" transform="translate(248.634 681.488)">
      <path id="Path_1523" data-name="Path 1523" d="M261.866,694.385a2.391,2.391,0,0,1-.048.52,1.017,1.017,0,0,0,.336,1.17,1.933,1.933,0,0,1-.194,2.825,1.03,1.03,0,0,0-.323.76,5.141,5.141,0,0,0,1.467,3.251c.389.351.24.685-.011,1.006q-1.144,1.46-2.31,2.9c-.437.544-.873,1.088-1.331,1.615s-.855.529-1.291,0c-1.22-1.471-2.417-2.962-3.631-4.441a.78.78,0,0,1,.041-1.189A5.347,5.347,0,0,0,256,699.536a.811.811,0,0,0-.282-.586,1.984,1.984,0,0,1-.119-3.075,1.1,1.1,0,0,0,.216-.664c.062-.984.048-1.975.145-2.955.284-2.864.613-5.723.914-8.586.155-1.474,1.209-2.345,2.44-1.969a1.818,1.818,0,0,1,1.357,1.669q.461,4.258.925,8.517C261.69,692.735,261.781,693.585,261.866,694.385Zm-3.092,1.03c1.722,0,1.748-.029,1.591-1.759-.005-.068-.012-.134-.02-.2-.349-3.219-.687-6.439-1.064-9.655-.031-.264-.318-.5-.486-.747-.158.232-.429.451-.457.7q-.608,5.225-1.154,10.458c-.108,1.006.1,1.2,1.118,1.2Zm-.687,10.681c0-.983-.012-1.761,0-2.538.012-.593.4-.941.886-.81.459.125.543.489.544.9v2.24l.159.023,1.826-2.241-1.575-4.275h-2.4a20.066,20.066,0,0,1-.552,2.141,21.17,21.17,0,0,1-.987,2Zm.7-8.2a15.086,15.086,0,0,0,1.817-.025c.225-.028.417-.336.624-.516-.192-.177-.377-.5-.575-.508-1.233-.047-2.471-.047-3.7,0-.205.008-.4.321-.6.493.206.186.4.5.621.531A14.9,14.9,0,0,0,258.789,697.9Z" transform="translate(-254.167 -681.502)" fill="#fff"/>
      <path id="Path_1524" data-name="Path 1524" d="M258.784,708.926h-.007a.975.975,0,0,1-.714-.43q-1.1-1.332-2.193-2.677-.717-.884-1.439-1.765a.891.891,0,0,1,.048-1.339,5.18,5.18,0,0,0,1.4-3.205.713.713,0,0,0-.244-.49,2.094,2.094,0,0,1-.125-3.237.978.978,0,0,0,.185-.592c.025-.4.037-.805.05-1.2.018-.578.036-1.174.094-1.76.175-1.757.369-3.543.557-5.27q.181-1.659.357-3.316a2.491,2.491,0,0,1,1-1.862,1.83,1.83,0,0,1,1.578-.2,1.94,1.94,0,0,1,1.435,1.762l.924,8.518c.064.589.127,1.178.188,1.75l.081.759v.01c0,.068-.006.13-.008.188a1.192,1.192,0,0,1-.045.36.909.909,0,0,0,.309,1.055,1.883,1.883,0,0,1,.559,1.377,2.282,2.282,0,0,1-.756,1.607.925.925,0,0,0-.288.662,5.079,5.079,0,0,0,1.431,3.185c.471.426.248.842,0,1.157-.829,1.058-1.67,2.108-2.311,2.9-.44.549-.879,1.1-1.334,1.618A1.017,1.017,0,0,1,258.784,708.926Zm-.048-27.217a1.54,1.54,0,0,0-.857.258,2.279,2.279,0,0,0-.905,1.7q-.175,1.66-.357,3.318c-.188,1.726-.383,3.511-.557,5.269-.057.577-.076,1.17-.093,1.744-.012.4-.025.8-.051,1.206a1.188,1.188,0,0,1-.249.734,2,2,0,0,0-.639,1.477,2.02,2.02,0,0,0,.754,1.438.91.91,0,0,1,.318.684,5.4,5.4,0,0,1-1.463,3.336.675.675,0,0,0-.033,1.04q.723.88,1.439,1.764c.728.894,1.455,1.789,2.192,2.676a.774.774,0,0,0,.545.35h0a.822.822,0,0,0,.572-.357c.451-.518.888-1.064,1.311-1.592.656-.816,1.5-1.865,2.326-2.922.293-.374.3-.606.023-.855a5.278,5.278,0,0,1-1.5-3.316,1.135,1.135,0,0,1,.357-.858,2.061,2.061,0,0,0,.685-1.448,1.642,1.642,0,0,0-.494-1.216,1.123,1.123,0,0,1-.362-1.284,1.024,1.024,0,0,0,.033-.294c0-.059,0-.122.008-.189l-.078-.738c-.062-.572-.125-1.16-.188-1.749l-.925-8.518a1.713,1.713,0,0,0-1.279-1.575A1.844,1.844,0,0,0,258.736,681.709Zm-.552,24.683-2.34-2.855.032-.064c.107-.213.218-.421.327-.627a11.4,11.4,0,0,0,.655-1.367,10.754,10.754,0,0,0,.388-1.436c.051-.226.1-.458.161-.693l.02-.085H260l.026.073,1.6,4.334-1.906,2.34-.317-.048v-2.333c0-.479-.131-.7-.462-.79a.523.523,0,0,0-.477.077.784.784,0,0,0-.269.628c-.011.532-.009,1.055-.006,1.662,0,.276,0,.565,0,.873Zm1.434-.618h0l1.746-2.143-1.527-4.144H257.6c-.05.205-.094.406-.139.6a11.026,11.026,0,0,1-.4,1.465,11.583,11.583,0,0,1-.667,1.394c-.1.183-.2.368-.292.557l1.854,2.262q0-.291,0-.561c0-.608,0-1.133.006-1.668a.99.99,0,0,1,.357-.8.758.758,0,0,1,.669-.115.9.9,0,0,1,.627,1.006Zm-1.874-7.764a6.3,6.3,0,0,1-.8-.043.911.911,0,0,1-.5-.366,2.517,2.517,0,0,0-.182-.191l-.093-.084.1-.083a2.456,2.456,0,0,0,.178-.181c.148-.164.3-.333.49-.34,1.229-.045,2.478-.045,3.714,0,.184.007.332.18.474.349a2.09,2.09,0,0,0,.172.187l.092.084-.093.081a2.413,2.413,0,0,0-.182.186.915.915,0,0,1-.5.357,9.151,9.151,0,0,1-1.313.034c-.345-.006-.687-.006-1.031,0C258.091,698.007,257.917,698.011,257.744,698.011Zm-1.246-.681c.038.04.076.082.114.124.122.138.248.28.361.293a8.48,8.48,0,0,0,1.284.033c.348-.006.693-.006,1.04,0a8.8,8.8,0,0,0,1.282-.032c.115-.013.242-.153.365-.286.037-.042.076-.083.114-.122-.036-.039-.071-.08-.107-.122-.1-.119-.228-.268-.313-.27-1.231-.048-2.475-.05-3.7,0-.094,0-.222.143-.335.267C256.57,697.253,256.534,697.293,256.5,697.33Zm2.262-1.817h-.472c-.512,0-.871-.045-1.073-.269a1.368,1.368,0,0,1-.156-1.058c.3-2.862.709-6.637,1.154-10.46a1.107,1.107,0,0,1,.31-.539,2.462,2.462,0,0,0,.166-.208l.092-.135.092.135a2.835,2.835,0,0,0,.177.225,1.168,1.168,0,0,1,.327.572c.3,2.541.577,5.127.846,7.63l.239,2.228c.085.934.112,1.359-.121,1.614S259.688,695.512,258.759,695.512Zm.02-12.287c-.028.036-.058.07-.087.106a.961.961,0,0,0-.26.42c-.444,3.821-.85,7.6-1.153,10.458-.052.491-.023.748.1.885s.381.2.908.2h.472c.815,0,1.249-.009,1.417-.194s.139-.622.064-1.443l-.02-.2L260,691.428c-.269-2.5-.548-5.087-.846-7.628a1.044,1.044,0,0,0-.276-.454Z" transform="translate(-254.153 -681.488)" fill="#fff"/>
    </g>
    <g id="Group_358" data-name="Group 358" transform="translate(243.507 707.434)">
      <path id="Path_1525" data-name="Path 1525" d="M253.3,714.759a.974.974,0,0,1-1.109.773c-.9-.022-1.8,0-2.7-.008-.748-.007-.973-.228-.978-.958-.008-.968,0-1.936,0-2.9a.748.748,0,0,1,.86-.866c.99.007,1.981.011,2.971,0,.624-.007.97.3.889.9a1.972,1.972,0,0,0,.791,1.791q6.7,6.48,13.342,13.012a1.753,1.753,0,0,0,1.415.574c.854-.036,1.073.212,1.078,1.069,0,.878.006,1.756,0,2.633-.006.8-.212,1.007-.991,1.014-.878.006-1.756,0-2.633,0-.961,0-1.086-.127-1.113-1.084,0-.155-.014-.309-.025-.557h-8.974c-.18,0-.36,0-.54,0-.453-.008-.733-.22-.746-.687a.644.644,0,0,1,.711-.717c.45-.014.9-.007,1.351-.008h8.195a4.283,4.283,0,0,1,.069-1.064,3.306,3.306,0,0,1,.579-.783Zm-3.337-.715h1.8v-1.807h-1.8Zm18.405,16.317v-1.819h-1.785v1.819Z" transform="translate(-248.401 -710.685)" fill="#fff"/>
      <path id="Path_1526" data-name="Path 1526" d="M267.66,731.89l-1.064,0h-.376c-1.023,0-1.195-.17-1.224-1.191,0-.1-.008-.2-.014-.319l-.006-.131h-8.867c-.18,0-.361,0-.542,0a.768.768,0,0,1-.854-.8.754.754,0,0,1,.819-.83c.338-.01.678-.008,1.016-.007h8.425c0-.089,0-.176,0-.259a2.3,2.3,0,0,1,.07-.73,1.693,1.693,0,0,1,.375-.552c.052-.06.106-.121.16-.187l-12.239-11.936a1.07,1.07,0,0,1-1.159.684c-.526-.013-1.062-.01-1.58-.008-.373,0-.746,0-1.119,0-.807-.009-1.083-.277-1.088-1.069,0-.464,0-.928,0-1.392,0-.5,0-1.007,0-1.511a.981.981,0,0,1,.24-.736.966.966,0,0,1,.72-.242h.012c.886.007,1.932.012,2.97,0h.024a1.033,1.033,0,0,1,.8.289.887.887,0,0,1,.177.737,1.856,1.856,0,0,0,.758,1.7c4.194,4.058,8.558,8.315,13.343,13.013a1.635,1.635,0,0,0,1.332.542,1.2,1.2,0,0,1,.928.219,1.257,1.257,0,0,1,.266.961c0,.878.006,1.756,0,2.635-.007.854-.264,1.117-1.1,1.122Q268.256,731.891,267.66,731.89Zm-11.451-3.059c-.224,0-.448,0-.671.008-.411.013-.614.217-.6.6s.218.573.636.581c.18,0,.359,0,.539,0h9.079l.016.341c.006.125.011.225.014.325.026.9.1.973,1,.975h.376c.751,0,1.5,0,2.256,0,.718-.005.875-.164.881-.9.006-.878,0-1.755,0-2.632,0-.433-.061-.673-.2-.8a1.034,1.034,0,0,0-.765-.157,1.836,1.836,0,0,1-1.5-.606c-4.784-4.7-9.148-8.953-13.341-13.011a2.071,2.071,0,0,1-.825-1.886.68.68,0,0,0-.123-.56.885.885,0,0,0-.654-.214c-1.04.012-2.087.007-2.973,0h-.011a.764.764,0,0,0-.563.176.779.779,0,0,0-.175.579c.005.5,0,1.007,0,1.513,0,.462,0,.926,0,1.39,0,.667.183.841.869.848.37,0,.743,0,1.116,0,.519,0,1.056-.005,1.586.008a.856.856,0,0,0,1-.694l.052-.177.132.128,12.507,12.2-.06.078c-.076.1-.157.19-.231.275a1.554,1.554,0,0,0-.331.475,2.115,2.115,0,0,0-.059.66c0,.119,0,.244,0,.376l0,.106h-8.977Zm12.261,1.628h-2.008v-2.041h2.008Zm-1.785-.222h1.563v-1.6h-1.563Zm-14.821-16.094h-2.021v-2.029h2.021Zm-1.8-.222h1.576v-1.584h-1.576Z" transform="translate(-248.387 -710.671)" fill="#fff"/>
    </g>
    <g id="Group_359" data-name="Group 359" transform="translate(243.503 713.846)">
      <path id="Path_1527" data-name="Path 1527" d="M250.155,727.854v-8.52c0-.985.205-1.382.738-1.32.814.093.7.742.7,1.3q.005,3.88,0,7.758v.712c1.65.235,1.65.235,1.65,1.859,0,.7,0,1.394,0,2.091,0,.535-.236.856-.8.858-1.012,0-2.024,0-3.035.007-.618,0-.9-.313-.9-.92.006-.9,0-1.8.006-2.7s.18-1.093,1.1-1.122C249.766,727.849,249.921,727.854,250.155,727.854Zm-.184,1.471v1.824h1.777v-1.824Z" transform="translate(-248.397 -717.896)" fill="#fff"/>
      <path id="Path_1528" data-name="Path 1528" d="M249.384,732.692a1.013,1.013,0,0,1-.743-.254,1.055,1.055,0,0,1-.258-.778c0-.535,0-1.069,0-1.6q0-.547,0-1.094c0-.971.228-1.2,1.206-1.233.1,0,.207,0,.333,0h.1V719.32c0-.691.1-1.089.326-1.289a.652.652,0,0,1,.536-.141c.825.094.812.721.8,1.225,0,.061,0,.122,0,.182q0,2.907,0,5.818v2.555c1.6.229,1.65.314,1.65,1.955v.464q0,.815,0,1.627a.847.847,0,0,1-.915.969q-.828,0-1.656,0l-1.379,0Zm.391-4.743-.173,0c-.858.028-.988.16-.99,1.011q0,.547,0,1.094,0,.8,0,1.606a.84.84,0,0,0,.193.619.8.8,0,0,0,.586.189h.007l1.38,0q.827,0,1.655,0c.471,0,.692-.239.693-.747,0-.542,0-1.084,0-1.627v-.464c0-1.528,0-1.528-1.555-1.749l-.1-.014v-2.747q0-2.91,0-5.818c0-.062,0-.125,0-.187.012-.576-.011-.932-.6-1a.432.432,0,0,0-.363.086c-.172.153-.252.51-.252,1.124v8.631h-.477Zm2.07,3.3h-2V729.2h2Zm-1.777-.222h1.555v-1.6h-1.555Z" transform="translate(-248.383 -717.882)" fill="#fff"/>
    </g>
    <g id="Group_360" data-name="Group 360" transform="translate(263.159 716.545)">
      <path id="Path_1529" data-name="Path 1529" d="M272.209,721.9c-.268.2-.509.516-.806.581-.47.106-.773-.234-.787-.693a.652.652,0,0,1,.75-.741c.3.046.559.357.837.549Z" transform="translate(-270.504 -720.931)" fill="#fff"/>
      <path id="Path_1530" data-name="Path 1530" d="M271.221,722.6a.677.677,0,0,1-.422-.141.958.958,0,0,1-.039-1.369.752.752,0,0,1,.608-.164,1.39,1.39,0,0,1,.637.373c.082.068.163.137.246.195l.046.033.01.415-.045.035c-.08.061-.157.132-.236.2a1.449,1.449,0,0,1-.614.4A.85.85,0,0,1,271.221,722.6Zm.014-1.463a.487.487,0,0,0-.329.118.739.739,0,0,0,.029,1.027.5.5,0,0,0,.429.078,1.287,1.287,0,0,0,.513-.346c.068-.062.136-.125.205-.18l0-.192c-.073-.053-.144-.115-.216-.174a1.219,1.219,0,0,0-.528-.323A.635.635,0,0,0,271.235,721.138Z" transform="translate(-270.49 -720.918)" fill="#fff"/>
    </g>
    <g id="Group_361" data-name="Group 361" transform="translate(263.159 708.443)">
      <path id="Path_1531" data-name="Path 1531" d="M272.206,712.82c-.272.194-.522.5-.821.557-.471.094-.767-.251-.769-.71a.655.655,0,0,1,.767-.724c.3.052.549.373.822.573Z" transform="translate(-270.505 -711.82)" fill="#fff"/>
      <path id="Path_1532" data-name="Path 1532" d="M271.22,713.49a.678.678,0,0,1-.44-.153.956.956,0,0,1,0-1.367.737.737,0,0,1,.612-.152,1.375,1.375,0,0,1,.628.391,3.135,3.135,0,0,0,.242.2l.044.033v.418l-.046.033c-.081.059-.16.127-.238.195a1.47,1.47,0,0,1-.625.382A.982.982,0,0,1,271.22,713.49Zm.02-1.462a.484.484,0,0,0-.32.113.737.737,0,0,0,0,1.024.5.5,0,0,0,.429.089,1.292,1.292,0,0,0,.522-.332c.069-.06.138-.119.208-.172v-.194c-.071-.055-.141-.118-.212-.181a1.234,1.234,0,0,0-.518-.338A.8.8,0,0,0,271.24,712.028Z" transform="translate(-270.491 -711.806)" fill="#fff"/>
    </g>
    <g id="Group_362" data-name="Group 362" transform="translate(263.174 712.496)">
      <path id="Path_1533" data-name="Path 1533" d="M272.2,717.364c-.271.2-.518.5-.818.566-.443.1-.724-.24-.747-.668-.026-.469.264-.825.726-.766.3.039.557.361.834.556Z" transform="translate(-270.521 -716.379)" fill="#fff"/>
      <path id="Path_1534" data-name="Path 1534" d="M271.217,718.044a.643.643,0,0,1-.4-.132.871.871,0,0,1-.312-.658.889.889,0,0,1,.252-.7.721.721,0,0,1,.6-.176,1.334,1.334,0,0,1,.638.376c.081.07.163.141.245.2l.047.033.005.425-.046.034c-.082.06-.16.128-.239.2a1.508,1.508,0,0,1-.621.388A.793.793,0,0,1,271.217,718.044Zm.029-1.456a.479.479,0,0,0-.335.125.665.665,0,0,0-.18.53.654.654,0,0,0,.224.494.455.455,0,0,0,.388.071,1.327,1.327,0,0,0,.522-.339c.069-.06.138-.119.208-.173l0-.2c-.073-.055-.145-.117-.218-.18a1.166,1.166,0,0,0-.521-.324A.694.694,0,0,0,271.247,716.587Z" transform="translate(-270.507 -716.365)" fill="#fff"/>
    </g>
    <g id="Group_363" data-name="Group 363" transform="translate(218.76 711.09)">
      <path id="Path_1535" data-name="Path 1535" d="M226.742,720.685c0,.832.015,1.664,0,2.5-.02.878-.524,1.111-1.308.713-1.356-.691-2.733-1.341-4.116-1.977a.908.908,0,0,1-.635-.914c.012-1.754,0-3.509.01-5.263.005-.717.388-1.015,1.059-.721,1.475.646,2.916,1.371,4.366,2.076a1.12,1.12,0,0,1,.636,1.16C226.722,719.064,226.742,719.875,226.742,720.685Zm-4.655-4.162c0,1.423-.006,2.631.01,3.839a.476.476,0,0,0,.219.358c.973.445,1.956.864,2.992,1.316,0-1.194,0-2.357-.007-3.52a.446.446,0,0,0-.154-.339C224.176,717.638,223.2,717.119,222.086,716.523Z" transform="translate(-220.567 -714.796)" fill="#fff"/>
      <path id="Path_1536" data-name="Path 1536" d="M226.067,724.18a1.591,1.591,0,0,1-.7-.2c-1.494-.76-2.983-1.455-4.113-1.976a1.014,1.014,0,0,1-.7-1.015c.006-.845,0-1.691,0-2.536,0-.91,0-1.819.005-2.728a.959.959,0,0,1,.348-.843.886.886,0,0,1,.869.02c1.181.517,2.358,1.094,3.5,1.652l.872.427a1.219,1.219,0,0,1,.7,1.263c-.019.562-.014,1.134-.011,1.687,0,.247,0,.494,0,.739,0,.26,0,.521,0,.781,0,.563.006,1.145-.007,1.719a1.013,1.013,0,0,1-.4.914A.712.712,0,0,1,226.067,724.18ZM221.273,715a.443.443,0,0,0-.243.065.758.758,0,0,0-.246.659c-.007.909-.006,1.817-.005,2.725,0,.846,0,1.692,0,2.538a.8.8,0,0,0,.57.813c1.133.521,2.625,1.217,4.121,1.978a.929.929,0,0,0,.858.112.861.861,0,0,0,.288-.728c.013-.57.01-1.15.007-1.712,0-.26,0-.522,0-.782,0-.245,0-.491,0-.737,0-.556-.008-1.13.011-1.7a1.009,1.009,0,0,0-.573-1.057l-.873-.426c-1.136-.557-2.312-1.132-3.489-1.649A1.093,1.093,0,0,0,221.273,715Zm4.131,7.188-.866-.376c-.79-.342-1.535-.666-2.283-1.007a.585.585,0,0,1-.284-.459c-.012-.934-.012-1.891-.011-2.9v-1.122l.855.458c.825.443,1.6.861,2.369,1.286a.549.549,0,0,1,.212.435c.009.91.008,1.819.007,2.743Zm-3.22-5.5v.75c0,1.013,0,1.968.011,2.9a.378.378,0,0,0,.154.26c.747.341,1.491.663,2.28,1.006l.555.241v-.608c0-.923,0-1.832-.007-2.741a.365.365,0,0,0-.1-.243c-.763-.424-1.542-.841-2.366-1.283Z" transform="translate(-220.553 -714.782)" fill="#fff"/>
    </g>
    <g id="Group_364" data-name="Group 364" transform="translate(218.826 701.003)">
      <path id="Path_1537" data-name="Path 1537" d="M221.3,703.577c.88.253,1.646.435,2.385.693A30.807,30.807,0,0,1,234.81,711.2c.382.364.627.781.194,1.217s-.837.143-1.214-.208a28.73,28.73,0,0,0-11.839-6.982c-.281-.078-.631-.075-.827-.248a1.128,1.128,0,0,1-.37-.814C220.775,703.951,221.118,703.764,221.3,703.577Z" transform="translate(-220.641 -703.453)" fill="#fff"/>
      <path id="Path_1538" data-name="Path 1538" d="M234.532,712.741a1.356,1.356,0,0,1-.831-.461,28.547,28.547,0,0,0-11.794-6.956,2.5,2.5,0,0,0-.27-.056,1.2,1.2,0,0,1-.6-.216,1.243,1.243,0,0,1-.407-.909c.019-.2.209-.35.392-.5a2.253,2.253,0,0,0,.189-.162l.046-.046.063.018c.288.084.565.158.83.231.546.148,1.061.289,1.561.463a30.7,30.7,0,0,1,11.16,6.959,1.183,1.183,0,0,1,.46.807.786.786,0,0,1-.262.568A.75.75,0,0,1,234.532,712.741Zm-13.212-9.055c-.049.045-.1.088-.159.133-.14.113-.3.241-.31.346a.83.83,0,0,0,.824.884c.1.018.2.036.292.061a28.779,28.779,0,0,1,11.884,7.007c.437.406.721.55,1.059.212a.571.571,0,0,0,.2-.409,1,1,0,0,0-.389-.649,30.479,30.479,0,0,0-11.081-6.91c-.493-.172-1-.312-1.546-.46C221.844,703.833,221.587,703.762,221.32,703.686Z" transform="translate(-220.627 -703.437)" fill="#fff"/>
    </g>
    <g id="Group_365" data-name="Group 365" transform="translate(218.817 706.268)">
      <path id="Path_1539" data-name="Path 1539" d="M221.25,709.5c.665.176,1.17.289,1.662.442a30.274,30.274,0,0,1,11.908,7.191c.357.339.632.732.229,1.159s-.846.228-1.234-.138a29.619,29.619,0,0,0-10.561-6.609c-.677-.237-1.4-.353-2.061-.626a.953.953,0,0,1-.449-.757C220.754,709.926,221.084,709.7,221.25,709.5Z" transform="translate(-220.631 -709.375)" fill="#fff"/>
      <path id="Path_1540" data-name="Path 1540" d="M234.536,718.635a.692.692,0,0,1-.151-.017,1.43,1.43,0,0,1-.661-.4,29.333,29.333,0,0,0-10.521-6.583c-.291-.1-.6-.183-.893-.261a9.07,9.07,0,0,1-1.174-.368,1.047,1.047,0,0,1-.518-.864.945.945,0,0,1,.363-.554,2.172,2.172,0,0,0,.169-.174l.045-.056.068.019c.22.058.422.109.613.157.388.1.723.183,1.054.286a30.2,30.2,0,0,1,11.951,7.216c.212.2.779.738.233,1.317A.788.788,0,0,1,234.536,718.635Zm-13.263-9.024c-.042.044-.09.091-.138.139-.136.131-.29.28-.3.4a.857.857,0,0,0,.381.648,9.15,9.15,0,0,0,1.146.358c.3.08.611.161.91.267a29.523,29.523,0,0,1,10.6,6.632,1.24,1.24,0,0,0,.553.342.541.541,0,0,0,.524-.2c.279-.3.213-.586-.225-1a29.974,29.974,0,0,0-11.864-7.166c-.326-.1-.659-.185-1.043-.282Z" transform="translate(-220.617 -709.359)" fill="#fff"/>
    </g>
    <g id="Group_366" data-name="Group 366" transform="translate(223.775 697.633)">
      <path id="Path_1541" data-name="Path 1541" d="M235.181,707.03a4.689,4.689,0,0,1-.727-.475,26.483,26.483,0,0,0-7.562-5.35c-.443-.2-.721-.513-.493-1.009s.622-.508,1.078-.3a27.082,27.082,0,0,1,8.077,5.773,1.093,1.093,0,0,1,.212.838C235.734,706.7,235.415,706.835,235.181,707.03Z" transform="translate(-226.207 -699.661)" fill="#fff"/>
      <path id="Path_1542" data-name="Path 1542" d="M235.176,707.153l-.068-.044c-.1-.063-.192-.117-.279-.166a2.2,2.2,0,0,1-.467-.324,26.2,26.2,0,0,0-7.53-5.327c-.736-.339-.7-.816-.549-1.157a.794.794,0,0,1,.438-.446,1.032,1.032,0,0,1,.789.1,27.308,27.308,0,0,1,8.11,5.8,1.2,1.2,0,0,1,.241.934c-.029.172-.205.292-.392.418a2.786,2.786,0,0,0-.23.166Zm-8.2-7.283a.5.5,0,0,0-.174.029.576.576,0,0,0-.313.33c-.107.234-.178.578.44.862a26.4,26.4,0,0,1,7.593,5.371,2.037,2.037,0,0,0,.421.288c.069.04.143.083.22.129.06-.045.124-.087.185-.129.14-.1.285-.192.3-.272a.985.985,0,0,0-.181-.742,27.1,27.1,0,0,0-8.045-5.75A1.079,1.079,0,0,0,226.973,699.869Z" transform="translate(-226.193 -699.647)" fill="#fff"/>
    </g>
    <g id="Group_367" data-name="Group 367" transform="translate(226.903 715.192)">
      <path id="Path_1543" data-name="Path 1543" d="M235.531,725.008c-.28-.2-.517-.354-.737-.528-1.5-1.183-2.982-2.38-4.487-3.552-.356-.277-.624-.548-.372-1.008.261-.477.65-.49,1.087-.233a22.127,22.127,0,0,1,4.972,4.017,1.086,1.086,0,0,1,.13.851C236.087,724.724,235.775,724.833,235.531,725.008Z" transform="translate(-229.726 -719.41)" fill="#fff"/>
      <path id="Path_1544" data-name="Path 1544" d="M235.518,725.131l-.066-.046c-.092-.066-.181-.128-.266-.186-.171-.119-.327-.228-.476-.346q-.77-.608-1.537-1.221c-.964-.767-1.96-1.56-2.948-2.33-.271-.21-.724-.563-.4-1.149a.822.822,0,0,1,.49-.433.982.982,0,0,1,.751.158,22.306,22.306,0,0,1,5,4.036,1.183,1.183,0,0,1,.157.951c-.035.162-.2.259-.4.37a2.748,2.748,0,0,0-.24.149Zm-5.022-5.512a.459.459,0,0,0-.123.016.615.615,0,0,0-.355.326c-.2.357-.045.564.343.866.99.77,1.987,1.565,2.951,2.332l1.536,1.221c.145.115.3.221.465.336.066.046.134.092.205.143.063-.042.129-.079.192-.116.129-.075.277-.16.291-.225a1,1,0,0,0-.1-.752,22.116,22.116,0,0,0-4.946-4A.942.942,0,0,0,230.5,719.618Z" transform="translate(-229.712 -719.397)" fill="#fff"/>
    </g>
    <g id="Group_368" data-name="Group 368" transform="translate(226.974 720.344)">
      <path id="Path_1545" data-name="Path 1545" d="M230.48,725.341c.282.136.469.211.641.312a23.142,23.142,0,0,1,4.83,3.874c.325.334.437.714.1,1.073a.7.7,0,0,1-1.078-.057,25.55,25.55,0,0,0-4.784-3.83.928.928,0,0,1-.258-.8C229.97,725.7,230.287,725.529,230.48,725.341Z" transform="translate(-229.806 -725.208)" fill="#fff"/>
      <path id="Path_1546" data-name="Path 1546" d="M235.55,730.926a.966.966,0,0,1-.672-.32,25.444,25.444,0,0,0-4.764-3.815,1.021,1.021,0,0,1-.309-.913.913.913,0,0,1,.394-.472c.067-.053.134-.106.19-.16l.055-.054.07.034.257.12a4.227,4.227,0,0,1,.392.2,23.107,23.107,0,0,1,4.854,3.893.807.807,0,0,1,.1,1.226.766.766,0,0,1-.555.266Zm-5.064-5.468c-.047.041-.1.082-.15.123-.143.112-.291.228-.312.339a.834.834,0,0,0,.206.682,25.623,25.623,0,0,1,4.8,3.847.722.722,0,0,0,.522.255.557.557,0,0,0,.4-.2c.265-.28.234-.58-.1-.918a22.972,22.972,0,0,0-4.806-3.857c-.108-.063-.225-.116-.373-.184Z" transform="translate(-229.792 -725.191)" fill="#fff"/>
    </g>
    <g id="Group_369" data-name="Group 369" transform="translate(218.775 695.837)">
      <path id="Path_1547" data-name="Path 1547" d="M221.424,697.752c.781.005,1.321.342,1.321.838a.641.641,0,0,1-.692.723c-.838.01-1.371-.343-1.359-.872A.664.664,0,0,1,221.424,697.752Z" transform="translate(-220.584 -697.641)" fill="#fff"/>
      <path id="Path_1548" data-name="Path 1548" d="M222.007,699.411a1.665,1.665,0,0,1-1.2-.392.8.8,0,0,1-.238-.594.777.777,0,0,1,.834-.8h.007c.855.006,1.431.388,1.431.95a.75.75,0,0,1-.8.834Zm-.6-1.561a.551.551,0,0,0-.612.581.573.573,0,0,0,.174.433,1.457,1.457,0,0,0,1.039.325h.032a.533.533,0,0,0,.582-.612c0-.423-.5-.723-1.211-.727Z" transform="translate(-220.57 -697.627)" fill="#fff"/>
    </g>
  </g>
</svg>
