<svg xmlns="http://www.w3.org/2000/svg" width="56.615" height="58.031" viewBox="0 0 56.615 58.031">
  <g id="Group_380" data-name="Group 380" transform="translate(-124.23 -809.102)">
    <line id="Line_5" data-name="Line 5" y2="8.68" transform="translate(169.716 851.53)" fill="none" stroke="#fff" stroke-miterlimit="10" stroke-width="2"/>
    <path id="Path_1561" data-name="Path 1561" d="M125.23,863.086v-46.2a6.78,6.78,0,0,1,6.78-6.78h37.706v21.292" fill="none" stroke="#fff" stroke-miterlimit="10" stroke-width="2"/>
    <path id="Rectangle_669" data-name="Rectangle 669" d="M2.961,0H44.486a0,0,0,0,1,0,0V5.923a0,0,0,0,1,0,0H2.961A2.961,2.961,0,0,1,0,2.961v0A2.961,2.961,0,0,1,2.961,0Z" transform="translate(125.23 860.211)" fill="none" stroke="#fff" stroke-miterlimit="10" stroke-width="2"/>
    <line id="Line_6" data-name="Line 6" y2="48.928" transform="translate(134.05 810.553)" fill="none" stroke="#fff" stroke-miterlimit="10" stroke-width="2"/>
    <line id="Line_7" data-name="Line 7" x2="19.314" transform="translate(139.164 821.09)" fill="none" stroke="#fff" stroke-miterlimit="10" stroke-width="2"/>
    <line id="Line_8" data-name="Line 8" x2="19.314" transform="translate(139.164 828.3)" fill="none" stroke="#fff" stroke-miterlimit="10" stroke-width="2"/>
    <line id="Line_9" data-name="Line 9" x2="19.314" transform="translate(139.164 834.48)" fill="none" stroke="#fff" stroke-miterlimit="10" stroke-width="2"/>
    <circle id="Ellipse_22" data-name="Ellipse 22" cx="10.011" cy="10.011" r="10.011" transform="translate(159.823 831.394)" fill="none" stroke="#fff" stroke-miterlimit="10" stroke-width="2"/>
    <path id="Path_1562" data-name="Path 1562" d="M165.005,841.831,168,844.824l7.033-7.033" fill="none" stroke="#fff" stroke-miterlimit="10" stroke-width="2"/>
    <path id="Path_1563" data-name="Path 1563" d="M149.168,851.487l-4.12-3.605-4.378,3.605V840.157h8.5Z" fill="none" stroke="#fff" stroke-miterlimit="10" stroke-width="2"/>
  </g>
</svg>
