<svg xmlns="http://www.w3.org/2000/svg" width="60.219" height="59.513" viewBox="0 0 60.219 59.513">
  <g id="Group_377" data-name="Group 377" transform="translate(-497.434 -693.02)">
    <g id="Group_354" data-name="Group 354">
      <path id="Path_1519" data-name="Path 1519" d="M557.528,751.938a1.05,1.05,0,0,1-.994.471q-25.875-.012-51.749-.017c-2.8,0-4.7-1.545-6.029-3.887a9.3,9.3,0,0,1-1.18-4.6,15.841,15.841,0,0,1,.483-5.449c.9-2.562,2.431-4.528,5.163-5.291a6.544,6.544,0,0,1,1.734-.2c4.761-.016,9.523-.009,14.284-.009h.626a21.039,21.039,0,0,1-10.921-10.427,19.959,19.959,0,0,1-1.024-14.98,20.609,20.609,0,1,1,27.3,25.407h.6q10.333,0,20.665-.006a1.021,1.021,0,0,1,1.043.479v.468c-.139.161-.286.316-.416.484-2.874,3.705-3.971,7.761-2.393,12.327a15.716,15.716,0,0,0,2.809,4.755Zm-2.286-.928c-.661-1.435-1.334-2.813-1.925-4.225a.747.747,0,0,0-.825-.575q-12.031.024-24.063.01c-.215,0-.479.066-.632-.034-.231-.152-.509-.409-.534-.646-.02-.2.255-.5.473-.625a1.59,1.59,0,0,1,.745-.067q11.767,0,23.536,0h.595l.223-5.354H519.109v.684c0,1.991.015,3.982-.016,5.972-.005.312-.144.792-.358.888a1.338,1.338,0,0,1-1-.18,14.39,14.39,0,0,1-1.811-1.181.728.728,0,0,0-1.018.017,19.417,19.417,0,0,1-1.866,1.207c-.261.147-.7.284-.894.163a1.18,1.18,0,0,1-.39-.875c-.033-2.029-.016-4.059-.018-6.088,0-.205-.017-.41-.028-.652h-5.5c-.794,0-1.14-.212-1.135-.689s.347-.677,1.147-.677h22.42q12.09,0,24.18.011a.784.784,0,0,0,.855-.564c.4-.906.9-1.768,1.363-2.646.082-.157.181-.306.316-.531h-.586q-24.97,0-49.942,0a4.813,4.813,0,0,0-1.046.089,5.493,5.493,0,0,0-3.9,3.251,12.418,12.418,0,0,0-.347,9.135c.913,2.885,2.957,4.18,5.968,4.18h49.74Zm-37.518-37.986h19.509a.543.543,0,0,0,.046-.141,32.073,32.073,0,0,0-1.519-9.487c-.109-.343-.3-.383-.6-.383q-7.608.011-15.215,0c-.349,0-.535.091-.616.445-.373,1.65-.84,3.284-1.124,4.949C517.943,709.913,517.878,711.453,517.724,713.024Zm.137,1.443a1.241,1.241,0,0,0-.047.219,32.456,32.456,0,0,0,1.509,9.373c.133.415.381.413.706.413,5.013,0,10.026-.01,15.039.009.467,0,.672-.166.758-.588.431-2.115.911-4.221,1.282-6.347a27.932,27.932,0,0,0,.208-3.079Zm-9.51-1.45h8.061a35.362,35.362,0,0,1,1.568-9.917.966.966,0,0,0-.218-.073c-1.95-.005-3.9-.013-5.849,0a.657.657,0,0,0-.458.269A19.02,19.02,0,0,0,508.351,713.017Zm30.337,0h8.057a18.935,18.935,0,0,0-3.108-9.712.863.863,0,0,0-.628-.272c-1.364-.024-2.729-.012-4.094-.012H537.09A35.671,35.671,0,0,1,538.688,713.014Zm-3.589-11.37a14.14,14.14,0,0,0-3.961-5.727,5.346,5.346,0,0,0-7.22.035,13.52,13.52,0,0,0-3.841,5.572c-.01.024.028.068.051.12ZM520,725.87a14.018,14.018,0,0,0,4.134,5.845,5.319,5.319,0,0,0,6.856-.019,13.4,13.4,0,0,0,4.033-5.715c.012-.028-.018-.073-.029-.111ZM516.409,714.5h-8.057a18.89,18.89,0,0,0,3.116,9.707.8.8,0,0,0,.582.254c1.833.019,3.665.012,5.5.008a3.285,3.285,0,0,0,.435-.062A35.474,35.474,0,0,1,516.409,714.5Zm20.8,9.918a.138.138,0,0,0,.072.035c1.969.008,3.938.022,5.906,0a.747.747,0,0,0,.519-.366c.634-1.2,1.314-2.391,1.826-3.647a17.279,17.279,0,0,0,1.2-5.951h-7.963c-.178,1.7-.284,3.372-.544,5.021S537.56,722.774,537.214,724.415Zm5.164-22.756c-1.613-2.574-7.248-6.218-9.81-6.361a17.509,17.509,0,0,1,3.917,6.074.523.523,0,0,0,.378.275C538.672,701.665,540.482,701.659,542.378,701.659Zm-19.835-6.368c-2.759.25-8.984,4.326-9.748,6.369,1.8,0,3.6.009,5.385-.015a.665.665,0,0,0,.452-.335c.246-.462.427-.959.656-1.432A15.964,15.964,0,0,1,522.543,695.291Zm-.069,36.928a17.935,17.935,0,0,1-3.824-6.039.51.51,0,0,0-.578-.347c-1.092.013-2.184.005-3.276.005h-2.16A18.925,18.925,0,0,0,522.474,732.219Zm19.9-6.277c-.083-.048-.127-.1-.172-.1-1.774,0-3.549-.013-5.324.01-.147,0-.347.2-.427.357-.363.71-.624,1.48-1.048,2.149-.85,1.341-1.782,2.629-2.636,3.874A19.122,19.122,0,0,0,542.378,725.942ZM517.7,739.531h-4.52v5.645a9.061,9.061,0,0,0,1.081-.713,1.528,1.528,0,0,1,2.309-.015,8.588,8.588,0,0,0,1.13.731Z" fill="#fff"/>
      <path id="Path_1520" data-name="Path 1520" d="M556.541,752.533h-.007q-25.879-.011-51.75-.015c-2.592,0-4.656-1.333-6.136-3.952a9.425,9.425,0,0,1-1.2-4.656c0-.257,0-.513-.009-.769a13.461,13.461,0,0,1,.5-4.721c1.026-2.915,2.743-4.672,5.249-5.371a6.581,6.581,0,0,1,1.767-.2c3.648-.012,7.3-.009,10.951-.01h3.385a21.155,21.155,0,0,1-10.461-10.248,20.1,20.1,0,0,1-1.029-15.071,20.746,20.746,0,0,1,19.726-14.5c.276,0,.549.005.826.016a20.781,20.781,0,0,1,7.469,39.8h4.13q8.27,0,16.532-.006h.013a1.137,1.137,0,0,1,1.14.544l.015.027v.548l-.163.185c-.095.107-.191.215-.279.328-3.069,3.957-3.846,7.951-2.374,12.21a15.459,15.459,0,0,0,2.788,4.717l.028.034v.55l-.019.031A1.177,1.177,0,0,1,556.541,752.533Zm-43.963-19.447q-3.812,0-7.622.011a6.335,6.335,0,0,0-1.7.192c-2.423.677-4.085,2.382-5.08,5.213a13.256,13.256,0,0,0-.485,4.636c0,.257.008.513.009.77a9.189,9.189,0,0,0,1.164,4.535c1.453,2.57,3.389,3.821,5.919,3.825q25.874.028,51.75.015h.006a.917.917,0,0,0,.863-.382v-.386a15.64,15.64,0,0,1-2.8-4.759c-1.5-4.346-.712-8.416,2.413-12.444.09-.119.19-.231.29-.342l.1-.113v-.388c-.187-.322-.476-.387-.908-.387h-.01q-8.265.011-16.532.006H534.6l.572-.24a20.514,20.514,0,1,0-27.136-25.255,19.858,19.858,0,0,0,1.018,14.889,21.015,21.015,0,0,0,10.859,10.367l.538.239h-7.877Zm42.859,18.049H505.5c-3.145,0-5.193-1.436-6.088-4.268a12.507,12.507,0,0,1,.353-9.223,5.647,5.647,0,0,1,3.988-3.322,4.939,4.939,0,0,1,1.073-.093q20.81,0,41.618,0h9.13l-.236.39c-.074.12-.135.22-.19.322-.124.237-.251.472-.378.707-.338.626-.689,1.274-.981,1.932a.907.907,0,0,1-.964.639h-.005q-9.766-.02-19.53-.011h-27.07c-.894,0-1.02.267-1.023.554a.459.459,0,0,0,.119.344,1.288,1.288,0,0,0,.892.217h5.621l.018.352c.008.148.015.286.016.424,0,.559,0,1.119,0,1.677,0,1.446-.005,2.941.019,4.411a1.077,1.077,0,0,0,.332.77,1.058,1.058,0,0,0,.765-.166,19.015,19.015,0,0,0,1.854-1.2.849.849,0,0,1,1.168-.016,14.358,14.358,0,0,0,1.794,1.171,1.241,1.241,0,0,0,.888.176,1.084,1.084,0,0,0,.283-.776c.023-1.508.02-3.042.018-4.525l0-2.254h33.981l-.233,5.6h-.714q-11.769,0-23.538,0c-.057,0-.117,0-.177-.005a1.045,1.045,0,0,0-.5.055c-.208.122-.423.385-.411.5.018.178.26.412.477.554a.675.675,0,0,0,.364.025c.069-.005.136-.01.2-.01h3.138c6.855,0,13.949,0,20.924-.011h0a.863.863,0,0,1,.936.652c.428,1.023.889,2.007,1.379,3.051.18.387.363.775.544,1.169ZM538,734.477q-16.587,0-33.173,0a4.756,4.756,0,0,0-1.018.087,5.345,5.345,0,0,0-3.817,3.181,12.277,12.277,0,0,0-.341,9.044c.87,2.755,2.784,4.094,5.85,4.094h49.544q-.231-.5-.463-.991c-.489-1.045-.952-2.034-1.383-3.061-.167-.4-.3-.5-.705-.5h0c-6.974.014-14.069.014-20.924.011h-3.138c-.058,0-.118.005-.18.009a.806.806,0,0,1-.52-.065,1.227,1.227,0,0,1-.589-.737c-.029-.268.292-.606.534-.746a1.192,1.192,0,0,1,.638-.089c.058,0,.114.005.168.005q11.769,0,23.538,0h.474l.213-5.1H519.234l0,2c0,1.483.005,3.019-.018,4.528-.005.328-.146.872-.431,1a1.491,1.491,0,0,1-1.109-.185,14.352,14.352,0,0,1-1.827-1.191.608.608,0,0,0-.87.02,19.506,19.506,0,0,1-1.877,1.215c-.271.15-.763.315-1.021.16a1.307,1.307,0,0,1-.449-.98c-.024-1.471-.022-2.967-.019-4.414q0-.839,0-1.676c0-.134-.008-.267-.015-.411l-.007-.116h-5.383a1.468,1.468,0,0,1-1.069-.291.7.7,0,0,1-.192-.522c.008-.711.684-.8,1.273-.8h27.07q9.762-.009,19.53.011h.005a.662.662,0,0,0,.735-.49c.3-.667.65-1.32.991-1.951.126-.233.253-.467.377-.7.055-.107.12-.211.2-.338l.006-.008H538Zm-20.177,10.929-.192-.122c-.132-.084-.264-.16-.392-.234a4.469,4.469,0,0,1-.755-.509,1.4,1.4,0,0,0-2.141.016,4.647,4.647,0,0,1-.718.491c-.122.073-.248.149-.377.232l-.193.126v-6h4.768Zm-2.392-1.6a1.841,1.841,0,0,1,1.221.55,4.1,4.1,0,0,0,.713.478l.208.122v-5.3h-4.268v5.294l.191-.115a4.538,4.538,0,0,0,.681-.465A1.912,1.912,0,0,1,515.433,743.8Zm12.121-10.723a5.754,5.754,0,0,1-3.495-1.268,14.143,14.143,0,0,1-4.173-5.893l-.077-.176h15.28l.025.091a.24.24,0,0,1,.025.193,13.276,13.276,0,0,1-4.073,5.765A5.732,5.732,0,0,1,527.554,733.082Zm-7.362-7.087a13.688,13.688,0,0,0,4.017,5.62,5.212,5.212,0,0,0,6.705-.018,12.993,12.993,0,0,0,3.968-5.6Zm2.7,6.465-.448-.12a19.009,19.009,0,0,1-9.9-6.421l-.172-.205h3.278c.812,0,1.619,0,2.425-.007h.02a.626.626,0,0,1,.676.425,17.723,17.723,0,0,0,3.8,6Zm-9.985-6.5a18.713,18.713,0,0,0,9.161,6.01,18.275,18.275,0,0,1-3.532-5.747c-.091-.228-.205-.269-.438-.269h-.023c-.808.009-1.619.006-2.427.007Zm19.569,6.485.194-.284c.248-.361.5-.727.759-1.095.626-.9,1.272-1.827,1.875-2.776a9.794,9.794,0,0,0,.651-1.3c.123-.277.25-.564.391-.84.087-.17.317-.422.537-.425,1.552-.02,3.132-.017,4.66-.011l.665,0a.286.286,0,0,1,.168.07c.02.013.041.028.066.043l.129.075-.095.113a19.253,19.253,0,0,1-9.668,6.333Zm7.079-6.484c-.889,0-1.782,0-2.668.015-.075,0-.243.141-.319.289-.137.269-.263.553-.384.828a10.308,10.308,0,0,1-.669,1.332c-.606.953-1.254,1.884-1.881,2.784q-.282.4-.559.8a19.009,19.009,0,0,0,9.118-6.047l0,0h-.648C540.886,725.967,540.221,725.965,539.553,725.965Zm-4.478-1.359h-.009c-4.473-.015-9.026-.013-13.425-.01h-1.619c-.328,0-.659,0-.818-.5a32.8,32.8,0,0,1-1.516-9.41.538.538,0,0,1,.027-.153c.008-.026.015-.057.024-.1l.022-.1h19.687l-.008.133c-.02.325-.03.65-.041.973a14.918,14.918,0,0,1-.168,2.119c-.254,1.463-.567,2.941-.869,4.37-.139.66-.279,1.32-.414,1.982A.766.766,0,0,1,535.075,724.606Zm-8.284-.262c2.753,0,5.528,0,8.276.012h.009c.4,0,.554-.124.628-.488.135-.661.275-1.322.414-1.983.3-1.427.612-2.9.867-4.361a14.684,14.684,0,0,0,.164-2.085c.009-.281.019-.564.034-.847H517.959l0,.01a.419.419,0,0,0-.018.083,32.533,32.533,0,0,0,1.5,9.336c.1.323.261.326.572.326h1.626Zm-11.854.252c-.96,0-1.929,0-2.888-.013a.907.907,0,0,1-.685-.31,18.87,18.87,0,0,1-3.136-9.77l-.006-.131h8.309l0,.122a35.213,35.213,0,0,0,1.569,9.871l.043.14-.144.022c-.06.009-.114.019-.164.029a1.785,1.785,0,0,1-.289.036h-.735C516.2,724.595,515.568,724.6,514.937,724.6Zm-6.453-9.974a18.6,18.6,0,0,0,3.088,9.513.7.7,0,0,0,.479.2c1.59.016,3.2.015,4.763.01h.734a1.6,1.6,0,0,0,.245-.032l.028-.006a35.5,35.5,0,0,1-1.534-9.682Zm32.426,9.965c-.9,0-1.8,0-2.684-.008l-.941,0a.243.243,0,0,1-.145-.059l-.086-.043.038-.083c.105-.5.217-1,.329-1.5.249-1.113.507-2.263.686-3.4s.283-2.266.393-3.459c.048-.516.1-1.035.15-1.555l.012-.113h8.2l-.005.13a17.275,17.275,0,0,1-1.208,5.993,30.973,30.973,0,0,1-1.427,2.9c-.135.253-.271.505-.405.759a.869.869,0,0,1-.628.432C542.436,724.584,541.672,724.587,540.91,724.587Zm-3.549-.266.866.008c1.627.007,3.308.013,4.964,0a.634.634,0,0,0,.41-.3c.133-.253.269-.506.4-.759a30.783,30.783,0,0,0,1.415-2.876,16.94,16.94,0,0,0,1.185-5.78h-7.719c-.049.483-.094.963-.138,1.441-.105,1.144-.215,2.328-.4,3.475s-.439,2.3-.689,3.419C537.562,723.4,537.459,723.862,537.361,724.321Zm-.038-11.172H517.587l.014-.136c.046-.481.085-.957.123-1.432.088-1.1.173-2.144.353-3.2.19-1.11.463-2.222.728-3.3.135-.552.272-1.1.4-1.658a.638.638,0,0,1,.733-.543h.005c5.553.012,11.046.008,15.215,0h.012a.623.623,0,0,1,.712.468,32.37,32.37,0,0,1,1.525,9.525.3.3,0,0,1-.03.124.575.575,0,0,0-.022.057Zm-19.461-.25h19.285l.008-.021a32.123,32.123,0,0,0-1.514-9.444c-.08-.251-.19-.3-.476-.3h-.01c-4.165.006-9.66.009-15.215,0h-.005c-.318,0-.428.079-.489.347-.126.556-.262,1.11-.4,1.663-.264,1.072-.536,2.179-.725,3.281-.177,1.041-.261,2.077-.35,3.175C517.938,712.032,517.9,712.465,517.862,712.9Zm-1.329.244h-8.312l.006-.131a19.009,19.009,0,0,1,3.124-9.782.772.772,0,0,1,.56-.325c1.734-.013,3.5-.009,5.2-.005l.65,0a.438.438,0,0,1,.162.042c.026.011.057.024.1.037l.116.04-.037.116a35,35,0,0,0-1.564,9.884Zm-8.05-.25h7.806a35.24,35.24,0,0,1,1.537-9.718.3.3,0,0,0-.064-.023l-.65,0c-1.7,0-3.466-.008-5.2.005a.537.537,0,0,0-.354.212A18.755,18.755,0,0,0,508.483,712.893Zm38.393.246h-8.31l0-.122a35.52,35.52,0,0,0-1.591-9.962l-.051-.162h3c1.012,0,2.061-.006,3.093.013a.976.976,0,0,1,.73.328,19.187,19.187,0,0,1,3.129,9.775Zm-8.065-.25h7.8a18.644,18.644,0,0,0-3.081-9.519.753.753,0,0,0-.525-.215c-1.028-.018-2.072-.016-3.089-.013h-2.657A35.778,35.778,0,0,1,538.811,712.889Zm-23.716-11.1h-2.481l.064-.169c.785-2.1,7.047-6.2,9.853-6.449l.354-.032-.255.246a15.83,15.83,0,0,0-3.23,4.552c-.1.2-.184.4-.272.606-.119.275-.242.56-.386.83a.773.773,0,0,1-.56.4C517.157,701.784,516.119,701.787,515.095,701.787Zm-2.11-.252h.97c1.387,0,2.818,0,4.223-.015a.561.561,0,0,0,.343-.269c.139-.262.26-.541.377-.812.089-.207.179-.414.278-.617a16.267,16.267,0,0,1,3.011-4.355C519.429,695.99,513.951,699.584,512.985,701.535Zm27.142.25c-1.106,0-2.18,0-3.265-.013a.642.642,0,0,1-.492-.352,17.2,17.2,0,0,0-3.889-6.032l-.239-.234.333.019c2.622.147,8.272,3.806,9.908,6.42l.121.191h-2.477Zm-7.218-6.324a17.692,17.692,0,0,1,3.692,5.863.417.417,0,0,0,.264.2c1.444.014,2.871.015,4.376.012h.9C540.5,699.146,535.488,695.87,532.909,695.461Zm2.38,6.308H520.047l-.033-.074c-.006-.013-.014-.027-.021-.039a.2.2,0,0,1-.031-.179,13.5,13.5,0,0,1,3.877-5.622,5.449,5.449,0,0,1,7.377-.035,14.406,14.406,0,0,1,4,5.774Zm-15.074-.25h14.693a13.927,13.927,0,0,0-3.848-5.5,5.216,5.216,0,0,0-7.063.033A13.208,13.208,0,0,0,520.215,701.519Z" fill="#fff"/>
    </g>
  </g>
</svg>
