<svg xmlns="http://www.w3.org/2000/svg" width="67.201" height="66.81" viewBox="0 0 67.201 66.81">
  <g id="Group_379" data-name="Group 379" transform="translate(-34.315 -801.944)">
    <path id="Path_1549" data-name="Path 1549" d="M101.516,859.3a3.455,3.455,0,0,1-3.946,2.488c-.326-.024-.655,0-.983,0a3.116,3.116,0,0,1-3.347-3.365q-.007-15.246,0-30.492c0-2.929-.007-5.858.008-8.787a3.435,3.435,0,0,1,.2-1.147c.939-2.56,1.9-5.112,2.864-7.664a2.413,2.413,0,0,1,.318-.641c.516-.654,1.393-.441,1.731.432.551,1.425,1.066,2.863,1.612,4.289.5,1.318,1.032,2.629,1.549,3.943Zm-6.249-39.577v34.791H99.5V819.722Zm4.267,36.844H95.212c0,.708-.017,1.381,0,2.052a1.111,1.111,0,0,0,1.141,1.184,18.865,18.865,0,0,0,2.031,0,1.088,1.088,0,0,0,1.136-1.052C99.567,858.036,99.534,857.318,99.534,856.566Zm-3.872-38.887h3.419l-1.708-4.569Z" fill="#fff"/>
    <path id="Path_1550" data-name="Path 1550" d="M78.382,805.382c.68-.087,1.28-.159,1.879-.24a1.1,1.1,0,0,1,1.438,1.093c.126.975.274,1.948.37,2.927.037.372.146.521.538.557,1.044.094,2.083.247,3.125.368.965.112,1.3.528,1.187,1.489-.723,5.967-1.475,11.93-2.142,17.9a12.9,12.9,0,0,0,.255,2.991q1.147,9.008,2.319,18.011.738,5.723,1.476,11.444c.133,1.022-.144,1.41-1.174,1.544-2.145.279-4.29.567-6.44.8-.519.057-.7.228-.734.748-.047.805-.167,1.608-.291,2.407-.13.841-.511,1.139-1.358,1.04-3.039-.357-6.075-.732-9.113-1.1-1.974-.239-3.944-.606-5.925-.674a29.934,29.934,0,0,0-4.685.422c-4.185.521-8.365,1.081-12.549,1.614-.885.112-1.254-.174-1.392-1.066s-.259-1.818-.348-2.731c-.041-.419-.182-.6-.627-.65-2.216-.242-4.428-.518-6.642-.784-.878-.106-1.2-.541-1.091-1.436.053-.411.1-.823.157-1.332-.423,0-.808.017-1.192,0a1.029,1.029,0,0,1-1.1-1.116c-.009-.174,0-.349,0-.524v-43.44c0-.2-.01-.395.006-.59a.978.978,0,1,1,1.956-.023c.019.217.008.437.008.656v43.022H76.36V803.967H36.288v.683c0,1.772,0,3.544,0,5.315,0,.834-.346,1.29-.965,1.3s-1-.451-1-1.265q-.006-3.379,0-6.759c0-.957.345-1.3,1.314-1.3q20.7,0,41.405,0c.995,0,1.33.339,1.342,1.344C78.389,803.962,78.382,804.635,78.382,805.382Zm-.056,61.037,6.55-54.445-6.494-.77v47.8c0,1.5-.222,1.725-1.694,1.725H38.616l-.089.9Zm8.473-4.837c-1-7.822-1.994-15.573-2.987-23.325l-.111.011c-.962,7.994-1.923,15.987-2.9,24.079Zm-39.735,5.094,7.639-.982v-.13l-7.937-.949c.069.6.119,1.072.18,1.545C46.965,866.309,47.012,866.454,47.064,866.676Zm32.765-59.45c-1.5.075-1.57.153-1.446,1.59.04.456.6.626,1.722.5Z" fill="#fff"/>
    <path id="Path_1551" data-name="Path 1551" d="M51.14,840.366a7.85,7.85,0,0,1,.024-1.5,1.713,1.713,0,0,1,.568-1.013.966.966,0,0,0,.057-1.639,8.452,8.452,0,0,1-2.976-3.417,8.332,8.332,0,1,1,15.847-3.236,8.191,8.191,0,0,1-3.751,6.641.938.938,0,0,0,.071,1.661,1.3,1.3,0,0,1,.518.894,32.091,32.091,0,0,1-.031,3.67,3.984,3.984,0,0,1-3.925,3.544,7.48,7.48,0,0,1-4.059-.412,4.14,4.14,0,0,1-2.342-3.877C51.128,841.241,51.139,840.8,51.14,840.366Zm7.311-2.693a1.172,1.172,0,0,0,.044-.295,2.766,2.766,0,0,1,1.528-3.027,5.773,5.773,0,0,0,2.562-6.284,6.157,6.157,0,0,0-4.964-5.074A6.406,6.406,0,0,0,50,829.741a6.31,6.31,0,0,0,3.4,5.126,1.283,1.283,0,0,1,.769,1.313c-.031.491-.007.985-.007,1.5H55.3v-6.414c-.658,0-1.267.011-1.876,0-.769-.017-1.222-.4-1.21-.992.011-.572.447-.966,1.175-.972q2.951-.026,5.9,0c.784.007,1.189.392,1.169,1.024-.02.6-.406.922-1.177.94-.627.014-1.255,0-1.907,0v6.41Zm-5.316,2.052c0,.822-.053,1.564.012,2.3a2.018,2.018,0,0,0,1.928,1.962,15.308,15.308,0,0,0,2.674-.023A1.814,1.814,0,0,0,59.46,842.4a17.732,17.732,0,0,0,.029-2.673Z" fill="#fff"/>
    <path id="Path_1552" data-name="Path 1552" d="M50.929,821.1a2.63,2.63,0,0,1-.705-.541,14.393,14.393,0,0,1-.991-1.685.985.985,0,1,1,1.707-.968,19.764,19.764,0,0,1,.99,1.761A1,1,0,0,1,50.929,821.1Z" fill="#fff"/>
    <path id="Path_1553" data-name="Path 1553" d="M57.3,817.7c0,.369.028.741-.007,1.107a.877.877,0,0,1-.893.86.827.827,0,0,1-.975-.753,16.524,16.524,0,0,1,0-2.527.831.831,0,0,1,.987-.741.884.884,0,0,1,.881.881c.025.389,0,.782,0,1.173Z" fill="#fff"/>
    <path id="Path_1554" data-name="Path 1554" d="M45.458,821.766c.915.6,1.79,1.107,2.579,1.729.165.13.133.75-.032.992a1.059,1.059,0,0,1-.917.4,13.777,13.777,0,0,1-2.4-1.386c-.189-.136-.219-.709-.1-.99S45.09,822.061,45.458,821.766Z" fill="#fff"/>
    <path id="Path_1555" data-name="Path 1555" d="M65.183,824.941c-.154-.156-.542-.372-.6-.658a1.218,1.218,0,0,1,.28-1.031,12.823,12.823,0,0,1,2.081-1.222.777.777,0,0,1,1.115.374c.129.326.13.959-.071,1.112a20.557,20.557,0,0,1-2.347,1.4C65.57,824.951,65.467,824.926,65.183,824.941Z" fill="#fff"/>
    <path id="Path_1556" data-name="Path 1556" d="M61.735,821.091a.966.966,0,0,1-1.013-1.324,15.229,15.229,0,0,1,1.206-2.079.843.843,0,0,1,1.164-.249.858.858,0,0,1,.466,1.153,17.784,17.784,0,0,1-1.267,2.192C62.169,820.97,61.855,821.029,61.735,821.091Z" fill="#fff"/>
    <path id="Path_1557" data-name="Path 1557" d="M44.69,830.192c-.348,0-.7.021-1.042-.005a.9.9,0,0,1-.893-.94.846.846,0,0,1,.8-.946,18.713,18.713,0,0,1,2.4-.006.851.851,0,0,1,.823.986.9.9,0,0,1-.919.91c-.389.028-.781.005-1.172.005Z" fill="#fff"/>
    <path id="Path_1558" data-name="Path 1558" d="M67.859,830.185c-.371,0-.745.03-1.112-.007a.867.867,0,0,1-.835-.922.833.833,0,0,1,.789-.954,19.08,19.08,0,0,1,2.415,0,.834.834,0,0,1,.805.941.879.879,0,0,1-.883.946c-.391.032-.786.006-1.179.006Z" fill="#fff"/>
    <path id="Path_1559" data-name="Path 1559" d="M65.283,833.465a3.668,3.668,0,0,1,.657.185c.611.336,1.224.671,1.812,1.047a.968.968,0,0,1-.93,1.7,10.778,10.778,0,0,1-1.9-1.138,1.291,1.291,0,0,1-.337-1.069C64.64,833.9,65.064,833.675,65.283,833.465Z" fill="#fff"/>
    <path id="Path_1560" data-name="Path 1560" d="M48.2,834.712a2.606,2.606,0,0,1-.537.645,15.8,15.8,0,0,1-1.695.988.989.989,0,0,1-1.417-.356A.966.966,0,0,1,45,834.652c.555-.348,1.119-.684,1.7-.978A1.012,1.012,0,0,1,48.2,834.712Z" fill="#fff"/>
  </g>
</svg>
