<svg xmlns="http://www.w3.org/2000/svg" width="52.078" height="46.926" viewBox="0 0 52.078 46.926">
  <g id="Group_12368" data-name="Group 12368" transform="translate(-430.385 -337.885)">
    <path id="Path_1265" data-name="Path 1265" d="M453.3,337.889q8.7,0,17.406,0a5.333,5.333,0,0,1,5.387,4.355,7.667,7.667,0,0,1,.107,1.49q.01,7.7-.005,15.394a.942.942,0,0,0,.461.88,13.64,13.64,0,1,1-19.8,17.736.74.74,0,0,0-.758-.445q-9.995.016-19.988.01a5.436,5.436,0,0,1-5.7-5.323q-.047-14.386-.014-28.774a5.336,5.336,0,0,1,5.442-5.321C441.658,337.877,447.476,337.889,453.3,337.889Zm2.259,19.648c1.769-1.016,3.5-2.01,5.228-3a1.354,1.354,0,0,1,1.917.133c1.083.878,2.174,1.747,3.241,2.644a1.22,1.22,0,0,0,1.063.325,13.081,13.081,0,0,1,6.4.665,3.048,3.048,0,0,0,.365.078v-.5q0-7.155,0-14.31a2.972,2.972,0,0,0-3.251-3.233q-17.226,0-34.451,0a2.947,2.947,0,0,0-3.228,3.243q0,14.025,0,28.051a2.966,2.966,0,0,0,3.235,3.248h19.583a13.79,13.79,0,0,1-.292-6.2A14.02,14.02,0,0,1,457.837,363l-9.72-9.061-4.4,3.733c-2.347,2-4.685,4-7.052,5.976a1.977,1.977,0,0,1-1.106.418,1.022,1.022,0,0,1-1.011-.816,1.31,1.31,0,0,1,.536-1.448q5.951-5.041,11.887-10.1c1-.851,1.426-.837,2.389.061C451.416,353.682,453.469,355.594,455.554,357.538ZM468.8,382.372a11.224,11.224,0,1,0-11.228-11.243A11.211,11.211,0,0,0,468.8,382.372Zm-5.345-23.943c-.481-.394-1.051-.836-1.591-1.311a.45.45,0,0,0-.628-.031c-1.08.637-2.171,1.253-3.258,1.88-.17.1-.337.2-.536.325l1.932,1.8Z" fill="#fff"/>
    <path id="Path_1266" data-name="Path 1266" d="M445.511,347.465a5.135,5.135,0,1,1-5.145-5.156A5.151,5.151,0,0,1,445.511,347.465Zm-5.145,2.693a2.7,2.7,0,1,0-2.7-2.681A2.707,2.707,0,0,0,440.366,350.158Z" transform="translate(-0.74 -0.674)" fill="#fff"/>
    <path id="Path_1267" data-name="Path 1267" d="M475.256,382.186c-.039.383-.072.708-.106,1.032-.075.722-.215.851-.935.852h-.487l.14-1.916a6.636,6.636,0,0,1-3.5-1.642c.008-.066,0-.106.018-.131,1.032-1.636,1-1.448,2.392-.612a12.513,12.513,0,0,0,1.235.567c.055-.562.1-1.016.142-1.471.064-.771.139-1.542.168-2.315a.576.576,0,0,0-.3-.407c-.321-.159-.675-.249-1.012-.378a3.416,3.416,0,0,1-.8-5.916,4.366,4.366,0,0,1,2.364-.931c.33-.023.474-.141.446-.467a1.061,1.061,0,0,1,.007-.155c.072-1.085.275-1.242,1.415-1.076,0,.285.01.572,0,.858s-.047.544-.076.855a5.267,5.267,0,0,1,2.815,1.412,1.048,1.048,0,0,1-.063.175c-.72,1.206-.731,1.206-2,.619-.271-.125-.56-.213-.909-.342-.1,1.237-.2,2.38-.28,3.525-.007.1.139.249.248.3.3.132.615.215.92.331a3.424,3.424,0,0,1,1.417,5.721,4.432,4.432,0,0,1-2.871,1.467Zm.455-5.528-.295,3.616c1.209-.162,1.821-.748,1.915-1.761C477.415,377.609,476.967,377.075,475.711,376.659Zm-.887-5.87c-1.223.137-1.864.714-1.865,1.617a1.744,1.744,0,0,0,1.6,1.6Z" transform="translate(-6.096 -4.464)" fill="#fff"/>
  </g>
</svg>
