<svg xmlns="http://www.w3.org/2000/svg" width="67.326" height="70.684" viewBox="0 0 67.326 70.684">
  <g id="Group_12364" data-name="Group 12364" transform="translate(-33.559 -327.293)">
    <g id="Group_280" data-name="Group 280" transform="translate(33.558 362.063)">
      <path id="Path_1244" data-name="Path 1244" d="M56.322,391.515c1.405,1.717,1.505,2.945.419,4.829-.488.847-.961,1.7-1.469,2.535a3.386,3.386,0,0,1-4.726,1.277q-7.509-4.292-14.981-8.653a3.386,3.386,0,0,1-1.247-4.782c.475-.854.971-1.694,1.461-2.54,1.066-1.844,2.216-2.381,4.358-2.005.422-.724.855-1.465,1.286-2.208.958-1.649,1.885-3.318,2.881-4.944a11.428,11.428,0,0,1,7.61-5.719,15.977,15.977,0,0,1,7.6.649,5.776,5.776,0,0,0,1.53.231c3.455.019,6.91.01,10.364.01,2.632,0,3.908.843,4.964,3.334.217-.1.435-.194.647-.3q6.489-3.238,12.976-6.482a12.835,12.835,0,0,1,4.907-1.531,5.634,5.634,0,0,1,4.874,1.937,2.8,2.8,0,0,1-.767,4.628q-7.015,4.062-14.037,8.111c-2.162,1.248-4.339,2.475-6.487,3.748a20.552,20.552,0,0,1-10.846,2.908c-1.432-.011-2.864.008-4.3,0a6.648,6.648,0,0,0-6.247,3.636C56.847,390.614,56.593,391.044,56.322,391.515Zm-1.179-.7c.383-.654.7-1.232,1.053-1.786a7.771,7.771,0,0,1,6.674-3.83c1.59-.042,3.182-.025,4.773-.017a18.89,18.89,0,0,0,9.717-2.478q6.493-3.74,12.982-7.486,4.011-2.314,8.021-4.635a1.454,1.454,0,0,0,.427-2.478,4.128,4.128,0,0,0-2.6-1.482,8.009,8.009,0,0,0-4.8.982c-4.868,2.394-9.714,4.829-14.561,7.267a.993.993,0,0,0-.442.594,4.467,4.467,0,0,1-4.457,3.588c-2.841.018-5.682,0-8.523.008-.523,0-1.025-.077-1.014-.716.01-.6.495-.657.992-.656,2.773.009,5.546.013,8.319,0a4.407,4.407,0,0,0,1.337-.193,3.046,3.046,0,0,0-.96-5.919c-3.751-.017-7.5,0-11.251-.018a5.636,5.636,0,0,1-1.531-.235,15.652,15.652,0,0,0-6.446-.779,9.77,9.77,0,0,0-7.219,4.952c-1.46,2.354-2.8,4.783-4.185,7.18a.758.758,0,0,0-.036.216Zm-16.084-7.479a2.248,2.248,0,0,0-1.839,1.1c-.59,1-1.18,1.992-1.738,3.005a2.06,2.06,0,0,0,.825,2.926q7.392,4.281,14.8,8.54a2.077,2.077,0,0,0,3.072-.846c.523-.877,1.03-1.764,1.533-2.652a2.116,2.116,0,0,0-.846-3.178Q47.556,388,40.24,383.8A8.363,8.363,0,0,0,39.058,383.335Z" transform="translate(-33.577 -364.969)" fill="#fff"/>
      <path id="Path_1245" data-name="Path 1245" d="M52.311,400.863a3.811,3.811,0,0,1-1.9-.527c-4.836-2.764-9.737-5.594-14.984-8.654A3.611,3.611,0,0,1,34.1,386.59c.354-.636.719-1.266,1.085-1.9l.377-.647A3.759,3.759,0,0,1,40,381.9l1.207-2.07c.3-.517.6-1.036.894-1.554.641-1.119,1.3-2.276,1.989-3.4,2.008-3.277,4.547-5.183,7.762-5.824a16.274,16.274,0,0,1,7.7.653,5.609,5.609,0,0,0,1.469.223c2.561.015,5.123.013,7.684.011h2.679c2.656,0,4.01.859,5.082,3.258.143-.065.285-.129.426-.2l1.483-.74q5.748-2.87,11.494-5.742a13.1,13.1,0,0,1,4.994-1.555,5.879,5.879,0,0,1,5.063,2.016,3.029,3.029,0,0,1-.825,4.978q-5.443,3.152-10.892,6.294l-3.146,1.816q-1.064.615-2.128,1.223c-1.457.835-2.913,1.668-4.357,2.524a20.756,20.756,0,0,1-10.965,2.939c-.7-.006-1.4,0-2.1,0-.732,0-1.464,0-2.2,0h-.082a6.378,6.378,0,0,0-5.963,3.521c-.169.3-.341.6-.521.9l-.172.3a3.79,3.79,0,0,1,.341,4.966l-.421.736c-.344.6-.69,1.209-1.051,1.8A3.673,3.673,0,0,1,52.311,400.863ZM38.942,382.271c-1.339,0-2.165.591-2.984,2.006l-.377.649c-.364.627-.729,1.254-1.08,1.887a3.169,3.169,0,0,0,1.161,4.471c5.245,3.058,10.146,5.889,14.98,8.653a3.152,3.152,0,0,0,4.414-1.2c.36-.59.7-1.191,1.044-1.791l.422-.738c1.045-1.813.948-2.923-.4-4.569l-.1-.124.331-.571c.179-.307.35-.6.518-.9a6.874,6.874,0,0,1,6.449-3.754c.73.006,1.461,0,2.191,0,.7,0,1.4,0,2.105,0a20.2,20.2,0,0,0,10.727-2.875c1.446-.857,2.9-1.692,4.363-2.528q1.064-.609,2.127-1.222l3.146-1.816q5.447-3.145,10.891-6.294a2.575,2.575,0,0,0,.709-4.277,5.427,5.427,0,0,0-4.686-1.859,12.692,12.692,0,0,0-4.818,1.507q-5.745,2.875-11.494,5.742l-1.483.74c-.147.074-.3.141-.448.21l-.421.194-.092-.219c-1.012-2.389-2.21-3.194-4.752-3.195H68.708c-2.564,0-5.126,0-7.688-.011a5.969,5.969,0,0,1-1.593-.239,15.845,15.845,0,0,0-7.488-.645c-3.082.615-5.522,2.451-7.46,5.614-.681,1.113-1.343,2.267-1.982,3.382q-.445.78-.895,1.557l-1.367,2.346-.158-.028A6.644,6.644,0,0,0,38.942,382.271Zm13.372,17.211a2.709,2.709,0,0,1-1.345-.394q-7.407-4.255-14.8-8.54a2.284,2.284,0,0,1-.911-3.237c.545-.987,1.112-1.947,1.742-3.01a2.472,2.472,0,0,1,2.013-1.213l.054-.006.052.019c.123.047.248.089.373.131a4.558,4.558,0,0,1,.841.345q7.32,4.2,14.622,8.436a2.339,2.339,0,0,1,.931,3.49c-.5.891-1.012,1.777-1.536,2.656A2.381,2.381,0,0,1,52.314,399.482Zm-13.3-15.931a2,2,0,0,0-1.612.984c-.629,1.06-1.194,2.017-1.735,3a1.828,1.828,0,0,0,.741,2.617q7.389,4.28,14.795,8.539a1.846,1.846,0,0,0,2.76-.764c.522-.875,1.028-1.761,1.53-2.648a1.884,1.884,0,0,0-.761-2.864q-7.3-4.23-14.62-8.435a4.223,4.223,0,0,0-.758-.309C39.235,383.63,39.121,383.592,39.009,383.551Zm16.2,7.557-14.063-8.12.032-.229a.5.5,0,0,1,.057-.223q.612-1.058,1.216-2.122c.954-1.672,1.939-3.4,2.971-5.064a10.018,10.018,0,0,1,7.386-5.059,16.044,16.044,0,0,1,6.539.787,5.405,5.405,0,0,0,1.467.226c1.966.01,3.93.008,5.9.01q2.673,0,5.352.007a3.276,3.276,0,0,1,1.031,6.368,4.574,4.574,0,0,1-1.408.2c-2.95.018-5.862.012-8.321,0h-.011c-.631,0-.745.139-.75.431a.439.439,0,0,0,.1.327,1.1,1.1,0,0,0,.687.153q1.7,0,3.4,0c1.709,0,3.417,0,5.126-.007a4.236,4.236,0,0,0,4.234-3.411,1.208,1.208,0,0,1,.562-.746c4.94-2.486,9.771-4.911,14.563-7.268a8.073,8.073,0,0,1,4.932-1,4.383,4.383,0,0,1,2.744,1.56,1.679,1.679,0,0,1-.488,2.826q-3.118,1.813-6.244,3.61l-3.563,2.055q-5.6,3.23-11.2,6.456a19.2,19.2,0,0,1-9.714,2.51h-.12l-.668,0c-1.343-.007-2.734-.017-4.1.02a7.567,7.567,0,0,0-6.485,3.725c-.237.372-.458.754-.693,1.164-.114.2-.231.4-.355.613Zm-13.563-8.364,13.4,7.737.237-.412c.24-.416.464-.805.7-1.184a8.005,8.005,0,0,1,6.861-3.936c1.371-.037,2.764-.03,4.112-.02l.668,0a19,19,0,0,0,9.6-2.448q5.6-3.226,11.2-6.456l3.563-2.055q3.123-1.8,6.244-3.609a1.232,1.232,0,0,0,.367-2.131,3.878,3.878,0,0,0-2.462-1.4,7.652,7.652,0,0,0-4.66.959c-4.79,2.356-9.62,4.782-14.559,7.267a.765.765,0,0,0-.321.441,4.679,4.679,0,0,1-4.679,3.765q-2.565.015-5.13.006-1.7,0-3.4,0a1.332,1.332,0,0,1-1.015-.291.876.876,0,0,1-.229-.658c.015-.885.852-.881,1.222-.883,2.458.006,5.367.013,8.316,0a4.146,4.146,0,0,0,1.267-.181,2.816,2.816,0,0,0-.889-5.472q-2.674-.011-5.35-.007c-1.969,0-3.934,0-5.9-.009a5.9,5.9,0,0,1-1.595-.246,15.647,15.647,0,0,0-6.352-.772,9.459,9.459,0,0,0-7.052,4.846c-1.028,1.656-2.011,3.381-2.963,5.049C42.447,381.344,42.047,382.046,41.643,382.744Z" transform="translate(-33.558 -364.95)" fill="#fff"/>
    </g>
    <path id="Path_1246" data-name="Path 1246" d="M60.534,354.534a3.689,3.689,0,0,1,.132-.766,2.19,2.19,0,0,0-.681-2.571,2.568,2.568,0,0,1-.9-2.639,4.811,4.811,0,0,1,1.03-1.855,2.255,2.255,0,0,0,.608-2.224c-.536-2.225.192-3.44,2.412-4.093a2.035,2.035,0,0,0,1.5-1.492c.691-2.282,1.894-2.975,4.212-2.415a1.965,1.965,0,0,0,1.982-.535c1.743-1.642,3.147-1.644,4.86,0a1.87,1.87,0,0,0,1.98.528,3.252,3.252,0,0,1,2.881.283,3.108,3.108,0,0,1,1.3,2.006,2.041,2.041,0,0,0,1.6,1.642c2.14.614,2.879,1.888,2.345,4.075a2.149,2.149,0,0,0,.626,2.211c1.5,1.546,1.505,3.075.018,4.606a2.207,2.207,0,0,0-.634,2.274c.522,2.148-.22,3.418-2.325,4.024a2.16,2.16,0,0,0-1.628,1.627c-.61,2.119-1.893,2.871-4.016,2.335a2.2,2.2,0,0,0-2.276.629c-1.536,1.483-3.057,1.483-4.6,0a2.2,2.2,0,0,0-2.279-.621c-2.088.524-3.429-.232-3.994-2.274a2.261,2.261,0,0,0-1.785-1.723A2.944,2.944,0,0,1,60.534,354.534Zm24.079-10.991a1.566,1.566,0,0,0-1.392-1.787,3.43,3.43,0,0,1-2.7-2.652c-.355-1.348-.977-1.692-2.334-1.335a3.383,3.383,0,0,1-3.546-.937c-1-1.015-1.752-1.015-2.75-.006a3.385,3.385,0,0,1-3.542.951c-1.387-.364-1.993-.018-2.367,1.385a3.386,3.386,0,0,1-2.6,2.582c-1.336.36-1.721,1.011-1.354,2.331a3.391,3.391,0,0,1-.966,3.6c-.966.958-.956,1.727.017,2.7a3.371,3.371,0,0,1,.964,3.538c-.374,1.379-.018,2.017,1.367,2.382a3.375,3.375,0,0,1,2.59,2.591c.37,1.36,1.021,1.735,2.389,1.359a3.305,3.305,0,0,1,3.481.918c1.034,1.032,1.76,1.033,2.795.007a3.315,3.315,0,0,1,3.478-.934c1.391.385,2.03.011,2.42-1.408a3.29,3.29,0,0,1,2.49-2.514c1.474-.4,1.786-.983,1.435-2.468a3.085,3.085,0,0,1,.243-2.563,12.8,12.8,0,0,1,.958-1.148,1.571,1.571,0,0,0,.03-2.216c-.189-.226-.4-.433-.6-.654a2.843,2.843,0,0,1-.709-2.713C84.5,344.171,84.562,343.79,84.613,343.543Z" transform="translate(-1.95 -0.569)" fill="#fff"/>
    <path id="Path_1247" data-name="Path 1247" d="M53.75,350.806c-.5,0-1,.007-1.494,0-.423-.007-.769-.233-.684-.645.056-.269.407-.658.649-.676a20.146,20.146,0,0,1,3.051,0c.234.018.563.434.6.7.025.17-.379.535-.636.586A7.685,7.685,0,0,1,53.75,350.806Z" transform="translate(-1.38 -1.697)" fill="#fff"/>
    <path id="Path_1248" data-name="Path 1248" d="M94.793,350.807c-.475,0-.95,0-1.426,0-.45,0-.817-.219-.721-.675a1,1,0,0,1,.674-.652,19.62,19.62,0,0,1,2.983,0,1.013,1.013,0,0,1,.658.669c.09.412-.251.644-.674.653C95.79,350.814,95.292,350.806,94.793,350.807Z" transform="translate(-4.529 -1.697)" fill="#fff"/>
    <path id="Path_1249" data-name="Path 1249" d="M93.426,361.831a5.234,5.234,0,0,1-.491-.2c-.807-.46-1.609-.926-2.415-1.388a.675.675,0,0,1-.329-1.018c.244-.4.621-.393,1.007-.168.821.479,1.667.921,2.452,1.453a1.049,1.049,0,0,1,.332.837C93.966,361.532,93.6,361.688,93.426,361.831Z" transform="translate(-4.333 -2.423)" fill="#fff"/>
    <path id="Path_1250" data-name="Path 1250" d="M73.71,329.383c0-.453-.006-.907,0-1.359s.251-.808.691-.717a1,1,0,0,1,.637.693c.076.968.037,1.945.029,2.919,0,.452-.222.746-.7.734s-.658-.331-.66-.775C73.708,330.38,73.71,329.881,73.71,329.383Z" transform="translate(-3.078)" fill="#fff"/>
    <path id="Path_1251" data-name="Path 1251" d="M55.186,361.929c-.269-.245-.555-.386-.613-.593a.8.8,0,0,1,.18-.713c.933-.6,1.895-1.153,2.877-1.665a.762.762,0,0,1,.692.226c.13.169.167.653.059.726C57.361,360.6,56.3,361.237,55.186,361.929Z" transform="translate(-1.61 -2.426)" fill="#fff"/>
    <path id="Path_1252" data-name="Path 1252" d="M63.41,330.234a1.545,1.545,0,0,1,.476.375c.523.847,1.012,1.715,1.5,2.582.211.372.156.789-.232.915a1.007,1.007,0,0,1-.908-.251,28.407,28.407,0,0,1-1.512-2.573A.7.7,0,0,1,63.41,330.234Z" transform="translate(-2.23 -0.226)" fill="#fff"/>
    <path id="Path_1253" data-name="Path 1253" d="M85.264,330.235a.689.689,0,0,1,.694.98,30.137,30.137,0,0,1-1.578,2.692.645.645,0,0,1-1.115-.641c.459-.932,1-1.823,1.548-2.709C84.916,330.388,85.161,330.305,85.264,330.235Z" transform="translate(-3.809 -0.226)" fill="#fff"/>
    <path id="Path_1254" data-name="Path 1254" d="M57.876,341.3a5.959,5.959,0,0,1-.551-.232q-1.179-.672-2.352-1.356c-.4-.232-.637-.55-.367-1s.65-.415,1.057-.175c.819.482,1.663.926,2.451,1.453a.956.956,0,0,1,.3.791C58.386,340.98,58.05,341.14,57.876,341.3Z" transform="translate(-1.605 -0.849)" fill="#fff"/>
    <path id="Path_1255" data-name="Path 1255" d="M90.765,341.391c-.269-.242-.554-.381-.614-.586a.8.8,0,0,1,.171-.718c.932-.6,1.894-1.152,2.875-1.662a.763.763,0,0,1,.692.223c.129.163.166.641.06.714C92.933,340.055,91.877,340.694,90.765,341.391Z" transform="translate(-4.337 -0.851)" fill="#fff"/>
    <path id="Path_1256" data-name="Path 1256" d="M73.664,339.742a9.652,9.652,0,1,1-9.675,9.6A9.687,9.687,0,0,1,73.664,339.742Zm.21,1.369a8.288,8.288,0,1,0,8.059,8.577A8.325,8.325,0,0,0,73.873,341.111Z" transform="translate(-2.333 -0.954)" fill="#fff"/>
    <path id="Path_1257" data-name="Path 1257" d="M73.9,352.823c-.943.687-1.844,1.336-2.736,2-.436.323-.878.507-1.363.129a1.037,1.037,0,0,1-.25-1.3c.316-.922.6-1.854.926-2.774a.539.539,0,0,0-.237-.731c-.825-.563-1.621-1.167-2.434-1.748a.976.976,0,0,1-.5-1.149.988.988,0,0,1,1.114-.689c.885.016,1.776-.049,2.656.022.661.054.913-.2,1.066-.8.217-.855.536-1.684.8-2.528a.975.975,0,0,1,1.921-.015c.308.972.608,1.949.96,2.906a.757.757,0,0,0,.553.4c1,.042,2,.03,3,.015a1,1,0,0,1,1.124.676c.181.556-.128.9-.54,1.2-.738.53-1.458,1.086-2.217,1.582a.73.73,0,0,0-.355,1.042c.348.885.593,1.809.9,2.71a.963.963,0,0,1-.326,1.21.938.938,0,0,1-1.2-.078C75.82,354.222,74.884,353.542,73.9,352.823Zm2.53.151.112-.1c-.223-.686-.435-1.376-.67-2.057a1.13,1.13,0,0,1,.475-1.47c.611-.408,1.193-.861,1.949-1.414H76.477c-1.547,0-1.545,0-2.03-1.5-.16-.494-.333-.983-.563-1.66-.271.837-.474,1.462-.675,2.085-.3.937-.491,1.076-1.456,1.076H69.493c.764.554,1.333,1,1.934,1.4a1.155,1.155,0,0,1,.481,1.526c-.241.676-.441,1.367-.722,2.245.745-.541,1.341-.943,1.9-1.389a1.138,1.138,0,0,1,1.595-.016C75.247,352.144,75.844,352.55,76.427,352.975Z" transform="translate(-2.583 -1.162)" fill="#fff"/>
  </g>
</svg>
