<svg xmlns="http://www.w3.org/2000/svg" width="45.436" height="59.973" viewBox="0 0 45.436 59.973">
  <g id="Group_12369" data-name="Group 12369" transform="translate(-510.617 -330.152)">
    <path id="Path_1268" data-name="Path 1268" d="M514.71,390.124a10.851,10.851,0,0,1-1.208-.409,4.747,4.747,0,0,1-2.874-4.159c-.014-.174-.009-.351-.009-.527q0-24.887,0-49.775a4.768,4.768,0,0,1,3.428-4.879,5.845,5.845,0,0,1,1.614-.212q13.442-.019,26.883-.008a4.8,4.8,0,0,1,5.052,5.031c.012,4.724,0,9.447,0,14.171q0,5.417,0,10.834a2.839,2.839,0,0,1-.059.694.789.789,0,0,1-.862.64.8.8,0,0,1-.817-.766,6.238,6.238,0,0,1-.016-.7q0-12.416,0-24.83c0-1.7-.871-2.991-2.4-3.207a27.679,27.679,0,0,0-3.853-.091c-.094,0-.24.217-.272.354-.137.588-.229,1.187-.359,1.777a4.029,4.029,0,0,1-3.92,3.244q-5.944.043-11.889,0a4.009,4.009,0,0,1-3.885-3.206c-.161-.7-.287-1.411-.43-2.118a35.318,35.318,0,0,0-4.033.033,2.871,2.871,0,0,0-2.423,2.828c-.007.137,0,.273,0,.411q0,24.887,0,49.775a3.061,3.061,0,0,0,2.48,3.282,4.158,4.158,0,0,0,.815.057q13.442.005,26.883,0a3.051,3.051,0,0,0,3.285-3.236c.012-2.538,0-5.076,0-7.613,0-.151-.021-.3-.036-.511h-3.468c-.664,0-1.328.008-1.991,0a3,3,0,0,1-2.55-1.413.891.891,0,0,0-.623-.355q-6.852-.03-13.705-.005a.732.732,0,0,0-.558.251,3.129,3.129,0,0,1-2.94,1.771,1.008,1.008,0,0,0-.207.053c0,.835-.025,1.67.008,2.5a.955.955,0,0,0,1.07.926c.976.014,1.952,0,2.929.005.69,0,1.093.325,1.1.861s-.409.887-1.08.892c-1.015.008-2.03.019-3.046,0a2.721,2.721,0,0,1-2.74-2.765c-.014-.8,0-1.6,0-2.422a10.66,10.66,0,0,1-1.1-.167,2.888,2.888,0,0,1-2.245-3.017,2.841,2.841,0,0,1,2.7-2.674,26.258,26.258,0,0,1,3.043,0,2.839,2.839,0,0,1,2.455,1.649.681.681,0,0,0,.439.353c1.364.027,2.728.015,4.149.015.013-.221.033-.407.034-.593,0-1.19-.007-2.382,0-3.572a2.712,2.712,0,0,1,2.807-2.813c2.186-.019,4.373-.012,6.559,0,.386,0,.6-.053.768-.484a2.711,2.711,0,0,1,2.664-1.847q6.442-.041,12.885,0a2.9,2.9,0,0,1,.006,5.806c-1.62.036-3.241.01-4.862.011h-.671v1.192c.209.009.415.025.621.026,1.562,0,3.124-.005,4.686,0a2.915,2.915,0,1,1-.026,5.815c-1.561.005-3.123,0-4.686,0H547.6v.683q0,3.573,0,7.144a4.834,4.834,0,0,1-3.982,5.221c-.033.009-.059.046-.089.069Zm31.105-20.155H540.5a3.013,3.013,0,0,1-2.71-1.44.639.639,0,0,0-.437-.28q-3.571-.024-7.141,0a.872.872,0,0,0-.956.844c-.042,1.436-.014,2.874-.014,4.288.09.041.124.069.158.069,2.576.007,5.15.016,7.726,0a.623.623,0,0,0,.428-.342,2.953,2.953,0,0,1,2.935-1.916c1.56,0,3.122,0,4.682,0,.207,0,.413-.02.641-.032Zm-8.222-38.027H520.615a16.4,16.4,0,0,0,.484,2.129,2.114,2.114,0,0,0,2.057,1.475q5.945.037,11.889,0a2.235,2.235,0,0,0,2.115-1.572C537.352,333.327,537.446,332.648,537.593,331.942ZM546.75,365.9c-2.09,0-4.178-.006-6.267,0-.931,0-1.489.654-1.281,1.458.142.552.609.849,1.372.85q6.149,0,12.3,0c.23,0,.534.016.674-.114.293-.273.671-.628.693-.97a1.657,1.657,0,0,0-.567-1.047,1.317,1.317,0,0,0-.831-.17C550.811,365.894,548.78,365.9,546.75,365.9Zm0,9.349c2.089,0,4.178.006,6.267,0a1.154,1.154,0,1,0,.031-2.3c-.117-.006-.234,0-.351,0q-5.974,0-11.948,0a3.524,3.524,0,0,0-.642.036,1.121,1.121,0,0,0-.913,1.392,1.18,1.18,0,0,0,1.289.873C542.573,375.252,544.661,375.249,546.75,375.249Zm-27.891.232c.449,0,.9.016,1.345,0a1.166,1.166,0,0,0,1.166-1.146,1.132,1.132,0,0,0-1.113-1.134c-.915-.036-1.834-.036-2.748,0a1.107,1.107,0,0,0-1.1,1.137,1.149,1.149,0,0,0,1.163,1.143C518,375.5,518.429,375.481,518.859,375.481Z" transform="translate(0)" fill="#fff"/>
    <path id="Path_1269" data-name="Path 1269" d="M540.806,352.3l3.913,5.159c.449.59.9,1.178,1.343,1.774.4.546.377,1.083-.056,1.388s-.943.191-1.359-.354q-2.306-3.026-4.6-6.061c-.093-.123-.193-.24-.332-.41-.149.179-.286.33-.409.492q-2.117,2.8-4.232,5.607a2.6,2.6,0,0,1-.3.362.866.866,0,0,1-1.172.1.846.846,0,0,1-.163-1.2c.344-.5.721-.97,1.085-1.453l4.071-5.4-3.684-4.86c-.295-.389-.6-.77-.884-1.167a.878.878,0,1,1,1.39-1.057c1.355,1.764,2.695,3.539,4.042,5.31.058.077.121.151.23.287.144-.177.275-.329.4-.489q1.834-2.43,3.664-4.862c.082-.109.162-.221.253-.322a.879.879,0,0,1,1.2-.177.861.861,0,0,1,.174,1.244c-.262.388-.557.752-.839,1.126Z" transform="translate(-3.472 -2.245)" fill="#fff"/>
    <path id="Path_1270" data-name="Path 1270" d="M516.133,350.93q0-2.4,0-4.8c0-.789.307-1.19.889-1.18s.867.415.867,1.212c0,3,.115,6.016-.036,9.014-.115,2.268,2.34,4.079,4.381,3.8a4.618,4.618,0,0,0,2.53-1.116,3.13,3.13,0,0,0,1.129-2.464c-.019-3.024-.007-6.05-.007-9.074a4.548,4.548,0,0,1,.009-.527.871.871,0,0,1,.933-.846.837.837,0,0,1,.807.9c.014,1.58.008,3.161.008,4.741q0,2.2,0,4.391a5.409,5.409,0,0,1-4.017,5.5c-3.172,1.015-6.8-.951-7.408-4.055a12.365,12.365,0,0,1-.084-2.217C516.124,353.116,516.132,352.023,516.133,350.93Z" transform="translate(-0.845 -2.269)" fill="#fff"/>
    <path id="Path_1271" data-name="Path 1271" d="M536.9,393.3c-1.209,0-2.418.009-3.627,0a2.9,2.9,0,1,1-.023-5.79q3.686-.033,7.372,0a2.846,2.846,0,0,1,2.906,2.938,2.876,2.876,0,0,1-2.942,2.851C539.358,393.313,538.13,393.3,536.9,393.3Zm.005-1.757c1.189,0,2.377.006,3.566,0,.8-.005,1.282-.432,1.3-1.114.014-.712-.469-1.162-1.3-1.166q-3.566-.013-7.132,0a1.151,1.151,0,0,0-1.281,1.14,1.171,1.171,0,0,0,1.287,1.138C534.529,391.552,535.717,391.545,536.906,391.545Z" transform="translate(-3.016 -8.791)" fill="#fff"/>
    <path id="Path_1272" data-name="Path 1272" d="M547.552,336.276a.853.853,0,1,1,.047-1.706.86.86,0,0,1,.841.874A.876.876,0,0,1,547.552,336.276Z" transform="translate(-5.535 -0.677)" fill="#fff"/>
    <path id="Path_1273" data-name="Path 1273" d="M531.938,335.26c-.547,0-1.093.014-1.639,0a.873.873,0,1,1,0-1.742c1.132-.019,2.264-.02,3.4,0a.844.844,0,0,1,.9.872.831.831,0,0,1-.9.866C533.109,335.276,532.523,335.26,531.938,335.26Z" transform="translate(-2.874 -0.513)" fill="#fff"/>
  </g>
</svg>
