<svg xmlns="http://www.w3.org/2000/svg" width="58.547" height="58.578" viewBox="0 0 58.547 58.578">
  <g id="Group_12372" data-name="Group 12372" transform="translate(-232.65 -445.432)">
    <path id="Path_1292" data-name="Path 1292" d="M254.222,462.293H253.6c-2.112,0-4.224.01-6.336-.005a2.076,2.076,0,0,1-2.192-2.086q-.04-6.338,0-12.674a2.094,2.094,0,0,1,2.2-2.091q9.89-.011,19.778,0a2.111,2.111,0,0,1,2.169,2.179q.015,6.248,0,12.5a2.092,2.092,0,0,1-2.166,2.174c-1.971.018-3.943,0-5.974,0a5.974,5.974,0,0,0,.977,4.511c.244.349.447.735.123,1.069a1.238,1.238,0,0,1-.907.367c-3.472-.5-6.007-2.163-6.945-5.741A1.346,1.346,0,0,0,254.222,462.293Zm5.619,3.939a8.682,8.682,0,0,1-.357-4.579c.163-.836.366-1.018,1.229-1.019,1.993,0,3.987,0,5.98,0,.785,0,.864-.078.865-.836q0-5.922,0-11.843c0-.776-.083-.861-.842-.861q-9.562,0-19.124,0c-.78,0-.875.1-.876.895q0,5.774,0,11.548c0,1.094,0,1.1,1.082,1.1,2.309,0,4.618,0,6.928,0,.789,0,1.006.208,1.129.971a6.357,6.357,0,0,0,.231,1.038A5.62,5.62,0,0,0,259.841,466.232Z" transform="translate(-1.953 0)" fill="#fff"/>
    <path id="Path_1293" data-name="Path 1293" d="M236.5,462.262a3.825,3.825,0,0,1,3.329,2.057q3.111,5.411,6.239,10.815c1.459,2.528,2.874,5.084,4.4,7.573a8.035,8.035,0,0,1,1.161,3.661c.132,1.632.377,3.254.513,4.886a1.469,1.469,0,0,1-.341,1.033c-.331.343-.758.134-1.124-.12-1.816-1.259-3.643-2.5-5.451-3.773a2.368,2.368,0,0,1-.662-.733q-5.651-9.755-11.282-19.52a3.749,3.749,0,0,1-.066-4.041A3.651,3.651,0,0,1,236.5,462.262Zm12.918,21.987-9.528-16.5-3.68,2.133,9.524,16.5Zm-10.354-17.94c-.313-.532-.566-1.027-.879-1.479a2.116,2.116,0,0,0-3.709,1.976,18.058,18.058,0,0,0,.9,1.634Zm10.82,19.593-2.919,1.685,3.375,2.324Z" transform="translate(0 -2.651)" fill="#fff"/>
    <path id="Path_1294" data-name="Path 1294" d="M283.44,490.905a8.676,8.676,0,0,1-1.655-1.062c-.578-.6-.639-3.707-.013-4.244.841-.721.586-1.474.308-2.216a11.539,11.539,0,0,0-1.266-2.587,6.9,6.9,0,0,1,4.783-10.569,6.98,6.98,0,0,1,7.932,6.445,6.442,6.442,0,0,1-1.083,4.039,8.173,8.173,0,0,0-1.545,3.855.78.78,0,0,0,.2.581,2.054,2.054,0,0,1,.727,1.618c0,.613.007,1.224,0,1.837a1.879,1.879,0,0,1-1.677,2.023.611.611,0,0,0-.384.379,1.808,1.808,0,0,1-1.957,1.587c-.71.005-1.421,0-2.132,0C284.213,492.59,283.661,492.128,283.44,490.905Zm2.354-6.151c0-1.975.007-3.886-.014-5.8a.665.665,0,0,0-.316-.431c-.585-.366-1.2-.689-1.787-1.046a.83.83,0,0,1-.369-1.2.816.816,0,0,1,1.19-.235c.6.332,1.187.707,1.8,1.019a.8.8,0,0,0,.63,0c.615-.312,1.2-.687,1.8-1.019a.83.83,0,1,1,.827,1.428c-.538.33-1.077.663-1.642.942a.784.784,0,0,0-.472.838c.022,1.441.009,2.883.009,4.325v1.169h1.66a.681.681,0,0,0,.087-.179,10.847,10.847,0,0,1,1.965-4.954,4.351,4.351,0,0,0,.705-2.641,5.253,5.253,0,1,0-9.731,2.831,20.512,20.512,0,0,1,1.577,3.286,9.28,9.28,0,0,1,.368,1.663Zm2.28,6.142c.016-.186.037-.34.04-.493.028-1.309.141-1.424,1.424-1.439a.922.922,0,0,1,.118,0c.372.039.543-.1.523-.5a12.888,12.888,0,0,1,0-1.477c.029-.453-.157-.569-.586-.563-1.674.02-3.349.008-5.023.008-1.5,0-1.5,0-1.5,1.515,0,.981,0,.981.99,1.018.783.028,1.035.292,1.041,1.1,0,.269,0,.538,0,.832Z" transform="translate(-7.408 -3.892)" fill="#fff"/>
    <path id="Path_1295" data-name="Path 1295" d="M266.024,511.731c-3.734-.069-6.571-.342-9.264-1.45a9.673,9.673,0,0,1-1.212-.613,4.169,4.169,0,0,1-2.2-4.35A12.053,12.053,0,0,1,264,494.492a11.918,11.918,0,0,1,12.726,9.121,17.187,17.187,0,0,1,.309,2.4,3.5,3.5,0,0,1-1.472,3.129,10.867,10.867,0,0,1-5.159,2.07C268.674,511.5,266.921,511.629,266.024,511.731Zm-.473-1.673c.544-.033,1.433-.053,2.315-.144a15.463,15.463,0,0,0,5.8-1.5,2.625,2.625,0,0,0,1.653-3.272c-.011-.078-.028-.155-.038-.233a10.184,10.184,0,0,0-20.058-.718c-.527,2.594-.584,3.509,2.707,4.76A21.82,21.82,0,0,0,265.551,510.057Z" transform="translate(-3.256 -7.721)" fill="#fff"/>
    <path id="Path_1296" data-name="Path 1296" d="M266.3,478.864a5.922,5.922,0,1,1-5.927,5.9A5.92,5.92,0,0,1,266.3,478.864Zm.015,1.659a4.262,4.262,0,1,0,4.249,4.26A4.259,4.259,0,0,0,266.316,480.523Z" transform="translate(-4.367 -5.267)" fill="#fff"/>
    <path id="Path_1297" data-name="Path 1297" d="M301.52,472.222a1.988,1.988,0,0,1-.436.554,17.3,17.3,0,0,1-1.627.951.824.824,0,0,1-1.176-.287.836.836,0,0,1,.374-1.154c.537-.327,1.076-.655,1.638-.935C300.887,471.052,301.517,471.435,301.52,472.222Z" transform="translate(-10.322 -4.067)" fill="#fff"/>
    <path id="Path_1298" data-name="Path 1298" d="M274.392,471.158a4.3,4.3,0,0,1,.563.2c.549.306,1.1.61,1.632.944a.819.819,0,1,1-.785,1.438c-.593-.3-1.166-.651-1.735-1a.718.718,0,0,1-.313-.97C273.885,471.51,274.194,471.34,274.392,471.158Z" transform="translate(-6.462 -4.053)" fill="#fff"/>
    <path id="Path_1299" data-name="Path 1299" d="M286.945,465.37c0-.334-.015-.669,0-1a.755.755,0,0,1,.739-.773.737.737,0,0,1,.873.689,14.458,14.458,0,0,1,.008,2.178.741.741,0,0,1-.853.714.755.755,0,0,1-.769-.8c-.013-.334,0-.668,0-1Z" transform="translate(-8.552 -2.861)" fill="#fff"/>
    <path id="Path_1300" data-name="Path 1300" d="M294.364,468.987c-.71-.024-1.122-.622-.865-1.146a17.06,17.06,0,0,1,1.092-1.885.74.74,0,0,1,1.051-.2.73.73,0,0,1,.332,1.015,18.224,18.224,0,0,1-1.1,1.882C294.753,468.839,294.472,468.92,294.364,468.987Z" transform="translate(-9.573 -3.181)" fill="#fff"/>
    <path id="Path_1301" data-name="Path 1301" d="M280.271,465.642a1.908,1.908,0,0,1,.545.425,17.883,17.883,0,0,1,.953,1.626.827.827,0,0,1-.275,1.177.814.814,0,0,1-1.155-.361c-.331-.534-.656-1.074-.94-1.634C279.093,466.274,279.463,465.655,280.271,465.642Z" transform="translate(-7.347 -3.184)" fill="#fff"/>
    <path id="Path_1302" data-name="Path 1302" d="M257.915,451.53q-3.257,0-6.514,0a3.311,3.311,0,0,1-.647-.039.807.807,0,0,1,.012-1.584,3.351,3.351,0,0,1,.59-.035q6.573,0,13.146,0c.217,0,.493-.056.635.054.253.194.579.489.586.751s-.3.576-.543.783c-.133.114-.416.067-.632.068Q261.231,451.534,257.915,451.53Z" transform="translate(-2.75 -0.698)" fill="#fff"/>
    <path id="Path_1303" data-name="Path 1303" d="M257.917,456.113h-6.574a3.293,3.293,0,0,1-.532-.017.815.815,0,0,1-.1-1.593,2.082,2.082,0,0,1,.586-.047q6.633,0,13.267,0a2.262,2.262,0,0,1,.53.024.777.777,0,0,1,.671.844.761.761,0,0,1-.739.778,4.309,4.309,0,0,1-.532.012Z" transform="translate(-2.75 -1.421)" fill="#fff"/>
    <path id="Path_1304" data-name="Path 1304" d="M257.985,459.062q3.346,0,6.693,0c.727,0,1.072.259,1.086.8.013.553-.367.86-1.1.86q-6.752,0-13.5,0c-.5,0-.911-.137-1.044-.671s.276-.984.938-.987c2.132-.008,4.265,0,6.4,0Z" transform="translate(-2.747 -2.147)" fill="#fff"/>
  </g>
</svg>
