<svg id="Group_250" data-name="Group 250" xmlns="http://www.w3.org/2000/svg" width="82.131" height="75.148" viewBox="0 0 82.131 75.148">
  <g id="_820_Bulb_Pencil_Education" data-name="820, Bulb, Pencil, Education" transform="translate(0 0)">
    <g id="Group_193" data-name="Group 193">
      <g id="Group_192" data-name="Group 192">
        <g id="Group_176" data-name="Group 176" transform="translate(16.761 27.936)">
          <g id="Group_165" data-name="Group 165" transform="translate(4.33)">
            <path id="Path_564" data-name="Path 564" d="M82.284,73.131V83.607H75.3l-8.66-5.168,8.66-5.309Z" transform="translate(-66.64 -73.131)" fill="#ffd9e0"/>
          </g>
          <g id="Group_167" data-name="Group 167" transform="translate(19.974)">
            <g id="Group_166" data-name="Group 166">
              <path id="Path_565" data-name="Path 565" d="M112.865,73.131V83.607H77.944V73.131h34.92Z" transform="translate(-77.944 -73.131)" fill="#ffd9e0"/>
            </g>
          </g>
          <g id="Group_169" data-name="Group 169" transform="translate(54.894 0)">
            <g id="Group_168" data-name="Group 168">
              <path id="Path_566" data-name="Path 566" d="M110.442,74.667a5.16,5.16,0,0,1,1.536,3.772,5.306,5.306,0,0,1-5.309,5.307h-3.492V73.131h3.492A5.4,5.4,0,0,1,110.442,74.667Z" transform="translate(-103.178 -73.131)" fill="#f4324a"/>
            </g>
          </g>
          <g id="Group_170" data-name="Group 170" transform="translate(46.234 31.428)">
            <path id="Path_567" data-name="Path 567" d="M100.412,95.841a3.492,3.492,0,1,1-3.492,3.492A3.459,3.459,0,0,1,100.412,95.841Z" transform="translate(-96.92 -95.841)" fill="#ffd9e0"/>
          </g>
          <g id="Group_171" data-name="Group 171" transform="translate(30.451 19.136)">
            <path id="Path_568" data-name="Path 568" d="M91.661,86.959A6.146,6.146,0,1,1,85.515,93.1,6.146,6.146,0,0,1,91.661,86.959Z" transform="translate(-85.515 -86.959)" fill="#ffd9e0"/>
          </g>
          <g id="Group_173" data-name="Group 173" transform="translate(5.307 38.412)">
            <g id="Group_172" data-name="Group 172">
              <path id="Path_569" data-name="Path 569" d="M75.727,100.888v4.33a2.652,2.652,0,0,1-2.654,2.654H70a2.653,2.653,0,0,1-2.654-2.654v-4.33Z" transform="translate(-67.346 -100.888)" fill="#f4324a"/>
            </g>
          </g>
          <g id="Group_175" data-name="Group 175" transform="translate(0 26.259)">
            <g id="Group_174" data-name="Group 174">
              <path id="Path_570" data-name="Path 570" d="M82.507,92.106v9.359a2.865,2.865,0,0,1-2.934,2.934H66.443a2.864,2.864,0,0,1-2.932-2.934V92.106Z" transform="translate(-63.511 -92.106)" fill="#ffd9e0"/>
            </g>
          </g>
        </g>
        <g id="Group_191" data-name="Group 191">
          <g id="Group_190" data-name="Group 190">
            <g id="Group_177" data-name="Group 177" transform="translate(15.086 52.381)">
              <path id="Path_571" data-name="Path 571" d="M69.283,106.578H66.908a4.65,4.65,0,0,1-4.608-4.61V92.609a1.816,1.816,0,0,1,3.631,0v9.359a1.1,1.1,0,0,0,1.117,1.118h2.235A1.848,1.848,0,0,1,71.1,104.9,1.828,1.828,0,0,1,69.283,106.578Z" transform="translate(-62.3 -90.795)" fill="#f4324a"/>
            </g>
            <g id="Group_178" data-name="Group 178" transform="translate(28.634 52.24)">
              <path id="Path_572" data-name="Path 572" d="M76.28,106.617H73.906a1.816,1.816,0,1,1,0-3.631H76.28a1.1,1.1,0,0,0,1.118-1.117V92.51a1.816,1.816,0,1,1,3.631,0v9.359A4.894,4.894,0,0,1,76.28,106.617Z" transform="translate(-72.09 -90.693)" fill="#f4324a"/>
            </g>
            <g id="Group_179" data-name="Group 179" transform="translate(20.253 64.533)">
              <path id="Path_573" data-name="Path 573" d="M73.576,110.192a1.9,1.9,0,0,1-1.536-.839,1.6,1.6,0,0,1-1.536.839,4.5,4.5,0,0,1-4.47-4.47v-4.33a1.85,1.85,0,0,1,1.816-1.816H76.23a1.849,1.849,0,0,1,1.816,1.816v4.33A4.6,4.6,0,0,1,73.576,110.192Zm-3.911-6.984v2.515a.955.955,0,0,0,.978.978,1.89,1.89,0,0,1,1.536.837,1.6,1.6,0,0,1,1.537-.837.955.955,0,0,0,.977-.978v-2.515Z" transform="translate(-66.034 -99.576)" fill="#f4324a"/>
            </g>
            <g id="Group_180" data-name="Group 180">
              <path id="Path_574" data-name="Path 574" d="M87.157,108.815H68.3A1.847,1.847,0,0,1,66.485,107v-4.19a26.171,26.171,0,1,1,36.735-29.334,25.28,25.28,0,0,1,.559,5.587V80.88a1.747,1.747,0,1,1-3.491-.14V79.063a19.443,19.443,0,0,0-.559-4.888,22.753,22.753,0,0,0-44.977,4.888,22.513,22.513,0,0,0,13.969,20.953,1.684,1.684,0,0,1,1.117,1.676v3.633H85.2v-3.633a1.815,1.815,0,0,1,1.117-1.676,22.861,22.861,0,0,0,10.9-9.639,1.751,1.751,0,1,1,3.074,1.677,26.28,26.28,0,0,1-11.454,10.616v4.189A1.868,1.868,0,0,1,87.157,108.815Z" transform="translate(-51.399 -52.944)" fill="#f4324a"/>
            </g>
            <g id="Group_181" data-name="Group 181" transform="translate(34.919 25.981)">
              <path id="Path_575" data-name="Path 575" d="M116.86,85.965H78.448a1.816,1.816,0,0,1,0-3.631H116.86a3.46,3.46,0,0,0,3.493-3.493,4.014,4.014,0,0,0-.978-2.513,3.363,3.363,0,0,0-2.514-.978H78.448a1.816,1.816,0,0,1,0-3.631H116.86a6.556,6.556,0,0,1,4.889,2.094,7.112,7.112,0,0,1-4.889,12.153Z" transform="translate(-76.632 -71.718)" fill="#f4324a"/>
            </g>
            <g id="Group_182" data-name="Group 182" transform="translate(19.276 25.981)">
              <path id="Path_576" data-name="Path 576" d="M82.787,85.965H75.8a2,2,0,0,1-.839-.278l-8.8-5.309a1.606,1.606,0,0,1-.837-1.537,1.75,1.75,0,0,1,.837-1.536L74.965,72a1.968,1.968,0,0,1,.839-.28h6.983A1.848,1.848,0,0,1,84.6,73.534V84.01A1.882,1.882,0,0,1,82.787,85.965Zm-6.564-3.493h4.748V75.489H76.223l-5.868,3.493Z" transform="translate(-65.328 -71.718)" fill="#f4324a"/>
            </g>
            <g id="Group_183" data-name="Group 183" transform="translate(69.84 26.119)">
              <path id="Path_577" data-name="Path 577" d="M103.682,85.927a1.85,1.85,0,0,1-1.816-1.816V73.635a1.816,1.816,0,1,1,3.631,0V84.111A1.849,1.849,0,0,1,103.682,85.927Z" transform="translate(-101.866 -71.818)" fill="#f4324a"/>
            </g>
            <g id="Group_184" data-name="Group 184" transform="translate(26.259 1.676)">
              <path id="Path_578" data-name="Path 578" d="M107.11,75.247H72.19a1.816,1.816,0,0,1,0-3.633H107.11a6.983,6.983,0,1,0-6.983-6.982,1.816,1.816,0,0,1-3.633,0A10.477,10.477,0,1,1,107.11,75.247Z" transform="translate(-70.374 -54.155)" fill="#f4324a"/>
            </g>
            <g id="Group_185" data-name="Group 185" transform="translate(12.292 13.829)">
              <path id="Path_579" data-name="Path 579" d="M76.064,66.568H62.1a1.816,1.816,0,1,1,0-3.631H76.064a1.849,1.849,0,0,1,1.817,1.816A2.073,2.073,0,0,1,76.064,66.568Z" transform="translate(-60.281 -62.937)" fill="#f4324a"/>
            </g>
            <g id="Group_186" data-name="Group 186" transform="translate(15.643 8.66)">
              <path id="Path_580" data-name="Path 580" d="M69.827,62.833H64.52a1.816,1.816,0,1,1,0-3.631h5.307a1.816,1.816,0,1,1,0,3.631Z" transform="translate(-62.703 -59.202)" fill="#f4324a"/>
            </g>
            <g id="Group_187" data-name="Group 187" transform="translate(1.816 71.516)">
              <path id="Path_581" data-name="Path 581" d="M126.042,108.255H54.527a1.816,1.816,0,0,1,0-3.633h71.516a1.816,1.816,0,1,1,0,3.633Z" transform="translate(-52.711 -104.622)" fill="#f4324a"/>
            </g>
            <g id="Group_188" data-name="Group 188" transform="translate(45.535 45.536)">
              <path id="Path_582" data-name="Path 582" d="M92.126,101.492a7.822,7.822,0,1,1,0-15.643,7.691,7.691,0,0,1,7.822,7.682A7.93,7.93,0,0,1,92.126,101.492Zm0-12.292a4.33,4.33,0,1,0,4.329,4.33A4.353,4.353,0,0,0,92.126,89.2Z" transform="translate(-84.303 -85.849)" fill="#f4324a"/>
            </g>
            <g id="Group_189" data-name="Group 189" transform="translate(61.179 57.548)">
              <path id="Path_583" data-name="Path 583" d="M100.915,105.145a5.308,5.308,0,1,1,5.309-5.309A5.4,5.4,0,0,1,100.915,105.145Zm0-6.984a1.821,1.821,0,1,0,1.677,1.676A1.7,1.7,0,0,0,100.915,98.16Z" transform="translate(-95.608 -94.529)" fill="#f4324a"/>
            </g>
          </g>
        </g>
      </g>
    </g>
  </g>
</svg>
