<svg xmlns="http://www.w3.org/2000/svg" width="48.33" height="48.337" viewBox="0 0 48.33 48.337">
  <g id="Group_12366" data-name="Group 12366" transform="translate(-332.002 -447.297)">
    <path id="Path_1305" data-name="Path 1305" d="M353.607,485.665a8.406,8.406,0,0,0-1.229.018.911.911,0,0,0-.494.383c-2.1,2.941-4.209,5.882-6.284,8.845a1.484,1.484,0,0,1-1.415.721c-1.036-.043-2.078.015-3.115-.029a.735.735,0,0,1-.631-1.268c1.9-2.7,3.838-5.39,5.764-8.081.1-.14.195-.285.353-.516h-.6q-4.065,0-8.13,0a3.385,3.385,0,0,1-3.648-3.641q0-14.481,0-28.962v-.7c-.433,0-.832.007-1.23,0-.692-.016-.94-.263-.943-.945q-.007-1.655,0-3.31c0-.643.233-.874.884-.876,2-.006,3.993,0,5.988,0h40.164c.211,0,.423-.007.633.012a.633.633,0,0,1,.643.66c.015,1.249.019,2.5,0,3.747-.007.471-.334.685-.775.705-.4.019-.8,0-1.253,0v.694q0,14.481,0,28.962a3.319,3.319,0,0,1-2.4,3.425,4.5,4.5,0,0,1-1.2.15c-2.711.013-5.421.007-8.131.007h-.627c.143.212.234.353.331.49q2.872,4.048,5.74,8.1a1.834,1.834,0,0,1,.307.6c.1.4-.239.754-.736.76-1.266.017-2.533.035-3.8-.018a1.2,1.2,0,0,1-.746-.516c-2.084-2.9-4.161-5.8-6.2-8.726a1.289,1.289,0,0,0-1.38-.689,3.883,3.883,0,0,1-.567,0v.573q0,4.162,0,8.324c0,.835-.226,1.057-1.073,1.059q-1.582,0-3.165,0c-.823,0-1.044-.217-1.045-1.03q0-4.138,0-8.275Zm-17.984-33.211v.381q0,14.7,0,29.4a2.13,2.13,0,0,0,.074.574,1.906,1.906,0,0,0,2.115,1.333h36.7a5.31,5.31,0,0,0,.583-.021,1.8,1.8,0,0,0,1.569-1.449,6.583,6.583,0,0,0-.037-.958q0-14.309,0-28.618v-.638Zm-2.169-1.565h45.359v-2.124H333.454ZM357.285,485.7h-2.214v8.455h2.214Zm-6.937-.037c-.558,0-1.03.017-1.5-.005a.738.738,0,0,0-.723.354c-1.815,2.589-3.647,5.166-5.473,7.748-.08.112-.147.234-.273.435a4.67,4.67,0,0,1,.748.006,1.715,1.715,0,0,0,1.881-.959C346.718,490.722,348.511,488.256,350.348,485.665Zm19.578,8.529a1.686,1.686,0,0,0-.1-.235q-2.851-4.032-5.709-8.059a.525.525,0,0,0-.336-.223c-.56-.024-1.122-.011-1.715-.011a.835.835,0,0,0,.06.181q2.877,4.073,5.762,8.14a.472.472,0,0,0,.3.2C368.752,494.2,369.313,494.194,369.926,494.194Z" fill="#fff"/>
    <path id="Path_1306" data-name="Path 1306" d="M352.328,483.152a11.408,11.408,0,1,1,11.42-11.377A11.466,11.466,0,0,1,352.328,483.152Zm5.285-2.966c-.841-.84-1.648-1.657-2.473-2.455a.531.531,0,0,0-.42-.05,14.692,14.692,0,0,1-1.687.432,6.341,6.341,0,0,1-2.794-12.286c.452-.162.926-.26,1.382-.385v-3.548a9.955,9.955,0,0,0-8.662,6.629,9.824,9.824,0,0,0,3.4,11.2A9.96,9.96,0,0,0,357.613,480.186Zm-5.261-13.346a5,5,0,0,0-4.914,4.953,4.91,4.91,0,1,0,4.914-4.953Zm.764-1.478a1.162,1.162,0,0,0,.192.077,6.254,6.254,0,0,1,5.347,5.3c.018.1.146.246.225.247,1.129.016,2.258.012,3.389.012a9.947,9.947,0,0,0-9.153-9.171Zm3.309,11.392,2.5,2.476a9.97,9.97,0,0,0,3.384-6.806c-1.167,0-2.281-.008-3.394.013-.095,0-.226.184-.271.307A11.318,11.318,0,0,1,358,474.56,25.557,25.557,0,0,1,356.425,476.754Z" transform="translate(-2.37 -3.461)" fill="#fff"/>
    <path id="Path_1307" data-name="Path 1307" d="M380.523,470.518c1.509,0,3.017,0,4.526,0a.814.814,0,0,1,.837.462.724.724,0,0,1-.472,1.007,1.78,1.78,0,0,1-.48.052q-4.428,0-8.856,0c-.613,0-.9-.182-.975-.593-.1-.544.259-.923.9-.925C377.507,470.514,379.015,470.518,380.523,470.518Z" transform="translate(-11.435 -6.163)" fill="#fff"/>
    <path id="Path_1308" data-name="Path 1308" d="M380.5,480.568q-2.24,0-4.479,0c-.621,0-.926-.253-.925-.746s.313-.765.92-.765q4.5-.008,9.006,0c.628,0,.928.256.927.746s-.342.765-.971.766Q382.738,480.572,380.5,480.568Z" transform="translate(-11.437 -8.428)" fill="#fff"/>
    <path id="Path_1309" data-name="Path 1309" d="M380.471,463.5c-1.493,0-2.986,0-4.479,0-.6,0-.887-.234-.9-.715s.3-.777.9-.778q4.527-.008,9.054,0c.6,0,.889.239.9.716s-.311.776-.9.778C383.521,463.5,382,463.5,380.471,463.5Z" transform="translate(-11.437 -3.902)" fill="#fff"/>
    <path id="Path_1310" data-name="Path 1310" d="M380.486,489.2q-2.239,0-4.478,0c-.622,0-.921-.252-.913-.749.007-.47.312-.745.884-.746q4.552-.008,9.1,0c.584,0,.875.27.867.749s-.33.743-.887.745C383.537,489.2,382.011,489.2,380.486,489.2Z" transform="translate(-11.437 -10.723)" fill="#fff"/>
  </g>
</svg>
