<svg xmlns="http://www.w3.org/2000/svg" width="54.07" height="54.094" viewBox="0 0 54.07 54.094">
  <g id="Group_12370" data-name="Group 12370" transform="translate(-34.195 -447.48)">
    <path id="Path_1274" data-name="Path 1274" d="M68.494,494.117l1.245,4.362c1.173,0,2.315,0,3.458,0,.817,0,1.11.3,1.114,1.12,0,.745.008,1.49,0,2.235a.888.888,0,0,1-1.009,1q-12.071,0-24.141,0a.887.887,0,0,1-1.007-1.006q-.014-1.173,0-2.344a.887.887,0,0,1,1-1.007c1.18-.008,2.359,0,3.567,0l1.245-4.362h-16.4a3.083,3.083,0,0,1-3.37-3.392q0-16.246,0-32.492a3.082,3.082,0,0,1,3.384-3.376h47.3a3.082,3.082,0,0,1,3.384,3.377q0,16.247,0,32.492a3.086,3.086,0,0,1-3.371,3.391h-16.4Zm18.027-7.006v-.5q0-14.2,0-28.4c0-1.135-.479-1.6-1.635-1.6h-47.3c-1.183,0-1.644.462-1.644,1.65q0,14.148,0,28.294v.565Zm-50.581,1.8v1.644c0,1.421.4,1.821,1.8,1.821H84.709c.2,0,.4.009.6-.009a1.194,1.194,0,0,0,1.151-.99c.072-.819.019-1.649.019-2.466Zm18.609,9.543H67.913l-1.233-4.317h-10.9Zm17.994,1.809H49.916v.808H72.543Z" transform="translate(0 -1.268)" fill="#fff"/>
    <path id="Path_1275" data-name="Path 1275" d="M64.934,452.716c-3.4,0-6.79.009-10.185-.012a2.853,2.853,0,0,1-1.138-.271c-1-.463-1.982-.982-2.974-1.471a.9.9,0,0,1,0-1.728c1.041-.513,2.071-1.047,3.119-1.543a2.144,2.144,0,0,1,.883-.2q10.239-.016,20.478-.007a2.621,2.621,0,1,1,0,5.233Q70.026,452.722,64.934,452.716ZM57,450.971H75.03a1.712,1.712,0,0,0,.433-.024.835.835,0,0,0,.684-.811.79.79,0,0,0-.563-.839,2.048,2.048,0,0,0-.643-.068q-8.684,0-17.369,0H57Zm-1.808-.016v-1.717c-.926-.108-1.519.527-2.253.864C53.678,450.43,54.27,451.08,55.19,450.956Z" transform="translate(-2.717)" fill="#fff"/>
    <path id="Path_1276" data-name="Path 1276" d="M54.129,479.231a20.535,20.535,0,0,1-2.155-1.121,6.921,6.921,0,0,1-2.589-8.185,6.96,6.96,0,0,1,13.421,1.524,6.717,6.717,0,0,1-1.992,5.86.646.646,0,0,0-.132.919c.689,1.318,1.341,2.657,2,3.991.453.918.1,1.492-.927,1.494q-4.087,0-8.174,0c-1.045,0-1.4-.582-.925-1.532C53.146,481.19,53.644,480.2,54.129,479.231Zm5.489-3.158c.224-.265.387-.436.525-.625a5.227,5.227,0,1,0-5.527,2,.4.4,0,0,0,.542-.257c.532-1.093,1.088-2.175,1.624-3.266a.909.909,0,0,1,1.751-.012C58.873,474.6,59.227,475.294,59.618,476.072Zm-.6,2.714c-.978.2-1.862.376-2.743.562-.113.024-.272.066-.316.15-.415.8-.81,1.607-1.217,2.425h5.846Zm-1.358-2.715-.729,1.473,1.24-.437Z" transform="translate(-2.534 -3.079)" fill="#fff"/>
    <path id="Path_1277" data-name="Path 1277" d="M69.808,468.093l1.62.475q4.094,1.2,8.188,2.4c.932.275,1.1.593.827,1.52q-1.376,4.7-2.753,9.391c-.26.888-.6,1.072-1.486.812q-4.747-1.391-9.492-2.783c-.773-.227-.987-.613-.759-1.391q1.4-4.8,2.814-9.6A.979.979,0,0,1,69.808,468.093Zm8.82,4.4L70.26,470.04c-.83,2.83-1.637,5.584-2.454,8.371l8.364,2.453Z" transform="translate(-5.444 -3.543)" fill="#fff"/>
    <path id="Path_1278" data-name="Path 1278" d="M41.066,461.178c.527,0,1.054-.007,1.581,0a.881.881,0,0,1,.99.968q.017,1.636,0,3.271a.88.88,0,0,1-.968.99q-1.635.017-3.269,0a.876.876,0,0,1-.989-.968q-.017-1.635,0-3.271c.007-.67.335-.981,1.021-.99C39.976,461.172,40.521,461.178,41.066,461.178Zm.8,3.466v-1.688H40.19v1.688Z" transform="translate(-0.723 -2.354)" fill="#fff"/>
    <path id="Path_1279" data-name="Path 1279" d="M94.19,463.847c0,.545.012,1.091,0,1.635a.857.857,0,0,1-.92.924q-1.689.024-3.379,0a.852.852,0,0,1-.923-.92q-.022-1.689,0-3.38a.851.851,0,0,1,.919-.923q1.688-.022,3.379,0a.856.856,0,0,1,.924.919C94.2,462.683,94.19,463.265,94.19,463.847Zm-1.754-.889H90.742v1.665h1.693Z" transform="translate(-9.413 -2.354)" fill="#fff"/>
    <path id="Path_1280" data-name="Path 1280" d="M43.639,471.193c0,.545.011,1.091,0,1.635a.87.87,0,0,1-.947.955q-1.662.02-3.324,0a.864.864,0,0,1-.953-.947q-.02-1.662,0-3.326a.863.863,0,0,1,.946-.953q1.662-.02,3.325,0a.869.869,0,0,1,.955.947C43.65,470.066,43.639,470.63,43.639,471.193Zm-3.456-.87v1.684h1.673v-1.684Z" transform="translate(-0.723 -3.622)" fill="#fff"/>
    <path id="Path_1281" data-name="Path 1281" d="M94.19,471.223c0,.546.012,1.091,0,1.635a.858.858,0,0,1-.922.923q-1.689.022-3.379,0a.851.851,0,0,1-.921-.922q-.022-1.691,0-3.38a.85.85,0,0,1,.921-.922q1.689-.022,3.379,0a.856.856,0,0,1,.922.922C94.2,470.06,94.19,470.642,94.19,471.223Zm-3.45-.9V472h1.679v-1.677Z" transform="translate(-9.413 -3.621)" fill="#fff"/>
    <path id="Path_1282" data-name="Path 1282" d="M43.64,478.519c0,.564.011,1.127,0,1.69a.869.869,0,0,1-.953.949q-1.662.019-3.325,0a.864.864,0,0,1-.947-.953q-.019-1.662,0-3.326a.862.862,0,0,1,.951-.947q1.662-.019,3.324,0a.875.875,0,0,1,.951.951c0,.018,0,.036,0,.055Zm-1.755-.812H40.192v1.665h1.693Z" transform="translate(-0.723 -4.889)" fill="#fff"/>
    <path id="Path_1283" data-name="Path 1283" d="M91.575,475.929c.563,0,1.126-.012,1.689,0a.857.857,0,0,1,.921.923q.022,1.689,0,3.379a.853.853,0,0,1-.922.922q-1.688.022-3.379,0a.851.851,0,0,1-.92-.922q-.022-1.691,0-3.38a.855.855,0,0,1,.922-.922C90.448,475.917,91.012,475.929,91.575,475.929Zm.862,1.777h-1.7v1.669h1.7Z" transform="translate(-9.413 -4.89)" fill="#fff"/>
    <path id="Path_1284" data-name="Path 1284" d="M38.409,485.92c0-.564-.012-1.127,0-1.69a.855.855,0,0,1,.922-.922q1.689-.021,3.379,0a.852.852,0,0,1,.922.922q.024,1.689,0,3.38a.852.852,0,0,1-.922.922q-1.689.024-3.379,0a.856.856,0,0,1-.922-.922C38.4,487.047,38.409,486.483,38.409,485.92Zm1.786-.853v1.7h1.667v-1.7Z" transform="translate(-0.724 -6.157)" fill="#fff"/>
    <path id="Path_1285" data-name="Path 1285" d="M91.575,483.3c.563,0,1.127-.012,1.689,0a.857.857,0,0,1,.92.924q.022,1.689,0,3.38a.854.854,0,0,1-.923.921q-1.689.021-3.379,0a.851.851,0,0,1-.919-.923q-.022-1.691,0-3.38a.855.855,0,0,1,.922-.921C90.448,483.292,91.012,483.3,91.575,483.3Zm-.836,1.77v1.678h1.68v-1.678Z" transform="translate(-9.413 -6.158)" fill="#fff"/>
  </g>
</svg>
