<svg xmlns="http://www.w3.org/2000/svg" width="55.547" height="53.572" viewBox="0 0 55.547 53.572">
  <g id="Group_12371" data-name="Group 12371" transform="translate(-137.943 -450.502)">
    <g id="Group_287" data-name="Group 287" transform="translate(137.944 450.502)">
      <path id="Path_1286" data-name="Path 1286" d="M172.941,491.264v5.666c.453,0,.89,0,1.327,0a6.079,6.079,0,0,1,6.277,5.878c.067.937-.226,1.265-1.149,1.265H152.014c-.868,0-1.18-.329-1.135-1.177a6.1,6.1,0,0,1,6.253-5.966c.439,0,.879,0,1.348,0v-5.666H143.105a4.8,4.8,0,0,1-5.16-5.168q0-15.328,0-30.656a4.753,4.753,0,0,1,3.93-4.869,5.742,5.742,0,0,1,1.05-.067q22.8,0,45.6,0a4.735,4.735,0,0,1,4.958,4.959q.007,15.411,0,30.822a4.775,4.775,0,0,1-5.014,4.977q-7.416.009-14.83,0Zm18.773-10.712c.009-.207.024-.387.024-.567q0-12.219,0-24.437a3.039,3.039,0,0,0-3.357-3.327q-22.665,0-45.328-.015a3.228,3.228,0,0,0-3.381,3.4c.051,8.109.021,16.218.021,24.327v.624Zm-.005,1.786H139.693c0,1.146-.007,2.254,0,3.362a7.318,7.318,0,0,0,.085,1.491A3.005,3.005,0,0,0,143,489.515h45.44c.186,0,.371,0,.556-.011a2.906,2.906,0,0,0,2.694-2.529C191.782,485.448,191.709,483.91,191.709,482.338Zm-39.037,19.98h26.06c-.032-.185-.043-.329-.081-.465a4.381,4.381,0,0,0-4.359-3.2c-5.719-.012-11.438-.018-17.158.014a5.141,5.141,0,0,0-1.983.426A4.2,4.2,0,0,0,152.672,502.318Zm7.619-5.428h10.85v-5.6h-10.85Z" transform="translate(-137.944 -450.502)" fill="#fff"/>
      <path id="Path_1287" data-name="Path 1287" d="M168.366,490.341c-.739,0-1.478.009-2.216,0-.636-.01-1-.331-1-.861s.353-.88.98-.886q2.243-.018,4.487,0c.637,0,1,.333,1.007.862.006.551-.366.879-1.037.887C169.844,490.348,169.1,490.341,168.366,490.341Z" transform="translate(-140.609 -454.233)" fill="#fff"/>
    </g>
    <g id="Group_288" data-name="Group 288" transform="translate(146.102 456.334)">
      <path id="Path_1288" data-name="Path 1288" d="M146.988,458.39c.039-.088.08-.176.116-.265a1.75,1.75,0,0,1,1.66-1.153q6.109-.007,12.216,0a1.757,1.757,0,0,1,1.785,1.869c.014,1.139,0,2.278,0,3.416v4.1h6.455v-.453q0-3.489,0-6.981a1.8,1.8,0,0,1,1.376-1.907,2.343,2.343,0,0,1,.551-.049q5.96,0,11.919,0a1.789,1.789,0,0,1,1.937,1.945q0,4.27,0,8.54a1.788,1.788,0,0,1-1.933,1.948q-4.345.007-8.689,0h-.5v.458q0,3.472,0,6.943a1.8,1.8,0,0,1-2.013,2.014H160.1a1.793,1.793,0,0,1-1.99-2q0-3.453,0-6.906v-.491c-.162-.007-.3-.019-.448-.02-2.822,0-5.644-.025-8.465.013a2.011,2.011,0,0,1-2.211-1.449Zm30.136,9.827q2.951,0,5.9,0c.6,0,.8-.2.8-.8q0-4.212,0-8.425c0-.649-.182-.829-.842-.829H171.251c-.657,0-.836.177-.836.837q0,4.193,0,8.387c0,.652.186.833.844.834ZM154.9,458.157H149c-.634,0-.82.184-.821.811v8.426c0,.634.183.821.814.821q5.883,0,11.766,0c.635,0,.821-.183.821-.815q0-4.212,0-8.425c0-.639-.181-.819-.814-.819Zm14.3,9.445h-6.4c-.32,1.4-.824,1.8-2.249,1.8H159.33v6.534c.125-.165.207-.269.284-.377q1.005-1.4,2.01-2.8c.4-.556.8-.555,1.2,0q1.084,1.506,2.161,3.015c.069.095.145.183.232.293,1.226-1.712,2.426-3.392,3.63-5.068.383-.535.8-.539,1.179-.007q1.192,1.655,2.378,3.315c.074.1.152.2.267.352V469.4c-.593,0-1.16.015-1.726,0a1.764,1.764,0,0,1-1.653-1.312C169.25,467.932,169.234,467.772,169.2,467.6Zm.235,4.639c-.091.117-.169.21-.239.309-1.015,1.415-2.031,2.829-3.036,4.25a.561.561,0,0,0-.113.437.551.551,0,0,0,.542.405c1.791-.021,3.583-.012,5.374-.008a.634.634,0,0,0,.655-.322.719.719,0,0,0-.092-.792c-.966-1.328-1.918-2.666-2.876-4C169.592,472.432,169.522,472.349,169.438,472.241Zm-9.822,5.363h5.214l-2.608-3.637Z" transform="translate(-146.988 -456.968)" fill="#fff"/>
      <path id="Path_1289" data-name="Path 1289" d="M178.163,460.419a2.445,2.445,0,0,1,.332.143q2.058,1.181,4.109,2.371c.591.345.583.846-.015,1.192q-2.035,1.181-4.077,2.352c-.593.34-1.036.092-1.039-.588q-.009-2.375,0-4.749C177.474,460.671,177.7,460.412,178.163,460.419Zm.518,4.589,2.57-1.485-2.57-1.482Z" transform="translate(-149.974 -457.306)" fill="#fff"/>
      <path id="Path_1290" data-name="Path 1290" d="M158.319,463.874v-1.468h-4c0,.143,0,.285,0,.428,0,1.1.015,2.2-.021,3.3a1.5,1.5,0,0,1-1.045,1.4,1.646,1.646,0,0,1-2.161-2.006,1.56,1.56,0,0,1,1.282-1.146c.228-.042.464-.047.737-.072.006-.127.017-.258.017-.39,0-1.311,0-2.622,0-3.934,0-.661.183-.846.832-.847q2.395,0,4.788,0c.548,0,.77.2.772.719.007,1.88.015,3.761,0,5.64a1.62,1.62,0,0,1-1.451,1.649,1.647,1.647,0,1,1-.347-3.274C157.905,463.863,158.09,463.874,158.319,463.874Zm-.013-2.689v-.828h-3.952v.828Zm-5.21,4.35c-.318,0-.663-.091-.816.265a.442.442,0,0,0,.615.577C153.228,466.2,153.14,465.866,153.1,465.534Zm5.216-.438c-.585-.087-.864.035-.9.378a.455.455,0,0,0,.47.493C158.236,465.958,158.365,465.7,158.312,465.1Z" transform="translate(-147.382 -457.18)" fill="#fff"/>
      <path id="Path_1291" data-name="Path 1291" d="M165.085,471.561a1.837,1.837,0,0,1,1.856-1.854,1.854,1.854,0,1,1-1.856,1.854Zm1.847-.66a.643.643,0,0,0-.657.65.652.652,0,0,0,.641.669.677.677,0,0,0,.686-.672A.671.671,0,0,0,166.932,470.9Z" transform="translate(-148.761 -458.216)" fill="#fff"/>
    </g>
  </g>
</svg>
