<svg xmlns="http://www.w3.org/2000/svg" width="54.07" height="54.924" viewBox="0 0 54.07 54.924">
  <g id="Group_12367" data-name="Group 12367" transform="translate(-330.563 -334.018)">
    <path id="Path_1263" data-name="Path 1263" d="M354.7,388.942a1.272,1.272,0,0,1-.544-1.244c.037-.5.008-1,.008-1.471-11.583-2.351-18.526-9.286-20.887-20.885-.535,0-1.124.007-1.712,0-.672-.01-.994-.319-1-.983q-.012-2.44,0-4.879c0-.691.322-.992,1.034-1,.571-.006,1.142,0,1.73,0,1.622-9.061,6.614-15.476,15.118-19.308h-1.795c-1.412,0-2.824.007-4.236-.006a.552.552,0,0,0-.58.334,2.506,2.506,0,0,1-2.889,1.3,2.569,2.569,0,1,1,2.9-3.7.688.688,0,0,0,.445.339c3.681.018,7.362.015,11.079.015a4.406,4.406,0,0,1,1.945-2.778,4.275,4.275,0,0,1,2.5-.653c1.871.073,3.25,1.238,4.015,3.431h1.052c3.272,0,6.543,0,9.814.006a.657.657,0,0,0,.7-.4,2.5,2.5,0,0,1,2.871-1.233,2.566,2.566,0,0,1-.024,4.976,2.58,2.58,0,0,1-2.881-1.249.739.739,0,0,0-.477-.366c-2-.025-4-.017-6.144-.017,8.482,3.815,13.476,10.218,15.112,19.308.566,0,1.15,0,1.733,0,.732.007,1.036.311,1.038,1.051q.007,2.387,0,4.772c0,.732-.312,1.032-1.051,1.039-.571.005-1.142,0-1.661,0-2.357,11.58-9.282,18.509-20.886,20.889,0,.44-.029.955.009,1.466a1.279,1.279,0,0,1-.545,1.245Zm25.375-30.464a22.8,22.8,0,0,0-18.34-18.929,4.341,4.341,0,0,1-8.278,0,22.8,22.8,0,0,0-18.339,18.928c.491,0,.917-.008,1.343,0a.864.864,0,0,1,.965.96q.014,2.466,0,4.933a.867.867,0,0,1-.959.967c-.426.01-.852,0-1.347,0a22.644,22.644,0,0,0,19.044,19.045c0-.494-.008-.921,0-1.346a.863.863,0,0,1,.964-.961q2.466-.013,4.933,0a.866.866,0,0,1,.964.963c.01.426,0,.852,0,1.344a22.635,22.635,0,0,0,19.044-19.044c-.5,0-.923.009-1.348,0a.866.866,0,0,1-.957-.969q-.013-2.466,0-4.933a.863.863,0,0,1,.966-.958C379.16,358.47,379.586,358.478,380.077,358.478Zm-22.47-17.6a2.572,2.572,0,1,0-2.582-2.589A2.582,2.582,0,0,0,357.607,340.881ZM335.687,363.6v-3.376H332.32V363.6Zm47.206-3.368h-3.385v3.36h3.385ZM355.92,383.817v3.366h3.367v-3.366Zm-16.384-44.653a.856.856,0,1,0-.813-.883A.869.869,0,0,0,339.535,339.165Zm36.064-1.709a.855.855,0,1,0,.874.821A.862.862,0,0,0,375.6,337.456Z" fill="#fff"/>
    <path id="Path_1264" data-name="Path 1264" d="M360.049,378.46q-3.7,0-7.4,0c-.957,0-1.306-.474-1.009-1.373.449-1.356.895-2.712,1.368-4.059a1.324,1.324,0,0,0-.068-1.069c-.995-2.194-1.958-4.4-2.951-6.6a1.4,1.4,0,0,1-.017-1.224q3.771-8.754,7.509-17.52a1.111,1.111,0,0,1,1.188-.774c.983.029,1.966.021,2.95,0a1,1,0,0,1,1.047.66q3.8,8.886,7.592,17.776a1.44,1.44,0,0,1-.049,1.011c-.974,2.262-2,4.5-2.975,6.763a1.417,1.417,0,0,0-.041.9c.427,1.38.906,2.744,1.36,4.117.3.9-.045,1.382-.995,1.384Q363.8,378.463,360.049,378.46Zm-.826-30.844-.167-.1a4.286,4.286,0,0,0-.306.513q-3.5,8.139-6.97,16.287a1.112,1.112,0,0,0,0,.791c.877,2.031,1.792,4.045,2.679,6.072a.582.582,0,0,0,.627.42q5.014-.021,10.025,0a.582.582,0,0,0,.63-.416c.885-2.027,1.8-4.041,2.678-6.072a1.121,1.121,0,0,0,0-.791c-.786-1.895-1.605-3.776-2.414-5.662q-2.287-5.336-4.58-10.671a2.843,2.843,0,0,0-.316-.465l-.125.084v12.469a4.3,4.3,0,1,1-5.061,5.193,4.21,4.21,0,0,1,.358-2.917,4.346,4.346,0,0,1,2.947-2.273Zm7.4,29.11c-.366-1.1-.705-2.147-1.076-3.185a.514.514,0,0,0-.4-.221q-5.061-.018-10.121,0a.471.471,0,0,0-.371.194c-.372,1.055-.717,2.119-1.08,3.213Zm-6.559-15a2.572,2.572,0,1,0,2.6,2.568A2.58,2.58,0,0,0,360.063,361.728Z" transform="translate(-2.498 -1.532)" fill="#fff"/>
  </g>
</svg>
