<svg id="Group_12365" data-name="Group 12365" xmlns="http://www.w3.org/2000/svg" width="37.154" height="60.959" viewBox="0 0 37.154 60.959">
  <path id="Path_1258" data-name="Path 1258" d="M283.508,330.56c.359.1.721.185,1.076.294a6.446,6.446,0,0,1,4.513,5.951c.013.476.007.952.007,1.429q0,23.3,0,46.6a6.4,6.4,0,0,1-4.961,6.494,7.492,7.492,0,0,1-1.708.18q-11.905.017-23.811.006a6.429,6.429,0,0,1-6.669-6.681q-.005-23.746,0-47.494a6.408,6.408,0,0,1,5.446-6.694.574.574,0,0,0,.151-.086Zm4.168,30.513q0-11.963,0-23.926a4.955,4.955,0,0,0-4.37-5.1,14.384,14.384,0,0,0-2.5-.035.888.888,0,0,0-.617.384c-.467.783-.873,1.6-1.311,2.4a4.407,4.407,0,0,1-4.123,2.435c-2.421,0-4.849-.118-7.261.032-2.867.178-4.873-.877-5.893-3.57a2.453,2.453,0,0,0-2.839-1.744c-3.292.146-5.381,2.134-5.381,5.439q0,23.659,0,47.317a5.027,5.027,0,0,0,5.389,5.388h23.454c3.381,0,5.45-2.068,5.451-5.446Zm-25.393-29.067c.509.907.93,1.76,1.447,2.548a2.694,2.694,0,0,0,2.325,1.235c2.977.021,5.953.017,8.93,0a2.556,2.556,0,0,0,2.143-.992c.616-.856,1.094-1.809,1.676-2.794Z" transform="translate(-251.952 -330.56)" fill="#fff"/>
  <path id="Path_1259" data-name="Path 1259" d="M271.413,346.995H282.1a1.88,1.88,0,0,1,2.09,2.063q0,6.4,0,12.8a1.883,1.883,0,0,1-2.042,2.066q-10.762,0-21.526,0a1.865,1.865,0,0,1-2.036-2.012q-.005-6.451,0-12.9a1.874,1.874,0,0,1,2.04-2.013Q266.018,346.992,271.413,346.995Zm-1.168,8.465-10.384-6.684v13.369Zm2.29,0,10.375,6.678V348.78Zm-11.161-7.2c.242.165.38.265.522.356,3,1.935,6.014,3.863,9.01,5.811a.736.736,0,0,0,.951.012c2.85-1.859,5.716-3.692,8.576-5.535.3-.19.586-.387.977-.645Zm0,14.387h20.031c-3.335-2.146-6.57-4.231-9.814-6.3a.579.579,0,0,0-.491.051c-.7.427-1.392.884-2.086,1.329Z" transform="translate(-252.809 -332.686)" fill="#fff"/>
  <path id="Path_1260" data-name="Path 1260" d="M270.56,374.736c0,1.582,0,3.164,0,4.746a1.477,1.477,0,0,1-1.652,1.657q-4.333.005-8.668,0a1.474,1.474,0,0,1-1.656-1.651q-.005-4.746,0-9.492a1.473,1.473,0,0,1,1.651-1.656q4.333-.005,8.668,0a1.476,1.476,0,0,1,1.657,1.651C270.563,371.572,270.56,373.154,270.56,374.736Zm-2.054,5.151-3.935-4.237-3.928,4.237ZM260.64,369.6l3.934,4.233L268.5,369.6Zm-.772.988V378.9l3.856-4.158Zm5.551,4.156,3.86,4.157v-8.315Z" transform="translate(-252.809 -335.447)" fill="#fff"/>
  <path id="Path_1261" data-name="Path 1261" d="M286.215,374.757c0,1.565,0,3.13,0,4.694a1.486,1.486,0,0,1-1.672,1.687q-4.308.005-8.617,0a1.485,1.485,0,0,1-1.686-1.673q-.005-4.72,0-9.44a1.482,1.482,0,0,1,1.672-1.686q4.308,0,8.617,0a1.485,1.485,0,0,1,1.687,1.672C286.218,371.593,286.215,373.175,286.215,374.757Zm-9.9,5.1h7.818l-3.912-4.21Zm3.909-6.031,3.907-4.212h-7.817Zm-4.724-3.266v8.351l3.875-4.177Zm9.425,8.328v-8.308l-3.854,4.156Z" transform="translate(-254.835 -335.447)" fill="#fff"/>
  <path id="Path_1262" data-name="Path 1262" d="M272.51,389.973c-1.359,0-2.718,0-4.076,0-.546,0-.835-.224-.831-.623s.287-.613.841-.614q4.1,0,8.2,0c.563,0,.844.2.858.6.015.414-.286.639-.867.64Q274.573,389.976,272.51,389.973Z" transform="translate(-253.976 -338.086)" fill="#fff"/>
</svg>
