<svg id="Group_12363" data-name="Group 12363" xmlns="http://www.w3.org/2000/svg" width="52.352" height="52.348" viewBox="0 0 52.352 52.348">
  <path id="Path_1238" data-name="Path 1238" d="M155.861,331.531h32.615c1.6.527,2.134,1.67,2.115,3.3-.052,4.309-.018,8.618-.018,12.927v.7c.656-.528,1.2-.982,1.761-1.413,2.254-1.733,4.5-3.483,6.774-5.183a3.322,3.322,0,0,1,5.333,1.865.982.982,0,0,0,.088.178v1.227a18.168,18.168,0,0,1-1.1,1.923,144.1,144.1,0,0,1-10.062,12.422c-.45.484-.962.912-1.427,1.383a.939.939,0,0,0-.291.5,2.712,2.712,0,0,1-.751,1.8,1.094,1.094,0,0,0-.335.9c.007,3.339,0,6.679.006,10.018a2.716,2.716,0,0,1-1.457,2.564.689.689,0,0,0-.281.506c-.024,1.294-.008,2.589-.015,3.884a2.619,2.619,0,0,1-2.868,2.848q-14.594,0-29.186,0a5.043,5.043,0,0,1-.814-.047,4.348,4.348,0,0,1-3.766-4.5q0-14.414,0-28.828,0-7.259,0-14.517a4.347,4.347,0,0,1,3.455-4.355A1.392,1.392,0,0,0,155.861,331.531Zm1.575,43.6c.19.01.356.026.522.026q14.824,0,29.649,0c.947,0,1.21-.266,1.21-1.221q0-4.677,0-9.355c0-.167-.015-.333-.022-.47l-1.406-.4a4.541,4.541,0,0,1-1.12,2.761,7.636,7.636,0,0,1-3.061,2.066,10.446,10.446,0,0,1-5.793.231,1.593,1.593,0,0,1-1.082-2.285,21.359,21.359,0,0,0,.872-2.388c.2-.7.229-1.452.449-2.144a4.733,4.733,0,0,1,3.545-3.587c.259-.057.524-.088.814-.135-.071-.183-.128-.321-.177-.462a2.619,2.619,0,0,1,1.633-3.43,3.871,3.871,0,0,0,1.877-1.207c.967-1.025,2.055-1.939,3.111-2.879a.943.943,0,0,0,.366-.779q-.016-7.514-.008-15.029c0-.914-.272-1.178-1.194-1.178H157.436Zm29.623,1.772H156.841c-.2,0-.41,0-.613.018a2.617,2.617,0,0,0,.483,5.209q14.614.006,29.229,0a1.8,1.8,0,0,0,.408-.02.789.789,0,0,0,.7-.762C187.07,379.894,187.059,378.433,187.059,376.908ZM201,342.863a4.9,4.9,0,0,0-.913.442c-1.065.764-2.112,1.555-3.15,2.355a123.959,123.959,0,0,0-10.307,8.611c-.334.32-.37.507-.018.847,1.309,1.268,2.585,2.57,3.874,3.859.477.477.48.478.94,0a120.948,120.948,0,0,0,8.486-10.146q1.293-1.679,2.544-3.392a1.515,1.515,0,0,0,.122-1.73A1.691,1.691,0,0,0,201,342.863Zm-45.359-9.368a2.526,2.526,0,0,0-1.716,2.539q0,19.78,0,39.559a3.345,3.345,0,0,0,.035.353l1.682-.764Zm22.35,33.636c.518.055.953.118,1.39.146a6.8,6.8,0,0,0,4.988-1.375,3.024,3.024,0,0,0,1.219-3.194,3.364,3.364,0,0,0-2.478-2.6,2.727,2.727,0,0,0-3.361,1.408,5.776,5.776,0,0,0-.616,1.716A13.484,13.484,0,0,1,177.99,367.131Zm6.675-11.272c-.6-.011-.935.168-1.119.559a1.006,1.006,0,0,0,.212,1.22q2.144,2.155,4.3,4.3a1.044,1.044,0,0,0,1.546.051,1.007,1.007,0,0,0-.085-1.5q-2.12-2.143-4.266-4.26A2.639,2.639,0,0,0,184.665,355.858Z" transform="translate(-152.179 -331.531)" fill="#fff"/>
  <path id="Path_1239" data-name="Path 1239" d="M175.423,351.682H164.44c-1.392,0-2.036-.639-2.037-2.019q0-4.113,0-8.225a1.737,1.737,0,0,1,1.949-1.952q11.137,0,22.274,0a1.759,1.759,0,0,1,1.949,1.966q0,4.137,0,8.276a1.764,1.764,0,0,1-1.963,1.954Q181.017,351.686,175.423,351.682Zm-11.261-1.769H186.8v-8.648h-22.64Z" transform="translate(-154.54 -333.368)" fill="#fff"/>
  <path id="Path_1240" data-name="Path 1240" d="M177.322,361.631H171.6a3.514,3.514,0,0,1-.51-.019.854.854,0,0,1-.123-1.664,2.488,2.488,0,0,1,.656-.06q5.694-.006,11.385,0c.085,0,.17,0,.255,0,.643.021,1.03.359,1.024.891s-.379.85-1.047.853C181.27,361.634,179.3,361.63,177.322,361.631Z" transform="translate(-156.378 -338.081)" fill="#fff"/>
  <path id="Path_1241" data-name="Path 1241" d="M178.1,367.31c-1.107,0-2.212,0-3.319,0-.638,0-1.044-.344-1.047-.864s.407-.874,1.039-.874q3.319-.006,6.638,0c.652,0,1.034.328,1.036.867s-.378.87-1.027.873C180.315,367.313,179.209,367.31,178.1,367.31Z" transform="translate(-157.159 -339.394)" fill="#fff"/>
  <path id="Path_1242" data-name="Path 1242" d="M169.124,392.807h6.592a4.146,4.146,0,0,1,.459.009.813.813,0,0,1,.773.756.8.8,0,0,1-.581.908,1.758,1.758,0,0,1-.551.067q-6.695,0-13.388,0a2.1,2.1,0,0,1-.507-.041.846.846,0,0,1-.655-.912.819.819,0,0,1,.807-.778c.424-.024.851-.01,1.277-.01Z" transform="translate(-154.276 -345.686)" fill="#fff"/>
  <path id="Path_1243" data-name="Path 1243" d="M187.009,392.808c.7,0,1.393-.007,2.09,0a.878.878,0,0,1,.957.843.888.888,0,0,1-.967.894q-2.089.016-4.179,0a.874.874,0,0,1-.951-.9.863.863,0,0,1,.961-.831C185.616,392.8,186.312,392.808,187.009,392.808Z" transform="translate(-159.52 -345.687)" fill="#fff"/>
</svg>
