<?xml version="1.0" encoding="UTF-8"?>
<svg id="Layer_2" data-name="Layer 2" xmlns="http://www.w3.org/2000/svg" viewBox="0 0 31.17 32.17">
  <defs>
    <style>
      .cls-1 {
        fill: #fff;
        stroke-width: 0px;
      }
    </style>
  </defs>
  <g id="Layer_1-2" data-name="Layer 1">
    <g>
      <path class="cls-1" d="M23.31,6.02c-1.4-1.4-2.8-2.8-4.19-4.19v4.19h4.19ZM18.79,0c.82.82,1.65,1.63,2.47,2.45,1.2,1.2,2.4,2.4,3.6,3.59.19.19.28.39.28.67,0,3.07,0,6.14,0,9.2,0,.08,0,.17-.01.25-.05.25-.27.44-.51.42-.26-.02-.42-.17-.47-.42-.02-.1-.01-.21-.01-.31V7.04h-5.34c-.54,0-.69-.16-.69-.69,0-1.66,0-3.31,0-4.96v-.38H5.71c-1.09,0-1.69.6-1.69,1.69v23.75c0,1.11.6,1.7,1.71,1.7h11.5c.1,0,.21-.01.31,0,.27.04.43.2.44.48.01.27-.17.48-.45.51-.09.01-.19,0-.28,0-3.84,0-7.69,0-11.53,0-1.66,0-2.71-1.05-2.71-2.71,0-7.9,0-15.79,0-23.68C3.02,1.28,3.68.42,5.1.04c.02,0,.03-.02.05-.04h13.64Z"/>
      <path class="cls-1" d="M0,17.58C0,13.58,0,9.58,0,5.58c0-1.17.71-2.14,1.79-2.45.34-.1.59.01.69.29.1.28-.05.54-.37.66-.77.29-1.11.76-1.11,1.59,0,7.95,0,15.9,0,23.84,0,1.02.62,1.65,1.64,1.65,5.6,0,11.21,0,16.81,0,.54,0,.98-.16,1.34-.57.21-.24.51-.27.72-.09.22.19.24.49.02.75-.5.6-1.15.9-1.92.9-1.14,0-2.28,0-3.43,0H2.73C1.04,32.17,0,31.13,0,29.43v-11.84"/>
      <path class="cls-1" d="M29,20.56c-.07-.11-.12-.21-.19-.29-.26-.27-.53-.53-.8-.8-.21-.22-.4-.22-.62-.03-.41.36-.89.45-1.4.24-.52-.22-.8-.62-.84-1.18-.02-.27-.14-.4-.41-.4h-1.19c-.25,0-.39.12-.41.37-.04.57-.31.99-.84,1.22-.53.22-1,.11-1.43-.26-.2-.18-.39-.17-.58.02-.27.28-.54.55-.82.82-.19.19-.21.37-.03.57.38.43.48.92.25,1.45-.23.52-.64.78-1.2.82-.25.02-.38.15-.38.4,0,.4,0,.8,0,1.19,0,.27.13.4.4.42.56.04.97.31,1.19.83.22.53.12,1.01-.25,1.43-.19.22-.17.41.03.6.27.26.54.53.8.8.2.2.39.21.6.02.42-.37.91-.46,1.43-.24.52.22.79.63.82,1.19.02.25.14.39.4.39.41,0,.82,0,1.23,0,.24,0,.39-.12.39-.36,0-1.14,1.41-1.8,2.29-.97.19.18.38.16.55-.02.28-.28.56-.56.84-.84.18-.18.21-.36.03-.55-.82-.84-.23-2.27.95-2.29.24,0,.36-.15.36-.38,0-.41,0-.82,0-1.22,0-.25-.13-.39-.38-.4-.56-.04-.97-.3-1.2-.82-.23-.53-.12-1.02.25-1.46.06-.08.1-.18.16-.28M29.98,20.74c-.08.15-.23.44-.36.74-.06.13-.14.31-.1.41.05.11.23.2.37.21.75.09,1.26.63,1.27,1.38,0,.43,0,.86,0,1.29-.01.74-.53,1.27-1.26,1.36-.14.02-.33.11-.39.23-.05.09.03.3.12.41.47.62.45,1.32-.08,1.88-.29.3-.59.6-.89.89-.53.51-1.27.54-1.86.1-.12-.09-.32-.17-.43-.12-.11.05-.2.25-.22.39-.09.73-.63,1.24-1.37,1.25-.43,0-.86,0-1.29,0-.74-.01-1.28-.53-1.37-1.26-.02-.14-.11-.33-.23-.39-.09-.05-.3.03-.41.11-.63.47-1.35.44-1.91-.1-.28-.28-.57-.56-.84-.84-.55-.57-.58-1.27-.1-1.9.08-.11.16-.31.11-.41-.06-.11-.25-.21-.39-.23-.73-.09-1.25-.63-1.26-1.37,0-.44,0-.88,0-1.32.01-.72.53-1.26,1.25-1.35.15-.02.35-.11.4-.22.05-.11-.03-.32-.12-.43-.46-.61-.43-1.32.11-1.88.28-.29.57-.58.87-.87.54-.53,1.27-.55,1.89-.1.11.09.32.15.44.11.1-.04.19-.24.2-.37.09-.74.62-1.25,1.36-1.27.44,0,.88,0,1.32,0,.72.01,1.26.53,1.35,1.24.02.15.1.35.21.4.11.05.32-.02.43-.11.61-.45,1.34-.43,1.88.1.3.29.59.59.89.89.26.26.39.59.42,1.14"/>
      <path class="cls-1" d="M17.09,9.55h-4.3c-.1,0-.19,0-.28,0-.27-.05-.43-.22-.43-.49s.16-.45.43-.5c.1-.02.21,0,.31,0h8.55c.1,0,.21-.01.31,0,.27.05.43.22.43.49,0,.28-.16.44-.43.49-.09.02-.19,0-.28,0h-4.3"/>
      <path class="cls-1" d="M17.13,13.57c1.46,0,2.91,0,4.37,0,.37,0,.59.15.62.44.04.27-.16.52-.44.56-.1.01-.21,0-.31,0h-8.55c-.1,0-.21.01-.31,0-.27-.05-.44-.22-.43-.5,0-.28.16-.44.43-.49.09-.02.19,0,.28,0h4.34"/>
      <path class="cls-1" d="M8.04,8.85c.69-.69,1.34-1.35,2-2,.07-.07.14-.15.23-.21.22-.15.44-.14.63.04.2.19.22.42.06.65-.04.06-.1.11-.15.16-.77.77-1.54,1.54-2.31,2.31-.34.34-.57.34-.91,0-.45-.44-.89-.89-1.33-1.33-.28-.28-.3-.58-.07-.8.22-.21.51-.19.77.08.35.35.7.71,1.07,1.09"/>
      <path class="cls-1" d="M8.04,13.87c.72-.72,1.39-1.41,2.09-2.07.12-.12.33-.22.49-.21.14,0,.35.16.39.29.05.16,0,.41-.1.54-.22.29-.51.53-.76.79-.55.55-1.09,1.1-1.64,1.64-.33.32-.56.33-.89,0-.45-.45-.91-.9-1.35-1.35-.26-.27-.28-.55-.07-.77.21-.22.51-.2.77.06.36.35.7.71,1.08,1.1"/>
      <path class="cls-1" d="M8.04,18.9c.68-.68,1.33-1.33,1.98-1.98.37-.37.64-.43.89-.19.26.24.2.53-.18.91-.73.73-1.46,1.47-2.2,2.2-.37.37-.59.37-.95,0-.44-.44-.88-.87-1.31-1.31-.28-.28-.3-.58-.07-.8.22-.21.51-.18.78.08.35.35.69.7,1.07,1.09"/>
      <path class="cls-1" d="M8.03,23.93c.69-.69,1.34-1.34,1.99-1.99.07-.07.14-.15.23-.21.23-.16.46-.15.65.04.2.2.21.43.04.65-.14.17-.3.32-.46.47-.66.66-1.32,1.32-1.98,1.97-.36.36-.58.36-.93,0-.45-.44-.89-.88-1.33-1.33-.26-.27-.29-.55-.07-.77.21-.22.51-.21.77.06.36.35.7.71,1.08,1.1"/>
      <path class="cls-1" d="M14.57,19.6c-.62,0-1.24,0-1.85,0-.42,0-.66-.19-.65-.51,0-.31.23-.49.63-.49,1.26,0,2.51,0,3.77,0,.39,0,.62.19.62.51,0,.31-.23.49-.63.49-.63,0-1.26,0-1.88,0"/>
      <path class="cls-1" d="M13.84,23.62c.39,0,.77,0,1.16,0,.35,0,.57.19.58.49,0,.31-.22.51-.58.51-.79,0-1.57,0-2.36,0-.35,0-.57-.2-.57-.49,0-.31.22-.51.58-.51.4,0,.8,0,1.19,0"/>
      <path class="cls-1" d="M24.12,22.12c-1.11,0-2,.92-2,2.03,0,1.09.91,1.99,2.01,1.99,1.11,0,2.02-.91,2.01-2.02,0-1.11-.91-2.01-2.02-2M21.12,24.12c0-1.66,1.36-3.01,3.02-3.01,1.66,0,3.01,1.36,3.01,3.02,0,1.66-1.36,3.01-3.02,3.01-1.66,0-3.01-1.37-3.01-3.02"/>
    </g>
  </g>
</svg>