<?xml version="1.0" encoding="UTF-8"?>
<svg id="Layer_2" data-name="Layer 2" xmlns="http://www.w3.org/2000/svg" viewBox="0 0 38.1 23.53">
  <defs>
    <style>
      .cls-1 {
        fill: #fff;
        stroke-width: 0px;
      }
    </style>
  </defs>
  <g id="Layer_1-2" data-name="Layer 1">
    <path class="cls-1" d="M16.28,17.98c-.05-.4-.27-.72-.61-.86-.36-.15-.74-.08-1.01.24-.48.54-.95,1.08-1.4,1.64-.35.43-.29.96.11,1.29.37.31.92.28,1.27-.11.48-.53.95-1.08,1.39-1.64.12-.15.17-.37.25-.56M18.54,19.89c-.06-.4-.28-.72-.63-.86-.35-.14-.74-.07-1.02.24-.46.52-.91,1.05-1.35,1.58-.37.45-.35.98.04,1.33.4.35.95.3,1.35-.14.44-.5.88-1.01,1.3-1.53.14-.18.21-.41.31-.61M14.04,16.08c-.05-.39-.28-.74-.62-.86-.38-.14-.74-.08-1.02.23-.47.53-.93,1.06-1.38,1.61-.36.44-.32.99.09,1.32.39.33.92.28,1.29-.13.46-.52.91-1.05,1.35-1.59.13-.16.19-.39.29-.58M9.56,16.68c.1-.05.36-.11.5-.26.53-.57,1.04-1.16,1.52-1.78.29-.38.19-.9-.18-1.2-.35-.29-.88-.3-1.18.04-.54.58-1.05,1.19-1.54,1.81-.22.27-.2.61-.03.91.16.31.43.46.91.48M4.94,1.11c-1.29,3.26-2.55,6.47-3.83,9.72,1.04.41,2.04.8,3.08,1.21,1.29-3.26,2.55-6.47,3.83-9.71-1.04-.41-2.04-.8-3.08-1.21M8.45,13.8c.3-.35.59-.71.91-1.04,1.07-1.13,2.96-.69,3.42.8.05.15.08.31.11.45,1.37.11,1.88.54,2.26,1.91,1.27.02,2.01.68,2.24,1.93.95-.02,1.67.36,2.05,1.22.38.86.15,1.64-.49,2.36.4.24.74.52,1.14.68.5.21,1.08-.06,1.32-.54.24-.48.12-.96-.33-1.31-.28-.22-.57-.44-.85-.66-.3-.25-.35-.55-.16-.81.2-.27.53-.29.85-.06.14.1.27.21.41.32.48.36.94.73,1.43,1.07.53.36,1.2.24,1.55-.25.35-.49.24-1.12-.29-1.53-.46-.36-.93-.71-1.38-1.07-.3-.23-.35-.55-.17-.81.2-.28.52-.3.85-.07.16.12.31.24.47.36.54.41,1.07.84,1.63,1.23.52.36,1.21.21,1.55-.29.34-.51.22-1.1-.3-1.5-.54-.42-1.08-.83-1.62-1.25-.21-.16-.36-.4-.21-.64.11-.17.33-.32.53-.37.13-.03.32.1.45.2.76.57,1.51,1.16,2.28,1.73.59.44,1.25.36,1.64-.17.38-.5.24-1.2-.33-1.63-1.38-1.03-2.77-2.05-4.17-3.06-.12-.09-.32-.14-.47-.13-2.41.23-4.46-.56-6.19-2.22-.24-.23-.38-.24-.63-.02-.84.75-1.75,1.38-2.83,1.73-1.11.36-2.18.29-3.15-.42-1.04-.77-1-1.87.05-2.63,1.06-.77,2.08-1.6,3.12-2.4.09-.07.19-.1.29-.15-.03-.06-.06-.12-.09-.18-.76-.06-1.52-.14-2.28-.19-.93-.06-1.86-.04-2.78-.16-.54-.07-1.05-.35-1.61-.54-1.08,2.73-2.15,5.46-3.23,8.2,1.01.64,1.98,1.26,3,1.9M38.1,11.09c-.21.49-.59.75-1.08.93-.83.3-1.64.63-2.45.96-.49.21-.95.23-1.4-.12-.06-.05-.21-.05-.29,0-.66.41-1.32.84-1.96,1.25.43,2.11-.54,3.27-2.6,3.13-.41,1.53-1,1.99-2.67,2.05-.07.73-.36,1.35-.99,1.77-.62.41-1.29.47-2.02.26-.21,1.03-.79,1.7-1.83,1.92-1.06.23-1.79-.4-2.57-1-.17.2-.34.4-.51.58-.56.6-1.25.84-2.05.62-.8-.22-1.28-.76-1.47-1.56-.03-.11-.16-.25-.25-.26-1.16-.13-1.74-.62-2.01-1.74-.01-.05-.03-.09-.04-.13-1.43-.18-2-.67-2.24-1.91-1.95-.3-2.69-1.47-1.95-3.15-.13-.09-.26-.2-.4-.29-.72-.46-1.44-.92-2.17-1.36-.11-.06-.28-.03-.42-.02-.32.01-.68.13-.96.03-1.02-.35-2.01-.76-3.01-1.17-.63-.26-.89-.87-.65-1.5C1.35,7.16,2.62,3.95,3.89.74c.25-.63.87-.89,1.5-.65.99.38,1.98.78,2.97,1.17.52.21.76.6.77,1.16,0,.1.09.24.18.29.7.35,1.44.52,2.25.53,1.55.03,3.13,0,4.64.49.1.03.3-.07.39-.17.5-.51,1.01-1.03,1.75-1.12.58-.07,1.18,0,1.77.05.43.03.86.13,1.28.2.43.07.66.31.62.64-.04.35-.33.53-.79.47-.62-.09-1.25-.19-1.87-.3-.67-.12-1.21.1-1.68.57-1.32,1.33-2.73,2.57-4.25,3.66-.27.19-.55.38-.83.57-.36.25-.36.45,0,.73.64.51,1.36.54,2.11.32.97-.29,1.77-.88,2.52-1.53.8-.69,1.37-.67,2.13.07,1.56,1.5,3.4,2.17,5.57,1.87.31-.04.55.03.79.21,1.48,1.1,2.97,2.19,4.47,3.3.79-.51,1.58-1.02,2.39-1.54-1.06-2.68-2.1-5.34-3.17-8.04-.22.07-.43.12-.63.22-1.42.7-2.9.77-4.42.39-.13-.03-.27-.03-.4-.07-.32-.08-.49-.32-.45-.63.04-.3.27-.5.61-.46.54.06,1.08.14,1.62.24.59.11,1.16.03,1.72-.17.51-.19,1.02-.38,1.52-.56,0-.85.18-1.14.97-1.45.9-.36,1.79-.72,2.69-1.07.74-.29,1.32-.03,1.61.71.46,1.15.91,2.3,1.37,3.45.17.44.08.74-.25.88-.33.14-.61-.02-.79-.46-.47-1.18-.94-2.37-1.42-3.6-1.02.4-2.03.8-3.08,1.21,1.28,3.24,2.55,6.46,3.83,9.71,1.04-.41,2.05-.81,3.08-1.21-.44-1.11-.86-2.19-1.29-3.27-.04-.09-.08-.18-.11-.28-.09-.31.04-.61.31-.71.28-.11.57,0,.71.3.14.29.24.6.36.89.37.91.74,1.83,1.12,2.74v.59Z"/>
  </g>
</svg>