<?xml version="1.0" encoding="UTF-8"?>
<svg id="Layer_2" data-name="Layer 2" xmlns="http://www.w3.org/2000/svg" viewBox="0 0 35.71 25.13">
  <defs>
    <style>
      .cls-1 {
        fill: #fff;
        stroke-width: 0px;
      }
    </style>
  </defs>
  <g id="Layer_1-2" data-name="Layer 1">
    <g>
      <path class="cls-1" d="M16.69,24.01c-.29-.81-.57-1.57-.83-2.34-.08-.23-.19-.29-.43-.29-.8.01-1.6,0-2.4,0-.32,0-.73-.1-.95.05-.23.17-.28.58-.4.89-.2.55-.39,1.1-.6,1.67h5.6ZM18.72,16.99H1.12c0,.65,0,1.28,0,1.91,0,.92.45,1.37,1.37,1.37,6.04,0,12.09,0,18.13,0,.12,0,.24-.02.4-.03-.16-.34-.35-.62-.41-.93-.13-.63-.5-.9-1.1-1.05-.74-.18-.75-.25-.77-1.01,0-.08,0-.16-.01-.26M32,11.04c-.3.15-.6.3-.9.46-.27.15-.51.12-.79-.02-.46-.24-.94-.48-1.43-.62-.46-.12-.71-.35-.84-.8-.23-.8-.25-.79-1.09-.79-.22,0-.35.04-.4.28-.05.24-.16.46-.22.7-.08.32-.29.46-.59.56-.56.2-1.1.43-1.63.68-.27.13-.5.15-.76.02-.31-.16-.62-.31-.95-.48-.23.23-.46.45-.65.69-.06.07-.07.23-.03.32.12.28.3.53.39.81.06.19.05.44-.01.62-.22.61-.47,1.2-.75,1.79-.08.18-.25.36-.43.45-.26.14-.57.19-.85.3-.09.03-.19.14-.2.23-.13.88-.07.95.74,1.22.08.03.15.05.23.08.3.08.44.28.54.57.19.55.41,1.08.66,1.6.14.3.19.56.02.85-.14.23-.26.47-.36.72-.04.08-.03.23.02.29.2.25.43.49.64.72.35-.18.63-.3.9-.46.31-.18.6-.18.91.02.27.17.57.36.88.41.91.16,1.41.65,1.54,1.56.01.08.16.19.25.2.92.07.92.07,1.21-.81.02-.07.04-.13.06-.2.08-.27.26-.41.52-.51.57-.21,1.14-.44,1.7-.7.27-.12.5-.15.76,0,.3.16.62.31.92.47q.86-.72.37-1.68s0-.02-.02-.03c-.17-.28-.12-.53.02-.82.25-.53.48-1.08.67-1.64.11-.29.27-.46.56-.56,1.03-.33,1.03-.33.96-1.41,0-.01,0-.02-.02-.06-.33-.11-.66-.23-1.01-.33-.26-.08-.39-.25-.49-.5-.22-.58-.46-1.16-.72-1.73-.12-.26-.14-.48,0-.73.17-.31.32-.62.48-.93-.27-.27-.54-.52-.83-.81M1.12,15.83h17.62c-.05-.47.22-.67.61-.76.08-.02.15-.06.23-.07.55-.08.77-.43,1.01-.92.38-.74.34-1.35-.12-2-.21-.3-.12-.59.14-.84.39-.37.76-.75,1.14-1.13.39-.38.53-.44,1-.14.59.37,1.15.55,1.76.07.02-.01.04-.02.06-.03.62-.08.87-.47,1.01-1.05.16-.71.26-.82.98-.81.02,0,.04-.02.08-.06v-.32c0-1.74,0-3.49,0-5.23,0-.97-.43-1.41-1.4-1.41-7.59,0-15.17,0-22.76,0-.94,0-1.38.45-1.38,1.39,0,4.31,0,8.62,0,12.93v.37ZM0,1.9s.05-.07.06-.12C.4.64,1.23.02,2.43.02c4.18,0,8.37,0,12.55,0C18.39.02,21.79.05,25.2,0c1.43-.02,2.65.98,2.59,2.61-.06,1.71-.01,3.42-.01,5.12v.36s.07.06.09.06c.63-.08.92.27,1.01.84.09.55.35.93.94,1.01.09.01.19.05.26.1.5.4.95.24,1.45-.05.7-.41.73-.38,1.31.2.34.34.67.68,1.01,1.01.25.25.32.53.12.81-.46.65-.49,1.26-.12,2,.25.49.47.83,1.01.92.15.03.29.09.43.14.27.1.42.29.42.58,0,.63,0,1.25,0,1.88,0,.29-.15.48-.42.57-.38.13-.86.17-1.13.42-.27.25-.28.75-.49,1.09-.24.39-.16.69.04,1.05.54.99.52.93-.26,1.7-.29.29-.58.57-.86.86-.22.23-.49.3-.75.12-.68-.49-1.33-.51-2.1-.11-.44.23-.71.44-.84.92-.26.93-.29.92-1.25.92-.44,0-.88,0-1.32,0-.32,0-.57-.14-.62-.45-.12-.86-.61-1.31-1.44-1.57-.45-.15-.76-.18-1.18.05-.87.49-.89.47-1.59-.24-.26-.26-.54-.51-.78-.79-.17-.2-.3-.44-.48-.73h-3.28c.31.88.62,1.73.93,2.61.58,0,1.14,0,1.71,0,.43,0,.7.22.69.57,0,.34-.27.55-.71.55-3.79,0-7.58,0-11.36,0-.45,0-.7-.19-.71-.54,0-.36.25-.57.71-.57.49,0,.98,0,1.46,0,.09,0,.24-.07.26-.14.3-.8.58-1.61.9-2.48H2.83c-1.68,0-2.22-.37-2.83-1.91V1.9Z"/>
      <path class="cls-1" d="M7.6,8.5c1.16.65,2.3,1.28,3.43,1.92.11.06.23.12.32.2.22.19.28.43.13.69-.15.26-.39.36-.68.25-.08-.03-.15-.07-.22-.11-1.43-.8-2.86-1.59-4.27-2.41-.18-.11-.36-.34-.41-.55-.06-.26.16-.43.39-.56,1.44-.8,2.88-1.61,4.31-2.41.39-.22.71-.17.88.13.18.31.06.62-.35.85-1.06.6-2.13,1.19-3.19,1.78-.11.06-.21.13-.35.21"/>
      <path class="cls-1" d="M20.19,8.49c-1.18-.66-2.3-1.29-3.43-1.92-.52-.29-.67-.58-.46-.92.2-.33.49-.35,1-.06,1.37.76,2.74,1.53,4.1,2.29.24.13.47.27.48.59,0,.33-.23.48-.48.62-1.41.78-2.82,1.57-4.23,2.36-.29.16-.57.22-.82-.05-.26-.27-.16-.68.23-.9,1.05-.59,2.11-1.18,3.16-1.77.13-.07.26-.15.44-.25"/>
      <path class="cls-1" d="M12.39,12.56c.17-.76.35-1.57.54-2.37.43-1.9.87-3.8,1.31-5.7.13-.56.35-.78.73-.7.37.08.49.39.37.93-.6,2.62-1.2,5.25-1.81,7.87-.02.08-.04.16-.07.24-.12.28-.33.42-.63.36-.3-.07-.44-.28-.43-.63"/>
      <path class="cls-1" d="M24.89,16.65c0,1.28,1.04,2.33,2.32,2.33,1.27,0,2.33-1.05,2.34-2.32.01-1.29-1.05-2.35-2.34-2.35-1.28,0-2.32,1.04-2.32,2.33M23.78,16.66c0-1.91,1.54-3.46,3.45-3.46,1.89,0,3.43,1.54,3.44,3.43.01,1.89-1.56,3.47-3.45,3.46-1.89,0-3.43-1.55-3.44-3.44"/>
    </g>
  </g>
</svg>