<svg xmlns="http://www.w3.org/2000/svg" width="67.332" height="67.331" viewBox="0 0 67.332 67.331">
  <g id="Group_275" data-name="Group 275" transform="translate(0)">
    <path id="Path_1202" data-name="Path 1202" d="M390.259,73.637v.88q0,11.115,0,22.232a5.639,5.639,0,0,1-6.049,6.037q-11.921,0-23.844,0a5.633,5.633,0,0,1-6.014-6q0-9.993,0-19.987v-.943c-.579,0-1.129.006-1.679,0a1.174,1.174,0,0,1-1.337-1.053c-.03-.113-.05-.228-.074-.342-.466-2.24-.463-2.246-2.606-3.1a.809.809,0,0,0-.622.066c-.665.388-1.307.816-1.954,1.236a1.173,1.173,0,0,1-1.638-.19q-1.206-1.222-2.43-2.429a1.17,1.17,0,0,1-.167-1.639c.373-.566.732-1.14,1.1-1.711a3.416,3.416,0,0,0,.222-.357,4.586,4.586,0,0,0-1.292-2.7c-.748-.179-1.5-.346-2.252-.514a1.147,1.147,0,0,1-.979-1.253q0-1.718,0-3.437a1.166,1.166,0,0,1,1.042-1.274,21.2,21.2,0,0,0,2.111-.5,1.573,1.573,0,0,0,.645-.584c.135-.179.138-.457.271-.639.69-.953.374-1.726-.245-2.608-1.244-1.777-1.194-1.812.347-3.363.544-.547,1.092-1.089,1.631-1.642a1.165,1.165,0,0,1,1.635-.191c.627.406,1.245.833,1.9,1.19a1.371,1.371,0,0,0,.807.053c.221-.034.415-.239.636-.274,1.2-.192,1.611-.982,1.7-2.08a6.214,6.214,0,0,1,.272-1.229,1.106,1.106,0,0,1,1.275-.834,1.069,1.069,0,0,1,.883,1.24c-.219,1.217-.46,2.434-.791,3.623a1.546,1.546,0,0,1-.827.752c-.967.456-1.978.818-2.951,1.262a1.326,1.326,0,0,1-1.388-.066,16.557,16.557,0,0,1-1.466-.957c-.48-.392-.8-.286-1.156.148a7.537,7.537,0,0,1-.888.78c.468.729.861,1.381,1.3,2.005a1.493,1.493,0,0,1,.079,1.7,21.6,21.6,0,0,0-1.094,2.642,1.483,1.483,0,0,1-1.208,1.108c-.75.144-1.492.332-2.251.5v1.9c.8.184,1.581.384,2.374.545a1.362,1.362,0,0,1,1.056.994c.357.958.751,1.906,1.182,2.833a1.364,1.364,0,0,1-.057,1.451c-.361.545-.691,1.112-1.067,1.646a.511.511,0,0,0,.075.774c1,1.043.991,1.055,2.174.3a2.138,2.138,0,0,0,.292-.193,2,2,0,0,1,2.725-.133,7.112,7.112,0,0,0,2.008.792,1.521,1.521,0,0,1,1.241,1.332c.118.713.3,1.415.454,2.147h.948V66.9a6.88,6.88,0,0,1-5.063-2.375,6.688,6.688,0,0,1,1.234-9.854,1.58,1.58,0,0,1,1.221-.157,1.122,1.122,0,0,1,.61.891,1.909,1.909,0,0,1-.659,1.133,4.572,4.572,0,0,0-1.784,3.853,4.447,4.447,0,0,0,4.478,4.206v-.824q0-11.15,0-22.3a5.632,5.632,0,0,1,6-6.014q11.957,0,23.914,0a5.631,5.631,0,0,1,5.993,6.022q0,9.993,0,19.987v.923c.57,0,1.1,0,1.628,0a1.212,1.212,0,0,1,1.412,1.139c.158.682.266,1.378.465,2.047a1.247,1.247,0,0,0,.54.6c.292.182.679.219.959.413a1.471,1.471,0,0,0,1.993-.175,12.022,12.022,0,0,1,1.35-.877,1.1,1.1,0,0,1,1.472.153q1.3,1.274,2.58,2.577a1.123,1.123,0,0,1,.133,1.53c-.416.648-.854,1.286-1.231,1.957a1.194,1.194,0,0,0-.043.746c.048.244.263.457.3.7.192,1.16.966,1.491,2.023,1.686,2.136.393,2.126.448,2.126,2.631,0,.748.007,1.5,0,2.244a1.172,1.172,0,0,1-1.061,1.329q-.17.044-.339.086a5.7,5.7,0,0,0-2.18.612c-.511.422-.653,1.307-.913,2a.826.826,0,0,0,.067.62c.391.663.823,1.3,1.243,1.948a1.152,1.152,0,0,1-.161,1.586q-1.232,1.246-2.471,2.488a1.171,1.171,0,0,1-1.64.165c-.566-.373-1.14-.733-1.71-1.1a3.255,3.255,0,0,0-.357-.222,4.54,4.54,0,0,0-2.692,1.3c-.166.729-.308,1.462-.487,2.188a1.149,1.149,0,0,1-1.349,1.011,1.129,1.129,0,0,1-.827-1.465c.208-1.077.407-2.161.717-3.21a1.706,1.706,0,0,1,.826-.914,24.858,24.858,0,0,1,3.026-1.261,1.967,1.967,0,0,1,1.3.05,9.907,9.907,0,0,1,1.719,1.073.5.5,0,0,0,.773-.089c.321-.335.7-.615,1.078-.942-.489-.765-.883-1.42-1.318-2.047a1.46,1.46,0,0,1-.09-1.633,26.378,26.378,0,0,0,1.125-2.7,1.434,1.434,0,0,1,1.155-1.069c.756-.143,1.5-.33,2.285-.5V77.13c-.747-.165-1.491-.349-2.243-.491a1.478,1.478,0,0,1-1.205-1.11,21.216,21.216,0,0,0-1.1-2.641,1.481,1.481,0,0,1,.082-1.694c.351-.495.64-1.033.994-1.526.225-.315.165-.508-.092-.773-1-1.033-.987-1.042-2.176-.283-.276.176-.562.338-.825.532a1.456,1.456,0,0,1-1.694.042,16.287,16.287,0,0,0-2.51-1.046A1.569,1.569,0,0,1,391.7,66.8c-.121-.712-.3-1.413-.454-2.136h-.949v6.65c.374.056.758.107,1.14.172a6.644,6.644,0,0,1,5.372,5.09,6.508,6.508,0,0,1-2.52,6.891,1.748,1.748,0,0,1-1.145.352,1.07,1.07,0,0,1-.585-1.791,5.318,5.318,0,0,1,.588-.5,4.487,4.487,0,0,0,1.33-4.956A4.441,4.441,0,0,0,390.259,73.637ZM356.594,69.08q0,13.884,0,27.769a3.391,3.391,0,0,0,3.715,3.691q11.99,0,23.98,0a3.4,3.4,0,0,0,3.724-3.754q0-27.662,0-55.324c0-2.423-1.349-3.761-3.786-3.761q-11.92,0-23.841,0c-2.467,0-3.792,1.337-3.793,3.823Z" transform="translate(-338.639 -35.455)" fill="#fff"/>
    <path id="Path_1203" data-name="Path 1203" d="M394.894,44.279a1.129,1.129,0,0,1,1.1,1.123,1.237,1.237,0,0,1-1.173,1.23,1.055,1.055,0,0,1-1.065-1.128A1.137,1.137,0,0,1,394.894,44.279Z" transform="translate(-337.646 -35.295)" fill="#fff"/>
    <path id="Path_1204" data-name="Path 1204" d="M393.755,49.912a1.121,1.121,0,1,1,2.238-.1,1.237,1.237,0,0,1-1.175,1.229A1.055,1.055,0,0,1,393.755,49.912Z" transform="translate(-337.646 -35.216)" fill="#fff"/>
    <path id="Path_1205" data-name="Path 1205" d="M393.755,54.289a1.12,1.12,0,1,1,2.238-.036,1.231,1.231,0,0,1-1.206,1.194A1.054,1.054,0,0,1,393.755,54.289Z" transform="translate(-337.646 -35.137)" fill="#fff"/>
    <path id="Path_1206" data-name="Path 1206" d="M347.459,82.72a1.12,1.12,0,1,1,2.238-.02,1.194,1.194,0,0,1-1.214,1.169A1.024,1.024,0,0,1,347.459,82.72Z" transform="translate(-338.48 -34.624)" fill="#fff"/>
    <path id="Path_1207" data-name="Path 1207" d="M347.459,87.128a1.12,1.12,0,1,1,2.238-.018,1.2,1.2,0,0,1-1.215,1.169A1.029,1.029,0,0,1,347.459,87.128Z" transform="translate(-338.48 -34.545)" fill="#fff"/>
    <path id="Path_1208" data-name="Path 1208" d="M348.515,92.689a1.028,1.028,0,0,1-1.056-1.12,1.121,1.121,0,1,1,2.239-.082A1.2,1.2,0,0,1,348.515,92.689Z" transform="translate(-338.48 -34.465)" fill="#fff"/>
    <path id="Path_1209" data-name="Path 1209" d="M363.381,68.61c1.1,1.1,2.142,2.138,3.178,3.174.182.181.374.355.538.552a1.117,1.117,0,0,1-1.6,1.555c-.315-.278-.6-.59-.9-.888-1.139-1.139-2.283-2.274-3.417-3.42a1.162,1.162,0,0,1,.011-1.93q2.074-2.089,4.162-4.161a1.136,1.136,0,1,1,1.588,1.583C365.791,66.235,364.623,67.378,363.381,68.61Z" transform="translate(-338.242 -34.958)" fill="#fff"/>
    <path id="Path_1210" data-name="Path 1210" d="M380.143,68.585l-3.3-3.26a5.246,5.246,0,0,1-.438-.453,1.094,1.094,0,0,1,.047-1.522,1.048,1.048,0,0,1,1.516-.044q2.335,2.272,4.6,4.611a1.017,1.017,0,0,1-.072,1.515q-2.21,2.249-4.462,4.458a1.084,1.084,0,0,1-1.576.022,1.1,1.1,0,0,1,.023-1.625c1.024-1.056,2.077-2.086,3.115-3.127C379.764,69,379.916,68.826,380.143,68.585Z" transform="translate(-337.964 -34.958)" fill="#fff"/>
    <path id="Path_1211" data-name="Path 1211" d="M373.988,64.275c-.156.617-.343,1.361-.53,2.106q-.84,3.356-1.681,6.713c-.218.862-.745,1.267-1.4,1.108-.7-.171-.975-.771-.751-1.677q1.061-4.273,2.133-8.544a1.125,1.125,0,0,1,1.26-.956A1.182,1.182,0,0,1,373.988,64.275Z" transform="translate(-338.082 -34.958)" fill="#fff"/>
    <path id="Path_1212" data-name="Path 1212" d="M371.731,42.109c-1.052,0-2.1.009-3.155,0A1.136,1.136,0,0,1,367.3,41a1.122,1.122,0,0,1,1.242-1.132q3.225-.017,6.451,0a1.132,1.132,0,0,1,1.271,1.1c.01.68-.5,1.127-1.313,1.135C373.881,42.116,372.806,42.109,371.731,42.109Z" transform="translate(-338.123 -35.375)" fill="#fff"/>
  </g>
</svg>
