<svg xmlns="http://www.w3.org/2000/svg" width="50.21" height="63.184" viewBox="0 0 50.21 63.184">
  <g id="Group_272" data-name="Group 272" transform="translate(0)">
    <path id="Path_1184" data-name="Path 1184" d="M30.768,95.979a1.44,1.44,0,0,1-.806-1.561c.1-4.024,2.169-6.67,5.786-8.163,1.914-.79,3.915-1.367,5.838-2.135a24.572,24.572,0,0,0,3.693-1.806,5.948,5.948,0,0,0,2.738-4.346.7.7,0,0,0-.473-.892,14.878,14.878,0,0,1-7.476-7.454,1.11,1.11,0,0,1,.109-1.318c.535-.6,1.337-.37,1.809.4a20.488,20.488,0,0,0,2.368,3.5c3.318,3.485,7.525,4.72,12.226,4.334A13.88,13.88,0,0,0,66.2,71.854a13.528,13.528,0,0,0,3.266-8.207.653.653,0,0,0-.174-.1c-1.047-.179-1.38-.863-.845-1.771a7.5,7.5,0,0,0,.7-6.292A5.579,5.579,0,0,0,64,51.389c-.369-.03-.74-.037-1.11-.038-5.2,0-10.407.027-15.611-.012-2.667-.02-4.787.877-5.9,3.4a7.1,7.1,0,0,0,.836,7.616,5.12,5.12,0,0,0,4.194,2.015c5.945.024,11.888,0,17.832-.013.745,0,1.215.341,1.247.968a1.054,1.054,0,0,1-1.124,1.126c-1.13.048-2.262.035-3.393.036q-7.1,0-14.192,0a7.767,7.767,0,0,1-6.127-2.67.972.972,0,0,0-.624-.269c-.657-.034-1.317-.027-1.974-.01a3.745,3.745,0,0,1-3.646-2.182,7.455,7.455,0,0,1,.011-7.047,2.354,2.354,0,0,0,.257-.981c.021-2.364.008-4.73.012-7.094a5.237,5.237,0,0,1,4.21-5.469.92.92,0,0,0,.513-.441c2.15-4.4,5.815-6.6,10.531-7.277a37.149,37.149,0,0,1,11.112.424c3.307.517,6.609,1.069,9.916,1.581a10.954,10.954,0,0,0,1.662.048,4.987,4.987,0,0,1,4.652,2.711,5.109,5.109,0,0,1-.168,5.444,4.658,4.658,0,0,1-.826,1.071,2.355,2.355,0,0,0-.752,2.087c.06,1.108.021,2.22.013,3.331-.005.779-.409,1.268-1.036,1.285-.647.017-1.063-.482-1.065-1.3,0-1.584-.027-3.167.019-4.75a2.168,2.168,0,0,1,.428-1.094c.364-.519.844-.954,1.23-1.46a3.121,3.121,0,0,0,.35-3.528,3.011,3.011,0,0,0-2.983-1.687,37.474,37.474,0,0,1-7.39-.9c-4.11-.725-8.21-1.536-12.413-1.4a15.584,15.584,0,0,0-6.736,1.532,10.154,10.154,0,0,0-4.821,5.245,1.6,1.6,0,0,1-1.557,1.129,2.923,2.923,0,0,0-2.723,2.6c-.1,2.273-.027,4.555-.027,6.867l1.822-.134a8.191,8.191,0,0,1,1.707-3.959,8.091,8.091,0,0,1,6.562-3.1q8.207-.005,16.414,0a8.175,8.175,0,0,1,5.059,1.661c.668.5.814,1.093.409,1.63a1.084,1.084,0,0,1-1.633.08,6.293,6.293,0,0,0-3.912-1.264c-5.429.01-10.859,0-16.289.008a6.042,6.042,0,0,0-5.871,3.9c-.034.09-.056.186-.073.242.8-.482,1.562-1.02,2.393-1.43a8.141,8.141,0,0,1,3.669-.667c5.348,0,10.7.01,16.043,0a8.014,8.014,0,0,1,6.484,2.715.9.9,0,0,0,.584.225c.6.028,1.193.009,1.789.011a4.006,4.006,0,0,1,4.1,2.753,7.527,7.527,0,0,1-.011,5.884,3.926,3.926,0,0,1-3.989,2.716,2.572,2.572,0,0,0-.309.011.9.9,0,0,0-.166.06c-.428,5.225-2.567,9.549-7.083,12.456-4.441,2.86-9.281,3.277-14.363,2.019-.111.5-.2.987-.323,1.458a8.054,8.054,0,0,1-4.766,5.408c-1.735.782-3.556,1.378-5.353,2.016a19.426,19.426,0,0,0-4.863,2.2,6.281,6.281,0,0,0-2.743,4.875,4,4,0,0,0-.027.493,1.378,1.378,0,0,1-.824,1.439ZM71,54.356a10.353,10.353,0,0,1-.013,7.082h.817c1.424,0,2.117-.438,2.447-1.822a8.446,8.446,0,0,0,.18-2.676C74.247,54.835,73.165,54.053,71,54.356ZM39.068,61.4a25.674,25.674,0,0,1-.46-3.509,26.6,26.6,0,0,1,.447-3.559c-1.9-.21-2.853.334-3.182,2.046a7.865,7.865,0,0,0-.06,2.618C36.127,61.053,37.06,61.669,39.068,61.4Z" transform="translate(-29.961 -32.795)" fill="#fff"/>
    <path id="Path_1185" data-name="Path 1185" d="M81.2,102.083a1.6,1.6,0,0,1-.71-1.462A6.231,6.231,0,0,0,76.679,94.7C74.9,93.871,73,93.289,71.166,92.583c-1.187-.457-2.375-.913-3.536-1.432a.613.613,0,0,0-.87.17,12.429,12.429,0,0,1-14.81,2.86,4.925,4.925,0,0,1-.645-.358,1,1,0,0,1-.364-1.3,1.022,1.022,0,0,1,1.291-.544,4.031,4.031,0,0,1,.554.265,10.376,10.376,0,0,0,12.146-2.035c.14-.145.264-.3.331-.38-.638-.874-1.279-1.67-1.825-2.528a1.047,1.047,0,0,1,.3-1.643c.591-.318,1.131-.094,1.543.658a7.817,7.817,0,0,0,4.25,3.39c1.734.691,3.516,1.263,5.273,1.9a14.8,14.8,0,0,1,5.259,2.879,8.224,8.224,0,0,1,2.525,6.511c-.006.368-.424.729-.65,1.092Z" transform="translate(-32.378 -38.899)" fill="#fff"/>
    <path id="Path_1186" data-name="Path 1186" d="M57.795,76.138A6.441,6.441,0,0,1,53.459,74.5a1.057,1.057,0,1,1,1.379-1.582,4.4,4.4,0,0,0,5.845.013,1.078,1.078,0,0,1,1.587-.023,1.062,1.062,0,0,1-.21,1.612A6.423,6.423,0,0,1,57.795,76.138Z" transform="translate(-32.629 -37.4)" fill="#fff"/>
    <path id="Path_1187" data-name="Path 1187" d="M57.7,58.734c-1.275,0-2.549.009-3.824,0a1.1,1.1,0,0,1-1.221-.9,1.033,1.033,0,0,1,1.134-1.2c2.056-.012,4.112-.005,6.167-.005.576,0,1.151-.009,1.727,0a1.049,1.049,0,1,1,.025,2.092c-1.336.025-2.672.007-4.008.007Z" transform="translate(-32.587 -35.554)" fill="#fff"/>
  </g>
</svg>
