<svg id="Group_242" data-name="Group 242" xmlns="http://www.w3.org/2000/svg" width="72.806" height="71.162" viewBox="0 0 72.806 71.162">
  <g id="Group_163" data-name="Group 163" transform="translate(0 0)">
    <g id="Group_162" data-name="Group 162">
      <g id="_806_Computer_Cap_Education_Graduation" data-name="806, Computer, Cap, Education, Graduation">
        <g id="Group_161" data-name="Group 161">
          <g id="Group_160" data-name="Group 160">
            <g id="Group_144" data-name="Group 144" transform="translate(1.516 12.639)">
              <g id="Group_135" data-name="Group 135" transform="translate(0 33.243)">
                <g id="Group_134" data-name="Group 134">
                  <path id="Path_546" data-name="Path 546" d="M212.813,96.06v4.929a3.8,3.8,0,0,1-3.792,3.792H147.213a3.8,3.8,0,0,1-3.792-3.792V96.06h69.392Z" transform="translate(-143.421 -96.06)" fill="#e1fcff"/>
                </g>
              </g>
              <g id="Group_137" data-name="Group 137" transform="translate(42.596 15.674)">
                <g id="Group_136" data-name="Group 136">
                  <path id="Path_547" data-name="Path 547" d="M179.837,82.03a2.4,2.4,0,1,1-2.4,2.4A2.324,2.324,0,0,1,179.837,82.03Z" transform="translate(-177.436 -82.03)" fill="#22d5ff"/>
                </g>
              </g>
              <g id="Group_139" data-name="Group 139" transform="translate(25.785 8.596)">
                <g id="Group_138" data-name="Group 138">
                  <path id="Path_548" data-name="Path 548" d="M176.778,76.378V89.4l-12.766,3.666V80.675Z" transform="translate(-164.012 -76.378)" fill="#e1fcff"/>
                </g>
              </g>
              <g id="Group_141" data-name="Group 141" transform="translate(12.893 8.596)">
                <g id="Group_140" data-name="Group 140">
                  <path id="Path_549" data-name="Path 549" d="M166.609,80.675V93.062L153.717,89.4V76.378Z" transform="translate(-153.717 -76.378)" fill="#e1fcff"/>
                </g>
              </g>
              <g id="Group_143" data-name="Group 143" transform="translate(6.446)">
                <g id="Group_142" data-name="Group 142">
                  <path id="Path_550" data-name="Path 550" d="M187.12,75.961l-6.446,2.149-12.766,4.3-12.892-4.3-6.447-2.149,19.339-6.447Z" transform="translate(-148.568 -69.514)" fill="#e1fcff"/>
                </g>
              </g>
            </g>
            <g id="Group_159" data-name="Group 159">
              <g id="Group_158" data-name="Group 158">
                <g id="Group_145" data-name="Group 145" transform="translate(40.76 52.894)">
                  <path id="Path_551" data-name="Path 551" d="M180.891,119.927a1.589,1.589,0,0,1-1.516-1.138l-4.551-15.041a1.6,1.6,0,0,1,3.034-1.011l4.551,15.041A1.658,1.658,0,0,1,181.4,119.8C181.144,119.8,181.019,119.927,180.891,119.927Z" transform="translate(-174.759 -101.66)" fill="#22d5ff"/>
                </g>
                <g id="Group_146" data-name="Group 146" transform="translate(21.158 52.883)">
                  <path id="Path_552" data-name="Path 552" d="M160.7,119.929a.95.95,0,0,1-.5-.126,1.554,1.554,0,0,1-1.012-2.022l4.551-15.041a1.6,1.6,0,1,1,3.033,1.011l-4.551,15.041A1.769,1.769,0,0,1,160.7,119.929Z" transform="translate(-159.106 -101.651)" fill="#22d5ff"/>
                </g>
                <g id="Group_147" data-name="Group 147" transform="translate(13.524 67.874)">
                  <path id="Path_553" data-name="Path 553" d="M193.835,116.909H154.653a1.644,1.644,0,0,1,0-3.287h39.182a1.644,1.644,0,1,1,0,3.287Z" transform="translate(-153.01 -113.622)" fill="#22d5ff"/>
                </g>
                <g id="Group_148" data-name="Group 148" transform="translate(0 44.111)">
                  <path id="Path_554" data-name="Path 554" d="M170.649,97.933h-26.8a1.644,1.644,0,0,1,0-3.287h26.8a1.673,1.673,0,0,1,1.643,1.644A1.767,1.767,0,0,1,170.649,97.933Z" transform="translate(-142.21 -94.646)" fill="#22d5ff"/>
                </g>
                <g id="Group_149" data-name="Group 149" transform="translate(26.796 44.111)">
                  <path id="Path_555" data-name="Path 555" d="M207.848,97.933h-42.6a1.644,1.644,0,0,1,0-3.287h42.722a1.675,1.675,0,0,1,1.644,1.644A1.789,1.789,0,0,1,207.848,97.933Z" transform="translate(-163.608 -94.646)" fill="#22d5ff"/>
                </g>
                <g id="Group_150" data-name="Group 150">
                  <path id="Path_556" data-name="Path 556" d="M209.453,115.415H147.518a5.341,5.341,0,0,1-5.308-5.308V64.729a5.34,5.34,0,0,1,5.308-5.308h61.935a5.34,5.34,0,0,1,5.308,5.308v45.377A5.341,5.341,0,0,1,209.453,115.415ZM147.518,62.58a2.215,2.215,0,0,0-2.149,2.149v45.377a2.215,2.215,0,0,0,2.149,2.148h61.935a2.215,2.215,0,0,0,2.149-2.148V64.729a2.215,2.215,0,0,0-2.149-2.149Z" transform="translate(-142.21 -59.421)" fill="#22d5ff"/>
                </g>
                <g id="Group_151" data-name="Group 151" transform="translate(48.915 6.192)">
                  <path id="Path_557" data-name="Path 557" d="M197.072,67.652H182.915a1.643,1.643,0,1,1,0-3.286H197.2a1.675,1.675,0,0,1,1.644,1.644A1.888,1.888,0,0,1,197.072,67.652Z" transform="translate(-181.271 -64.366)" fill="#22d5ff"/>
                </g>
                <g id="Group_152" data-name="Group 152" transform="translate(56.752 10.996)">
                  <path id="Path_558" data-name="Path 558" d="M195.493,71.488h-6.32a1.643,1.643,0,1,1,0-3.286h6.32a1.643,1.643,0,0,1,0,3.286Z" transform="translate(-187.529 -68.202)" fill="#22d5ff"/>
                </g>
                <g id="Group_153" data-name="Group 153" transform="translate(12.892 19.591)">
                  <path id="Path_559" data-name="Path 559" d="M166.915,95.036h-.379l-12.892-3.665a1.634,1.634,0,0,1-1.138-1.516V76.709a1.644,1.644,0,1,1,3.287,0V88.59l11.627,3.286a1.55,1.55,0,0,1,1.138,1.9A2.024,2.024,0,0,1,166.915,95.036Z" transform="translate(-152.505 -75.065)" fill="#22d5ff"/>
                </g>
                <g id="Group_154" data-name="Group 154" transform="translate(25.658 19.591)">
                  <path id="Path_560" data-name="Path 560" d="M164.343,95.036a1.682,1.682,0,0,1-1.012-.379,1.553,1.553,0,0,1-.632-1.264V81.007a1.644,1.644,0,1,1,3.287,0V91.371l9.733-2.781V76.709a1.643,1.643,0,1,1,3.286,0V89.854a1.518,1.518,0,0,1-1.138,1.516l-12.891,3.665A.987.987,0,0,0,164.343,95.036Z" transform="translate(-162.699 -75.065)" fill="#22d5ff"/>
                </g>
                <g id="Group_155" data-name="Group 155" transform="translate(6.445 10.901)">
                  <path id="Path_561" data-name="Path 561" d="M168.214,84.274a.761.761,0,0,1-.506-.126L148.5,77.7a1.633,1.633,0,0,1-1.138-1.517,1.588,1.588,0,0,1,1.138-1.516l19.212-6.447a1.393,1.393,0,0,1,1.011,0l19.214,6.447a1.633,1.633,0,0,1,1.137,1.516,1.488,1.488,0,0,1-1.137,1.517l-19.214,6.447A.952.952,0,0,1,168.214,84.274ZM153.93,76.311l14.283,4.8,14.282-4.8-14.282-4.8Z" transform="translate(-147.357 -68.126)" fill="#22d5ff"/>
                </g>
                <g id="Group_156" data-name="Group 156" transform="translate(44.871 17.316)">
                  <path id="Path_562" data-name="Path 562" d="M179.684,85.129a1.672,1.672,0,0,1-1.642-1.643V74.892a1.643,1.643,0,0,1,3.286,0v8.594A1.765,1.765,0,0,1,179.684,85.129Z" transform="translate(-178.042 -73.249)" fill="#22d5ff"/>
                </g>
                <g id="Group_157" data-name="Group 157" transform="translate(42.469 26.543)">
                  <path id="Path_563" data-name="Path 563" d="M180.168,88.705a4.044,4.044,0,0,1,0-8.088,3.993,3.993,0,0,1,4.046,4.045A4.073,4.073,0,0,1,180.168,88.705Zm0-4.8a.885.885,0,1,0,.887.884A.864.864,0,0,0,180.168,83.9Z" transform="translate(-176.124 -80.617)" fill="#22d5ff"/>
                </g>
              </g>
            </g>
          </g>
        </g>
      </g>
    </g>
  </g>
</svg>
