<svg xmlns="http://www.w3.org/2000/svg" width="59.06" height="55.135" viewBox="0 0 59.06 55.135">
  <g id="Group_276" data-name="Group 276" transform="translate(0)">
    <path id="Path_1213" data-name="Path 1213" d="M463.083,85.514v2.9a21.093,21.093,0,0,1,2.4.653,3.926,3.926,0,0,1,2.5,4.1,2.966,2.966,0,0,1-3.039,2.643q-6.12.012-12.238,0c-.84,0-1.687-.058-2.521.012-2.052.172-4.034-1.586-3.126-4.367a4.171,4.171,0,0,1,3.4-2.773c.437-.1.9-.088,1.337-.174.156-.03.4-.191.405-.3.034-.874.019-1.75.019-2.7h-.791c-5.166,0-10.331.013-15.5,0a7.715,7.715,0,0,1-7.7-6.079,8.685,8.685,0,0,1-.189-1.889q-.019-10.487-.008-20.973a7.764,7.764,0,0,1,7.63-8c.081,0,.162-.02.32-.04,0-.22,0-.44,0-.66,0-1.374-.031-2.748.021-4.12a3.162,3.162,0,0,1,3.109-3.043c.163,0,.328,0,.492,0h36.159a3.25,3.25,0,0,1,3.614,3.606c0,1.391,0,2.783,0,4.189.621.105,1.208.169,1.777.306a7.714,7.714,0,0,1,5.917,7.4q.037,10.825,0,21.65a7.672,7.672,0,0,1-7.526,7.635c-5.227.063-10.454.02-15.681.023Zm-5.4-42.839H439.6c-1.254,0-1.653.4-1.653,1.653q0,12.666,0,25.335c0,1.259.4,1.66,1.651,1.66h36.152c1.251,0,1.653-.4,1.654-1.658q0-12.668,0-25.335c0-1.261-.4-1.655-1.652-1.655Zm21.7,12.675v.8q0,6.735,0,13.472a5.3,5.3,0,0,1-.113,1.28,3.219,3.219,0,0,1-3.373,2.394q-18.114,0-36.229,0c-2.423,0-3.675-1.25-3.676-3.674q0-6.766,0-13.534v-.728h-5.914v20.47h54.954V55.35ZM429.865,77.86a15.532,15.532,0,0,0,.726,2.367,5.708,5.708,0,0,0,5.562,3.323q13.285-.021,26.569-.006c5.412,0,10.825-.01,16.236.007a6.008,6.008,0,0,0,3.806-1.153A5.764,5.764,0,0,0,485.1,77.86Zm27.5,15.989c2.5,0,5,0,7.5,0a1.051,1.051,0,0,0,1.138-1.358,1.972,1.972,0,0,0-1.42-1.693,6.745,6.745,0,0,0-1.866-.3c-3.524-.027-7.048-.015-10.572-.011a6.115,6.115,0,0,0-.981.057,2.425,2.425,0,0,0-2.276,1.667c-.3,1.047.146,1.633,1.226,1.635Q453.742,93.852,457.369,93.849Zm-3.143-5.334c2.2,0,4.361,0,6.524-.012.108,0,.306-.17.308-.266.024-.891.014-1.783.014-2.686h-6.846Zm-18.292-35.16V50.579a5.39,5.39,0,0,0-4.985,2.776h4.985Zm48.244-.012a5.319,5.319,0,0,0-4.751-2.734v2.734Z" transform="translate(-428.031 -40.706)" fill="#fff"/>
    <path id="Path_1214" data-name="Path 1214" d="M461.877,68.5h-9.834a4.534,4.534,0,0,1-.614-.014.92.92,0,0,1-.873-.945.936.936,0,0,1,.829-.989,2.3,2.3,0,0,1,.49-.019h20.1a2.3,2.3,0,0,1,.55.029.922.922,0,0,1,.775,1.026.91.91,0,0,1-.85.9,4.229,4.229,0,0,1-.614.015Z" transform="translate(-428.234 -40.939)" fill="#fff"/>
    <path id="Path_1215" data-name="Path 1215" d="M462.01,49.761q4.947,0,9.9,0a2.725,2.725,0,0,1,.611.025.979.979,0,0,1,0,1.92,1.807,1.807,0,0,1-.428.022H451.8a2.058,2.058,0,0,1-.429-.018.977.977,0,0,1,0-1.931,3.948,3.948,0,0,1,.613-.019Z" transform="translate(-428.234 -40.788)" fill="#fff"/>
    <path id="Path_1216" data-name="Path 1216" d="M461.944,60.118h-9.834c-.164,0-.328.006-.492,0a1.007,1.007,0,0,1-1.073-.954c-.019-.571.4-.968,1.079-1.006.183-.01.369,0,.553,0q9.772,0,19.543,0a4.729,4.729,0,0,1,.8.038.96.96,0,0,1,.054,1.877,3.529,3.529,0,0,1-.732.051Q466.891,60.121,461.944,60.118Z" transform="translate(-428.234 -40.863)" fill="#fff"/>
    <path id="Path_1217" data-name="Path 1217" d="M445.965,68.444c-.43,0-.86.016-1.289,0a2.3,2.3,0,0,1-2.26-2.1,23.131,23.131,0,0,1,0-3.188,2.291,2.291,0,0,1,2.314-2.1c.819-.017,1.637-.012,2.456,0a2.359,2.359,0,0,1,2.451,2.311,24.428,24.428,0,0,1,0,2.761,2.373,2.373,0,0,1-2.444,2.324c-.408.009-.818,0-1.227,0Zm1.719-3.672c0-.369-.005-.737,0-1.106.008-.46-.2-.668-.672-.653-.675.021-1.352.022-2.026,0-.488-.016-.664.214-.654.667.009.388,0,.778,0,1.166,0,1.887-.142,1.632,1.648,1.632C447.834,66.477,447.684,66.746,447.685,64.772Z" transform="translate(-428.161 -40.889)" fill="#fff"/>
    <path id="Path_1218" data-name="Path 1218" d="M442.376,56.324c0-.45-.025-.9,0-1.35a2.377,2.377,0,0,1,2.386-2.321c.818-.028,1.638-.026,2.456,0a2.386,2.386,0,0,1,2.417,2.361,26.934,26.934,0,0,1,0,2.7,2.374,2.374,0,0,1-2.424,2.349c-.8.027-1.6.025-2.393,0a2.386,2.386,0,0,1-2.45-2.449c-.017-.429,0-.859,0-1.289Zm1.962.015c0,.388,0,.777,0,1.165,0,.408.205.6.607.594.716,0,1.432,0,2.147,0,.412,0,.591-.221.592-.614q0-.614,0-1.228c0-1.827.133-1.639-1.658-1.637C444.146,54.62,444.344,54.413,444.338,56.339Z" transform="translate(-428.161 -40.814)" fill="#fff"/>
    <path id="Path_1219" data-name="Path 1219" d="M446.038,44.278c.389,0,.778-.008,1.166,0a2.346,2.346,0,0,1,2.426,2.268,21.708,21.708,0,0,1,0,2.884,2.363,2.363,0,0,1-2.454,2.247c-.8.01-1.6.014-2.394,0a2.346,2.346,0,0,1-2.383-2.247,24.962,24.962,0,0,1,0-2.945,2.316,2.316,0,0,1,2.352-2.2C445.178,44.268,445.608,44.279,446.038,44.278Zm-1.7,3.653c0,.369.01.737,0,1.1-.016.5.211.7.709.682.654-.025,1.31-.021,1.964,0,.47.014.682-.19.679-.652,0-.716-.009-1.433,0-2.149.009-.5-.225-.7-.715-.674-.326.02-.655,0-.982,0C444.163,46.265,444.344,45.988,444.336,47.931Z" transform="translate(-428.16 -40.738)" fill="#fff"/>
    <path id="Path_1220" data-name="Path 1220" d="M457.759,81.8c-.736,0-1.473.009-2.209,0a.981.981,0,1,1-.036-1.955q2.268-.034,4.54,0a.994.994,0,0,1,1.057,1.029.98.98,0,0,1-1.083.927C459.272,81.806,458.515,81.8,457.759,81.8Z" transform="translate(-428.27 -41.059)" fill="#fff"/>
  </g>
</svg>
