<svg xmlns="http://www.w3.org/2000/svg" width="45.987" height="60.052" viewBox="0 0 45.987 60.052">
  <g id="Group_274" data-name="Group 274" transform="translate(0)">
    <path id="Path_1195" data-name="Path 1195" d="M292.682,34.785a1.47,1.47,0,0,1,.6,1.36q-.017,28.677-.01,57.353c0,1.069-.275,1.339-1.359,1.339q-19.323,0-38.645,0a5.644,5.644,0,0,1-5.972-6q0-23.926,0-47.852c0-3.341,1.5-5.287,4.722-6.125.033-.009.058-.048.086-.074Zm-36.9,1.9V83.53h35.584V36.689Zm-1.96,46.9V36.7a3.985,3.985,0,0,0-4.679,4.23c.061,14.438.029,28.876.029,43.315v.781A6.111,6.111,0,0,1,253.818,83.586Zm33.792,6.559H253.45a3.78,3.78,0,0,1-.643-.015.93.93,0,0,1,0-1.844,3.689,3.689,0,0,1,.643-.017h34.145V85.453H253.126c-.137,0-.274,0-.41.006a3.753,3.753,0,0,0,.348,7.5q17,.007,34.009,0h.538Zm1.945-4.664v7.433h1.807V85.481Z" transform="translate(-247.292 -34.785)" fill="#fff"/>
    <path id="Path_1196" data-name="Path 1196" d="M276.029,58.914c1.961,0,3.875-.022,5.788.005a7.5,7.5,0,1,1-6.289,11.844c-.136-.189-.265-.383-.447-.646-.125.158-.23.279-.32.412A7.5,7.5,0,1,1,268.2,58.922c1.951-.039,3.9-.006,5.9-.006.021-.164.033-.294.056-.421a2.8,2.8,0,0,1,2.826-2.4c1.739-.012,3.479,0,5.218-.005a2.217,2.217,0,0,0,.582-.035.927.927,0,0,0-.077-1.822,3.375,3.375,0,0,0-.586-.018l-14.13,0a2.717,2.717,0,0,1-.585-.02.932.932,0,0,1,.018-1.839,1.765,1.765,0,0,1,.351-.016q7.358,0,14.717,0a2.81,2.81,0,1,1,.088,5.618c-1.817.028-3.635,0-5.453.01C276.416,57.977,276.173,58.182,276.029,58.914Zm-.958,1.879c-2.246,0-4.493-.036-6.74.007a5.6,5.6,0,0,0-5.144,7.442,5.344,5.344,0,0,0,4.838,3.765,5.463,5.463,0,0,0,5.385-2.851,2.074,2.074,0,0,1,.615-.745,2.2,2.2,0,0,1,2.714.778,5.624,5.624,0,1,0,5.012-8.39C279.526,60.765,277.3,60.792,275.071,60.793Z" transform="translate(-248.797 -36.717)" fill="#fff"/>
    <path id="Path_1197" data-name="Path 1197" d="M268.112,66.873c.1-.781-.222-1.755.956-1.862.655-.06.856.342.99,1.837.727.1,1.856-.236,1.8,1.024-.051,1.1-1.062.832-1.807.888-.1.764.21,1.768-1,1.849-.647.044-.853-.394-.935-1.862-.274,0-.557.009-.838,0a.939.939,0,1,1,.017-1.872C267.546,66.866,267.8,66.873,268.112,66.873Z" transform="translate(-249.38 -38.111)" fill="#fff"/>
    <path id="Path_1198" data-name="Path 1198" d="M284.116,66.868a.968.968,0,0,1-.945-.918.945.945,0,0,1,.964-.949.912.912,0,0,1,.9.941A.924.924,0,0,1,284.116,66.868Z" transform="translate(-251.24 -38.11)" fill="#fff"/>
    <path id="Path_1199" data-name="Path 1199" d="M282,67.11a.912.912,0,0,1,.924.917.926.926,0,0,1-.9.95.967.967,0,0,1-.968-.953A.943.943,0,0,1,282,67.11Z" transform="translate(-251.008 -38.342)" fill="#fff"/>
    <path id="Path_1200" data-name="Path 1200" d="M287.145,68.07a.922.922,0,0,1-.952.906.966.966,0,0,1-.911-.965.947.947,0,0,1,.968-.9A.917.917,0,0,1,287.145,68.07Z" transform="translate(-251.473 -38.342)" fill="#fff"/>
    <path id="Path_1201" data-name="Path 1201" d="M285.037,70.135a.924.924,0,0,1-.908.951.967.967,0,0,1-.955-.922.945.945,0,0,1,.924-.945A.913.913,0,0,1,285.037,70.135Z" transform="translate(-251.241 -38.574)" fill="#fff"/>
  </g>
</svg>
