<svg xmlns="http://www.w3.org/2000/svg" width="52.218" height="62.868" viewBox="0 0 52.218 62.868">
  <g id="Group_297" data-name="Group 297" transform="translate(0)">
    <path id="Path_1231" data-name="Path 1231" d="M193.927,142.431c.151.051.3.11.453.152a4.878,4.878,0,0,1,3.63,4.18,8.456,8.456,0,0,1,.056.979q0,22.745,0,45.49a4.908,4.908,0,0,1-3.583,5.1,6.352,6.352,0,0,1-1.634.2q-6.907.023-13.815,0a1.411,1.411,0,0,0-1.031.394,16.136,16.136,0,0,1-6.51,3.289,1.811,1.811,0,0,0-1.19.849,10.515,10.515,0,0,1-1.154,1.659,1.572,1.572,0,0,1-1,.551q-10.622.047-21.244.02c-.918,0-1.308-.667-.885-1.5.86-1.7,1.707-3.4,2.618-5.066a12.646,12.646,0,0,0,1.285-8.787c-.323-1.657-.82-3.332-.445-5.036a13.87,13.87,0,0,1,1.054-3.174c1.371-2.764,2.857-5.47,4.275-8.211a2.379,2.379,0,0,0,.256-1.044c.018-3.479.01-6.958.012-10.436,0-.246-.069-.552.049-.721.2-.286.511-.653.8-.675s.666.285.893.546c.142.164.1.507.1.771.007,2.21,0,4.42,0,6.63v.659a13.367,13.367,0,0,0,1.228-.98,1.016,1.016,0,0,0,.165-.659q.013-8.932.007-17.864c0-1.188.239-1.423,1.442-1.423h33.648c1.133,0,1.38.243,1.38,1.352q0,12.985,0,25.969a3.243,3.243,0,0,1-.011.49.914.914,0,0,1-1.809.05,3.116,3.116,0,0,1-.023-.673q0-12.277,0-24.556V150.2H160.2c-.009.2-.028.4-.028.593q0,8.379-.009,16.759a.817.817,0,0,0,.453.811,4.146,4.146,0,0,1,1.888,4.185c-.178,1.7-.586,3.378-.927,5.059-.256,1.261-.577,2.51-.845,3.769a1,1,0,0,0,.06.685,19.116,19.116,0,0,1,2.731,6.67h29.429v-.667q0-3.961,0-7.92a2.792,2.792,0,0,1,.021-.55.914.914,0,0,1,1.812.046,2.947,2.947,0,0,1,.01.429q0,4.635,0,9.27c0,1-.268,1.269-1.273,1.269H163.724a13.011,13.011,0,0,1-1.25,6.094h30.211c2.345,0,3.535-1.2,3.535-3.563q0-22.653,0-45.306c0-2.364-1.187-3.556-3.537-3.556q-16.209,0-32.419,0a3.045,3.045,0,0,0-3.215,2.216,4.67,4.67,0,0,0-.121,1.214c-.009,3.171-.006,6.344-.006,9.515,0,.164.007.328,0,.491a.968.968,0,0,1-.925,1.023.924.924,0,0,1-.91-1.018c-.007-3.52-.035-7.04.017-10.56a4.79,4.79,0,0,1,3.624-4.566c.152-.042.3-.1.447-.157Zm-18.564,56.178a1.94,1.94,0,0,0-.285-.065q-6.661,0-13.323.01a.956.956,0,0,0-.6.3c-.378.4-.691.862-1.068,1.264a.911.911,0,0,1-1.385-1.183c.143-.2.317-.374.475-.563a10.74,10.74,0,0,0,2.7-7.614,15.2,15.2,0,0,0-2.817-7.926,1.6,1.6,0,0,1-.27-1.372c.618-2.709,1.2-5.424,1.786-8.141a3.435,3.435,0,0,0-.285-2.675,1.8,1.8,0,0,0-.941-.754c-.477-.12-.718.338-.925.736-2.1,4-4.217,7.988-6.281,12a6.375,6.375,0,0,0-.8,2.477,17.648,17.648,0,0,0,.3,3.883,16.85,16.85,0,0,1,.035,7.057,24.221,24.221,0,0,1-2.244,5.157c-.369.722-.743,1.441-1.16,2.248h.758q8.136,0,16.27,0a5.9,5.9,0,0,0,2.474-.111c.643-.329,1-1.251,1.435-1.939a1.777,1.777,0,0,1,1.169-.8A18.492,18.492,0,0,0,175.362,198.609Z" transform="translate(-145.851 -142.431)" fill="#fff"/>
    <path id="Path_1232" data-name="Path 1232" d="M177.509,174.123q-5.248,0-10.5,0a2.174,2.174,0,0,1-2.437-2.412q0-6.751,0-13.5A2.141,2.141,0,0,1,167,155.8a6.286,6.286,0,0,0,3.042-.669,7.1,7.1,0,0,1,7.254.171.55.55,0,0,0,.477,0c2.6-1.606,5.193-1.269,7.756.05a3.454,3.454,0,0,0,1.865.437,7.2,7.2,0,0,1,1.286.025,2.093,2.093,0,0,1,1.8,2.143c.011,2.578,0,5.155,0,7.732,0,2.046,0,4.091,0,6.137a2.122,2.122,0,0,1-2.293,2.3Q182.849,174.13,177.509,174.123Zm7.62-5.383c0-1.122-.01-2.161,0-3.2.009-.677.358-1.089.895-1.106.557-.019.94.411.944,1.116.011,1.534.017,3.068,0,4.6-.011.95-.711,1.314-1.556.862a15.091,15.091,0,0,0-1.813-.885,5.122,5.122,0,0,0-4.713.287.915.915,0,0,0-.415.532,8.71,8.71,0,0,0-.019,1.292c.157.017.255.038.353.038,3.089,0,6.177-.006,9.265.009.484,0,.576-.211.575-.634-.012-2.72-.007-5.44-.007-8.16,0-1.759.011-3.517-.015-5.276,0-.2-.2-.532-.347-.561a6.994,6.994,0,0,0-1.3-.027c0,1.336.009,2.581,0,3.825-.008.739-.342,1.125-.928,1.12s-.9-.394-.913-1.138c-.011-.94,0-1.882,0-2.822,0-1.552,0-1.553-1.487-2.1a5.357,5.357,0,0,0-4.675.211.923.923,0,0,0-.525.924c.02,3.4.01,6.789.01,10.184v.687A7.766,7.766,0,0,1,185.129,168.74Zm-8.521-.214v-10.47c0-1.121-.064-1.218-1.137-1.631a6.117,6.117,0,0,0-5.026.511.792.792,0,0,0-.5.847c.017,3.435.009,6.871.01,10.306,0,.193.02.386.034.639A7.678,7.678,0,0,1,176.608,168.526Zm-8.5-10.9h-.761c-.923,0-.924,0-.924.9,0,4.335.009,8.669-.011,13,0,.586.169.775.765.769,2.945-.027,5.889-.011,8.834-.011h.572c.1-1.743-.142-2.065-1.739-2.443-.06-.014-.12-.022-.18-.033a6.744,6.744,0,0,0-4.685,1.018c-.447.249-.867.58-1.415.268s-.452-.864-.452-1.365q0-5.674,0-11.348Z" transform="translate(-146.823 -143.043)" fill="#fff"/>
    <path id="Path_1233" data-name="Path 1233" d="M177.592,180.806q-4.629,0-9.26,0c-.669,0-1.039-.294-1.083-.829a.9.9,0,0,1,.792-.995,3.987,3.987,0,0,1,.612-.016h18.029c.143,0,.286-.006.428,0a.953.953,0,0,1,1.01.932.925.925,0,0,1-1.024.9c-2.371.009-4.742,0-7.113,0Z" transform="translate(-146.962 -144.328)" fill="#fff"/>
    <path id="Path_1234" data-name="Path 1234" d="M177.7,183.973h9.026a4.561,4.561,0,0,1,.613.022.766.766,0,0,1,.743.823,1.6,1.6,0,0,1-.581.895c-.166.141-.507.1-.77.1q-9.057.006-18.113,0a2.872,2.872,0,0,1-.671-.044.841.841,0,0,1-.7-.941.831.831,0,0,1,.813-.84,5.5,5.5,0,0,1,.613-.015Z" transform="translate(-146.962 -144.588)" fill="#fff"/>
    <path id="Path_1235" data-name="Path 1235" d="M175.509,196.128a2.6,2.6,0,0,1,5.2-.027,2.6,2.6,0,1,1-5.2.027Zm1.856-.046a.727.727,0,0,0,.693.777.746.746,0,0,0,.794-.742.7.7,0,0,0-.731-.736A.7.7,0,0,0,177.365,196.082Z" transform="translate(-147.391 -145.084)" fill="#fff"/>
    <path id="Path_1236" data-name="Path 1236" d="M179.9,145.531c.592,0,1.183-.012,1.775,0a.914.914,0,1,1,.034,1.827c-1.244.023-2.489.025-3.732,0a.884.884,0,0,1-.893-.959.873.873,0,0,1,.92-.863C178.638,145.517,179.271,145.531,179.9,145.531Z" transform="translate(-147.473 -142.592)" fill="#fff"/>
    <path id="Path_1237" data-name="Path 1237" d="M175.605,146.477a.922.922,0,1,1-1.841-.085.922.922,0,0,1,1.841.085Z" transform="translate(-147.3 -142.592)" fill="#fff"/>
  </g>
</svg>
