<?xml version="1.0" encoding="utf-8"?>
<!-- Generator: Adobe Illustrator 24.1.0, SVG Export Plug-In . SVG Version: 6.00 Build 0)  -->
<svg version="1.1" id="Layer_1" xmlns="http://www.w3.org/2000/svg" xmlns:xlink="http://www.w3.org/1999/xlink" x="0px" y="0px"
	 viewBox="0 0 217.2 142.9" style="enable-background:new 0 0 217.2 142.9;" xml:space="preserve">
<style type="text/css">
	.st0{opacity:0.57;}
	.st1{opacity:0.3;}
	.st2{fill:#FFFFFF;}
</style>
<g id="Group_12373" transform="translate(-158.733 -75.366)" class="st0">
	<g>
		<g id="Group_224" transform="translate(158.733 75.366)">
			<g id="Group_223" transform="translate(40.817 -64.764)">
				<g id="Group_221" transform="translate(3.813 5.299)" class="st1">
					<path id="Path_601" class="st2" d="M87.3,65L87.3,65l24.9-42.1l0.2,0.3L131.6,74l-0.2,0.1h-0.1L87.3,65z M112.2,23.3L87.7,64.9
						l43.6,9L112.2,23.3z"/>
					<path id="Path_602" class="st2" d="M57.5,41l0.2-0.1l54.5-18.1l0.2,0.1l-0.1,0.1L87.5,65h-0.1L57.5,41z M112,23.2L58,41.1
						l15.1,12.2l0.1,0.1l0,0l14.2,11.4L112,23.2z"/>
					<path id="Path_603" class="st2" d="M5.7,31.2l6.2-13.9L27.5,1.4l0.1,0.1L58,41.3l-0.3-0.1l-31.9-6.1l0,0L5.7,31.2z M12.1,17.4
						L6,31l20,3.9l0.2-0.1l-0.1,0.1l31.2,6L27.5,1.8L12.1,17.4z"/>
					<path id="Path_604" class="st2" d="M25,73.2l0.2-0.1l23.4-11.6v0.2L49,92.2L25,73.2z M48.2,61.9L25.4,73.3l23.3,18.4L48.2,61.9
						z"/>
					<path id="Path_605" class="st2" d="M25.1,73l0.2,0.2L49,91.9v0.2h-0.1l-22.6,11v-0.2L25.1,73z M48.7,92L25.3,73.5l1.2,29.3
						L48.7,92z"/>
					<path id="Path_606" class="st2" d="M173.7,119.2l0.2,0.2l47.3,37.4h-0.4l-46.9-0.5v-0.1L173.7,119.2z M220.5,156.4l-46.6-36.7
						l0.3,36.3L220.5,156.4z"/>
					<path id="Path_607" class="st2" d="M78,84.4L78,84.4l53.7-10.5l-0.3,0.3l-59.1,49.6l0.1-0.3L78,84.4z M130.9,74.3L78.2,84.6
						l-5.6,38.6L130.9,74.3z"/>
					<path id="Path_608" class="st2" d="M173.5,119.4l0.3-0.1l56.5-12.4v0.2l-9.3,49.7l-0.2-0.1L173.5,119.4z M230,107.2l-55.9,12.3
						l46.7,36.8L230,107.2z"/>
					<path id="Path_609" class="st2" d="M1.2,55.4l0.2,0.1l23.9,17.7l-0.1,0.1L1.6,92.5L1.8,92L1.2,55.4z M25,73.2L1.5,55.9
						l0.6,35.9L25,73.2z"/>
					<path id="Path_610" class="st2" d="M173.9,118.8l0.2,37.4l-16.9,5.3l-0.2-0.1v-0.1v-0.1L173.9,118.8z M173.9,156l-0.3-36
						l-16.4,41.2L173.9,156z"/>
					<path id="Path_611" class="st2" d="M131.4,73.8l42.6,45.7l-0.2,0.1L114,142.2l-0.2-0.1V142L131.4,73.8z M173.6,119.4
						l-42.1-45.1l-17.3,67.5L173.6,119.4z"/>
					<path id="Path_612" class="st2" d="M48.2,61.5l0.2,0.2l29.8,22.8l-0.1,0.1l-29,28.8l-0.1-0.2L48.2,61.5z M77.9,84.5L48.5,62
						l0.4,29.9l0.2,0.2H49l0.3,20.7L77.9,84.5z"/>
					<path id="Path_613" class="st2" d="M143,144.1l0.2-0.1l31-24.9l-16.8,42.3l0.1,0.2l-0.2-0.1L143,144.1z M173.5,119.8L143.4,144
						l13.7,17.1L173.5,119.8z"/>
					<path id="Path_614" class="st2" d="M220.7,156.5l31.9-2.2l0.1,0.1v0.1l-18.4,41.4l-2.2-1v-0.1L220.7,156.5z M252.4,154.6
						l-31.4,2.1l11.2,38l1.9,0.8L252.4,154.6z"/>
					<path id="Path_615" class="st2" d="M131.2,73.9h0.3l52.1,3.6v0.1l-9.7,42l-0.1-0.2L131.2,73.9z M183.3,77.8l-51.5-3.6l42,45
						L183.3,77.8z"/>
					<path id="Path_616" class="st2" d="M1.1,55.6l0.2-0.1l33.9-10l-0.1,0.2l-9.9,27.7L1.1,55.6z M34.8,45.9L1.6,55.7L25.1,73
						L34.8,45.9z"/>
					<path id="Path_617" class="st2" d="M72.9,53.1l0.3,0.2l14.5,11.6V65L78,84.9v-0.4L72.9,53.1z M87.3,65L73.2,53.7l4.9,30.4
						L87.3,65z"/>
					<path id="Path_618" class="st2" d="M77.9,84.7l0.1-0.2l9.4-19.6h0.1l44.2,9.2l-0.4,0.2L77.9,84.7z M87.5,65.1l-9.2,19.2
						l52.5-10.2L87.5,65.1z"/>
					<path id="Path_619" class="st2" d="M35,45.5l0.2,0.2l13.4,16.2h-0.1L25,73.5l0.1-0.3L35,45.5z M48.2,61.7L35.1,46l-9.7,27
						L48.2,61.7z"/>
					<path id="Path_620" class="st2" d="M25.7,34.8l0.3,0.1L57.9,41l-0.1,0.1L48.4,62l-0.1-0.2L25.7,34.8z M57.6,41.2l-31.2-6
						l22,26.4L57.6,41.2z"/>
					<path id="Path_621" class="st2" d="M48.1,62l0.1-0.2L57.7,41l15.6,12.5l-0.2,0.1L48.1,62z M57.8,41.3l-9.2,20.3l24.2-8.2
						L57.8,41.3z"/>
					<path id="Path_622" class="st2" d="M48.1,61.7l0.2-0.1l24.8-8.4l0.1,0.2l5.1,31.4L78,84.6L48.1,61.7z M73,53.5l-24.3,8.3
						L78,84.2L73,53.5z"/>
					<path id="Path_623" class="st2" d="M0.4,43l5.4-12.1h0.1l20.4,3.9L26.1,35L1.3,55.9v-0.2L0.4,43z M5.9,31.2L0.6,43.1l0.8,12.3
						L25.8,35L5.9,31.2z"/>
					<path id="Path_624" class="st2" d="M0.8,55.9l0.4-0.4L26,34.8l0.1,0.1l9.1,10.9L35,45.9L0.8,55.9z M26,35.1L1.9,55.4l32.9-9.7
						L26,35.1z"/>
					<path id="Path_625" class="st2" d="M28.8,2.2c-0.3,0.8-1.2,1.1-2,0.8l0,0C26,2.6,25.7,1.7,26,1l0,0c0.3-0.8,1.2-1.1,2-0.8
						c0,0,0,0,0.1,0C28.8,0.5,29.2,1.4,28.8,2.2L28.8,2.2z"/>
					<path id="Path_626" class="st2" d="M59.4,41.7c-0.3,0.8-1.3,1.1-2,0.8c-0.8-0.3-1.1-1.3-0.8-2c0.3-0.8,1.3-1.1,2-0.8
						C59.4,40,59.8,40.9,59.4,41.7L59.4,41.7z"/>
					<path id="Path_627" class="st2" d="M49.6,62.4c-0.3,0.8-1.3,1.1-2,0.8c-0.8-0.3-1.1-1.3-0.8-2c0.3-0.8,1.2-1.1,2-0.8
						S49.9,61.6,49.6,62.4L49.6,62.4z"/>
					<path id="Path_628" class="st2" d="M26.9,73.8c-0.3,0.8-1.2,1.1-2,0.8l0,0c-0.8-0.3-1.1-1.3-0.8-2s1.3-1.1,2-0.8
						C26.9,72.1,27.3,73,26.9,73.8z"/>
					<path id="Path_629" class="st2" d="M2.9,55.9c-0.3,0.8-1.2,1.1-2,0.8s-1.1-1.2-0.8-2s1.2-1.1,2-0.8l0,0
						C2.9,54.3,3.3,55.2,2.9,55.9z"/>
					<path id="Path_630" class="st2" d="M50,92.4c-0.4,0.8-1.3,1.1-2,0.8c-0.8-0.3-1.1-1.2-0.8-2s1.2-1.1,2-0.8
						C49.9,90.7,50.3,91.6,50,92.4L50,92.4z"/>
					<path id="Path_631" class="st2" d="M74.6,53.8c-0.4,0.8-1.3,1.1-2,0.8s-1.1-1.3-0.8-2c0.4-0.8,1.2-1.1,2-0.8S75,53,74.6,53.8
						L74.6,53.8z"/>
					<path id="Path_632" class="st2" d="M88.9,65.8c-0.3,0.8-1.2,1.1-2,0.8l0,0c-0.8-0.4-1.1-1.3-0.7-2c0.4-0.7,1.2-1.1,2-0.8
						C88.9,64.1,89.3,65,88.9,65.8C88.9,65.7,88.9,65.7,88.9,65.8z"/>
					<path id="Path_633" class="st2" d="M79.5,85c-0.3,0.8-1.3,1.1-2,0.8c-0.8-0.3-1.1-1.3-0.8-2s1.3-1.1,2-0.8
						C79.5,83.3,79.8,84.2,79.5,85L79.5,85z"/>
					<path id="Path_634" class="st2" d="M73.8,124c-0.3,0.8-1.3,1.1-2,0.8c-0.8-0.3-1.1-1.3-0.8-2s1.3-1.1,2-0.8l0,0
						C73.8,122.3,74.2,123.2,73.8,124L73.8,124z"/>
					<path id="Path_635" class="st2" d="M50.5,113.8c-0.3,0.8-1.3,1.1-2,0.8c-0.8-0.3-1.1-1.3-0.8-2c0.3-0.8,1.3-1.1,2-0.8
						C50.5,112.1,50.8,113,50.5,113.8C50.5,113.7,50.5,113.8,50.5,113.8z"/>
					<path id="Path_636" class="st2" d="M27.7,103.5c-0.3,0.6-1,0.9-1.7,0.7s-0.9-1-0.7-1.7l0,0c0.3-0.6,1-0.9,1.7-0.7
						S28,102.8,27.7,103.5z"/>
					<path id="Path_637" class="st2" d="M3.3,92.3c-0.3,0.7-1,1-1.7,0.7s-1-1-0.7-1.7c0,0,0,0,0-0.1c0.3-0.6,1.1-0.9,1.7-0.6
						C3.2,90.9,3.5,91.7,3.3,92.3z"/>
					<path id="Path_638" class="st2" d="M115.2,142.7c-0.3,0.6-1.1,0.9-1.7,0.6c-0.6-0.3-0.9-1.1-0.6-1.7c0.3-0.6,1-0.9,1.7-0.6
						C115.2,141.3,115.5,142.1,115.2,142.7L115.2,142.7z"/>
					<path id="Path_639" class="st2" d="M144.2,144.6c-0.3,0.6-1,0.9-1.7,0.6s-0.9-1-0.6-1.7c0.3-0.6,1-0.9,1.7-0.6
						C144.2,143.2,144.5,144,144.2,144.6z"/>
					<path id="Path_640" class="st2" d="M158.5,162c-0.3,0.7-1,1-1.7,0.7s-1-1-0.7-1.7c0,0,0,0,0-0.1c0.3-0.6,1-0.9,1.6-0.7
						c0,0,0,0,0.1,0C158.5,160.6,158.7,161.4,158.5,162L158.5,162z"/>
					<path id="Path_641" class="st2" d="M193.5,177.4c-0.3,0.6-1,0.9-1.6,0.7l0,0c-0.6-0.3-0.9-1.1-0.7-1.7c0.3-0.6,1-0.9,1.7-0.6
						C193.5,176,193.8,176.8,193.5,177.4L193.5,177.4z"/>
					<path id="Path_642" class="st2" d="M175.4,156.5c-0.3,0.6-1.1,0.9-1.7,0.7c-0.7-0.3-0.9-1.1-0.7-1.7s1.1-0.9,1.7-0.7
						C175.4,155.1,175.7,155.9,175.4,156.5L175.4,156.5z"/>
					<path id="Path_643" class="st2" d="M132.9,74.8c-0.3,0.8-1.2,1.1-2,0.8l0,0c-0.8-0.4-1.1-1.3-0.7-2c0.4-0.7,1.2-1.1,2-0.8
						C132.9,73.1,133.3,74,132.9,74.8L132.9,74.8z"/>
					<path id="Path_644" class="st2" d="M175.3,120.3c-0.3,0.8-1.3,1.1-2,0.8c-0.8-0.3-1.1-1.3-0.8-2s1.3-1.1,2-0.8l0,0
						C175.3,118.6,175.7,119.6,175.3,120.3z"/>
					<path id="Path_645" class="st2" d="M222.5,157.4c-0.3,0.8-1.3,1.1-2,0.8s-1.1-1.3-0.8-2l0,0c0.3-0.8,1.2-1.1,2-0.8l0,0
						C222.5,155.7,222.8,156.6,222.5,157.4z"/>
					<path id="Path_646" class="st2" d="M234.8,195.7c-0.3,0.8-1.3,1.1-2,0.8c-0.8-0.3-1.1-1.3-0.8-2s1.3-1.1,2-0.8
						C234.8,194,235.1,194.9,234.8,195.7L234.8,195.7z"/>
					<path id="Path_647" class="st2" d="M36.6,46.2c-0.3,0.8-1.3,1.1-2,0.8c-0.8-0.3-1.1-1.3-0.8-2l0,0c0.3-0.8,1.3-1.1,2-0.8
						C36.6,44.5,37,45.4,36.6,46.2z"/>
					<path id="Path_648" class="st2" d="M27.4,35.5c-0.3,0.8-1.2,1.1-2,0.8s-1.1-1.2-0.8-2l0,0c0.3-0.8,1.3-1.1,2-0.8
						C27.4,33.9,27.7,34.8,27.4,35.5z"/>
					<path id="Path_649" class="st2" d="M7.1,31.5C6.9,32,6.3,32.3,5.8,32c-0.5-0.2-0.7-0.8-0.5-1.4s0.8-0.7,1.4-0.5
						S7.4,31,7.1,31.5z"/>
					<path id="Path_650" class="st2" d="M113.8,23.8c-0.4,0.8-1.3,1.1-2,0.7c-0.8-0.4-1.1-1.3-0.7-2c0.4-0.8,1.2-1.1,2-0.8
						C113.8,22.1,114.2,23,113.8,23.8L113.8,23.8z"/>
					<path id="Path_651" class="st2" d="M184.9,78.5c-0.3,0.8-1.3,1.1-2,0.8c-0.8-0.3-1.1-1.3-0.8-2s1.3-1.1,2-0.8
						C184.9,76.8,185.3,77.7,184.9,78.5L184.9,78.5z"/>
					<path id="Path_652" class="st2" d="M174.1,156L174.1,156l-0.2,0.1l0.2,0.3l0.1-0.2l46.3,0.5l-28.3,20.1l-0.1-0.1l0.2,0.3
						l28.7-20.4l0.3-0.2L174.1,156z"/>
					<path id="Path_653" class="st2" d="M192.3,176.8l-18.1-20.7l-0.2,0.1l18.2,20.8L192.3,176.8z"/>
				</g>
				<g id="Group_222" transform="translate(0 0)">
					<path id="Path_654" class="st2" d="M39.1,77.3l0.4-0.1l27.2-6.5l0.1,0.1l20.1,26.4L86.4,97L39.1,77.3z M66.6,71L40,77.4
						l46.1,19.2L66.6,71z"/>
					<path id="Path_655" class="st2" d="M86.2,96.5l0.5,0.7l30.6,40.2l-0.1,0.1l-11.9,9.9l-0.1-0.1L86.2,96.5z M117,137.2L87,97.9
						l18.5,49L117,137.2z"/>
					<path id="Path_656" class="st2" d="M3.1,75.9l0.1-0.2h0.1l36.4,1.5v0.1L33,115l-0.2-0.2L3.1,75.9z M39.4,77.4L3.5,76l29.4,38.4
						L39.4,77.4z"/>
					<path id="Path_657" class="st2" d="M39.4,77.2L39.4,77.2l47,19.7l0.2,0.2h-0.2l-53.7,17.8v-0.2L39.4,77.2z M86.2,96.9
						L39.6,77.5l-6.5,37.1L86.2,96.9z"/>
					<path id="Path_658" class="st2" d="M66.4,70.8l0.3-0.1l0,0l35.5,13.6v0.1l15.3,53.5l-0.4-0.5L86.5,97.2V97h-0.2L66.4,70.8z
						 M102,84.5L66.9,71.1l19.6,25.7l0.1,0.1l0.1,0.3l30.1,39.5L102,84.5z"/>
					<path id="Path_659" class="st2" d="M40.9,54.6l0.2,0.1l25.5,15.9l0.2,0.3L66.6,71l-27.3,6.5v-0.2L40.9,54.6z M66.4,70.8
						L41.1,55l-1.5,22.2L66.4,70.8z"/>
					<path id="Path_660" class="st2" d="M3,76l0.2-0.2l11.8-12h0.1l25,13.6L3,76z M15,64.1L3.5,75.7L39,77.2L15,64.1z"/>
					<path id="Path_661" class="st2" d="M40.8,37.2l0.4,0.2L92.7,62h-0.2l-25.8,9l-0.2-0.2L40.8,37.2z M92.1,61.9L41.6,37.8l25,32.9
						h0.1L92.1,61.9z"/>
					<path id="Path_662" class="st2" d="M14.6,64.3l10.5-10.7v0.3l16.6,0.8l-0.6,0.2L14.6,64.3z M24.9,54.1l-9.4,9.6l24.9-8.8
						L24.9,54.1z"/>
					<path id="Path_663" class="st2" d="M14.7,64l0.2-0.1l26.2-9.2v0.2l-1.5,22.7l-0.2-0.1L14.7,64z M40.9,55l-25.6,9l24.1,13.1
						L40.9,55z"/>
					<path id="Path_664" class="st2" d="M29.6,1l11.7,36.5l0,0L24.8,54.2v-0.3L29.6,1z M41,37.5L29.8,2.2l-4.7,51.4L41,37.5z"/>
					<path id="Path_665" class="st2" d="M29.5,1.5l0.2,0.1L106.5,19l-0.4,0.1l-65,18.7v-0.1L29.5,1.5z M105.6,18.9L29.9,1.8
						l11.4,35.6L105.6,18.9z"/>
					<path id="Path_666" class="st2" d="M92.3,61.7l44.6,21.2L102,84.5v-0.1L92.3,61.7z M135.9,82.8L92.8,62.2l9.4,22L135.9,82.8z"
						/>
					<path id="Path_667" class="st2" d="M40.4,37.3l0.8,0.1L142,51.6v0.1L136.5,83l-0.2-0.1L92.4,62l0,0l0,0L40.4,37.3z M141.7,51.8
						L41.9,37.7l50.5,24.1l0.1-0.1v0.2l43.7,20.8L141.7,51.8z"/>
					<path id="Path_668" class="st2" d="M101.9,84.3L101.9,84.3l34.6-1.5l-0.1,0.2L117,137.7L101.9,84.3z M136.2,83l-34,1.5
						l14.9,52.4L136.2,83z"/>
					<path id="Path_669" class="st2" d="M141.8,51.4l0.2,0.1l11.1,11.2l-0.1,0.1l-16.9,20.4l0.1-0.4L141.8,51.4z M152.8,62.8
						L142,51.9l-5.4,30.5L152.8,62.8z"/>
					<path id="Path_670" class="st2" d="M136.2,82.9l0.1-0.2l16.7-20l0.1,0.1L181,90.9l-0.4-0.1L136.2,82.9z M153,63l-16.4,19.8
						l43.6,7.7L153,63z"/>
					<path id="Path_671" class="st2" d="M116.8,137.3l0.3-0.1l32.2-11.1v0.1l7.3,24.7l-0.2-0.1L116.8,137.3z M149.2,126.4
						l-31.7,10.9l38.8,13.3L149.2,126.4z"/>
					<path id="Path_672" class="st2" d="M136.2,82.5l0.3,0.2l56.6,42.5l-0.2,0.2h-0.1l-43.6,0.9l-0.1-0.1L136.2,82.5z M192.6,125.2
						l-56-42.1l12.8,43L192.6,125.2z"/>
					<path id="Path_673" class="st2" d="M149.1,126.1h0.2l43.9-0.9l-0.3,0.2l-36.4,25.5l-0.1-0.2L149.1,126.1z M192.5,125.4l-43,0.9
						l7.2,24.2L192.5,125.4z"/>
					<path id="Path_674" class="st2" d="M136.4,82.5l0.1,0.3l12.9,43.5h-0.1L117,137.5l0.1-0.2L136.4,82.5z M149.1,126.2l-12.8-42.9
						l-19,53.8L149.1,126.2z"/>
					<path id="Path_675" class="st2" d="M66.3,70.8l0.3-0.1l25.8-8.9l0.2,0.1l0,0l9.7,22.7l-0.3-0.1L66.3,70.8z M92.4,62L67,70.8
						l34.8,13.3L92.4,62L92.4,62z"/>
					<path id="Path_676" class="st2" d="M40.6,37.5l0.6-0.2l65-18.6l36.1,33.1l-0.4-0.1L40.6,37.5z M106,19L41.7,37.5l99.8,14.1
						L106,19z"/>
					<path id="Path_677" class="st2" d="M141.6,51.5h0.3l19.6,1.2l-0.1,0.2L153,63L141.6,51.5z M161,53l-18.8-1.1L153,62.7L161,53z"
						/>
					<path id="Path_678" class="st2" d="M244,183l-0.1-0.5l-14.2-83.4l0.2,0.1l15.1,8l0.1,0.3l-15.1-8l14,82.6l15.9-35.7l0.1,0.3
						l-15.9,35.8l0.2,0.3l-0.3-0.1V183z"/>
					<path id="Path_679" class="st2" d="M105.3,147.1L105.3,147.1l11.9-10h0.1l40.3,13.8h-0.9l-51.2-3.6L105.3,147.1z M117.2,137.4
						l-11.5,9.7l50,3.4L117.2,137.4z"/>
					<path id="Path_680" class="st2" d="M135.9,82.7l0.5,0.1l44.2,7.8l0,0l49.6,8.7l-0.2,0.2l-37.1,26l-0.1-0.1L135.9,82.7z
						 M180.5,90.8l-43.6-7.7l56,42.1l36.7-25.7L180.5,90.8v0.3V90.8z"/>
					<path id="Path_681" class="st2" d="M156.4,150.7l36.5-25.5h0.2v0.1l9.6,54.6l-0.2-0.1L156.4,150.7z M192.9,125.5l-36.1,25.2
						l45.6,28.7L192.9,125.5z"/>
					<path id="Path_682" class="st2" d="M192.8,124.9l0.3,0.3l51.1,57.3l0.1,0.2h-0.2l-41.6-3v-0.1L192.8,124.9z M243.8,182.4
						l-50.7-56.7l9.5,53.8L243.8,182.4z"/>
					<path id="Path_683" class="st2" d="M192.7,125.3l0.1-0.1l37.2-26v0.2l14.2,83.6l-51.4-57.5L192.7,125.3z M229.8,99.6
						l-36.7,25.7l50.8,56.8L229.8,99.6z"/>
					<path id="Path_684" class="st2" d="M41.1,37.1l0.2,0.3L67,71.2l-0.6-0.3l-25.5-16v-0.1L41.1,37.1z M66,70.3L41.3,37.8
						l-0.2,16.9L66,70.3z"/>
					<path id="Path_685" class="st2" d="M24.8,53.8L24.8,53.8l16.5-16.7v0.3l-0.2,17.4H41L24.8,54V53.8z M41,37.8L25.1,53.9
						l15.8,0.8L41,37.8z"/>
					<path id="Path_686" class="st2" d="M27.1,31.2l-2,22.8v0.1L14.7,64.5l0.2-0.5L27.1,31.2z M24.8,53.9L26.7,33L15.3,63.5
						L24.8,53.9z"/>
					<path id="Path_687" class="st2" d="M107.3,19.5c-0.3,0.8-1.2,1.1-2,0.7c-0.8-0.3-1.1-1.2-0.7-2c0.3-0.8,1.2-1.1,2-0.7
						C107.3,17.9,107.7,18.7,107.3,19.5L107.3,19.5z"/>
					<path id="Path_688" class="st2" d="M42.9,38.4c-0.3,0.8-1.2,1.1-2,0.8s-1.1-1.2-0.8-2s1.2-1.1,2-0.8l0,0
						C42.9,36.8,43.2,37.7,42.9,38.4z"/>
					<path id="Path_689" class="st2" d="M42.5,55.5c-0.3,0.8-1.2,1.1-2,0.8s-1.1-1.2-0.8-2s1.2-1.1,2-0.8S42.9,54.7,42.5,55.5
						C42.6,55.4,42.5,55.4,42.5,55.5z"/>
					<path id="Path_690" class="st2" d="M28,33c-0.4,0.8-1.3,1.1-2,0.7c-0.7-0.3-1.1-1.2-0.8-2c0.3-0.8,1.2-1.1,2-0.8
						C28,31.4,28.3,32.3,28,33L28,33z"/>
					<path id="Path_691" class="st2" d="M31.1,2.1c-0.3,0.8-1.2,1.1-2,0.8l0,0c-0.8-0.3-1.1-1.2-0.8-2l0,0c0.3-0.8,1.2-1.1,2-0.8
						C31.1,0.5,31.4,1.4,31.1,2.1z"/>
					<path id="Path_692" class="st2" d="M94.2,62.8c-0.3,0.8-1.2,1.1-2,0.8l0,0c-0.8-0.4-1.1-1.3-0.8-2c0.3-0.8,1.2-1.1,2-0.8
						S94.5,62.1,94.2,62.8L94.2,62.8L94.2,62.8z"/>
					<path id="Path_693" class="st2" d="M68.3,71.3c-0.3,0.8-1.2,1.1-2,0.8c-0.8-0.3-1.1-1.2-0.8-2s1.2-1.1,2-0.8l0,0
						C68.2,69.7,68.6,70.5,68.3,71.3L68.3,71.3z"/>
					<path id="Path_694" class="st2" d="M16.4,64.8c-0.3,0.8-1.2,1.1-2,0.8s-1.1-1.2-0.8-2c0.3-0.8,1.2-1.1,2-0.8l0,0
						C16.4,63.1,16.7,64,16.4,64.8L16.4,64.8z"/>
					<path id="Path_695" class="st2" d="M40.5,77.9c-0.3,0.8-1.2,1.1-2,0.8c-0.8-0.3-1.1-1.2-0.8-2s1.2-1.1,2-0.8
						S40.8,77.1,40.5,77.9L40.5,77.9z"/>
					<path id="Path_696" class="st2" d="M4.6,76.4c-0.3,0.8-1.2,1.1-2,0.8l0,0c-0.8-0.3-1.1-1.2-0.8-2s1.2-1.1,2-0.8
						S5,75.6,4.6,76.4L4.6,76.4z"/>
					<path id="Path_697" class="st2" d="M2.9,62.1c-0.3,0.8-1.2,1.1-2,0.7s-1.1-1.2-0.7-2c0.3-0.8,1.2-1.1,2-0.8
						C2.9,60.5,3.2,61.3,2.9,62.1L2.9,62.1z"/>
					<path id="Path_698" class="st2" d="M34.3,115.1c-0.3,0.8-1.2,1.1-2,0.8l0,0c-0.8-0.3-1.1-1.2-0.8-2l0,0c0.3-0.8,1.2-1.1,2-0.8
						l0,0C34.3,113.4,34.6,114.3,34.3,115.1z"/>
					<path id="Path_699" class="st2" d="M103.6,84.9c-0.3,0.8-1.2,1.1-2,0.8c-0.8-0.3-1.1-1.2-0.8-2c0.3-0.8,1.2-1.1,2-0.8l0,0
						C103.5,83.2,103.9,84.1,103.6,84.9C103.6,84.8,103.6,84.9,103.6,84.9z"/>
					<path id="Path_700" class="st2" d="M87.8,97.6c-0.3,0.8-1.2,1.1-2,0.8c-0.8-0.3-1.1-1.2-0.8-2c0.3-0.8,1.2-1.1,2-0.8
						C87.8,96,88.1,96.8,87.8,97.6L87.8,97.6z"/>
					<path id="Path_701" class="st2" d="M118.6,137.5c-0.3,0.8-1.2,1.1-2,0.8s-1.1-1.2-0.8-2c0.3-0.8,1.2-1.1,2-0.8
						S118.9,136.7,118.6,137.5L118.6,137.5z"/>
					<path id="Path_702" class="st2" d="M107,147.5c-0.4,0.8-1.3,1.1-2,0.7c-0.7-0.3-1.1-1.2-0.8-2c0.4-0.8,1.3-1.1,2-0.7
						C106.9,145.9,107.3,146.8,107,147.5z"/>
					<path id="Path_703" class="st2" d="M150.6,126.9c-0.3,0.8-1.2,1.1-2,0.8c-0.8-0.3-1.1-1.2-0.8-2s1.2-1.1,2-0.8l0,0
						C150.6,125.3,151,126.1,150.6,126.9L150.6,126.9z"/>
					<path id="Path_704" class="st2" d="M157.8,151.2c-0.3,0.8-1.2,1.1-2,0.7l0,0c-0.8-0.3-1.1-1.2-0.8-2l0,0c0.4-0.8,1.3-1.1,2-0.7
						C157.8,149.6,158.1,150.4,157.8,151.2L157.8,151.2z"/>
					<path id="Path_705" class="st2" d="M194.5,125.9c-0.3,0.8-1.2,1.1-2,0.8l0,0c-0.8-0.3-1.1-1.2-0.8-2l0,0c0.3-0.8,1.2-1.1,2-0.8
						S194.8,125.1,194.5,125.9L194.5,125.9z"/>
					<path id="Path_706" class="st2" d="M204.1,180.5c-0.3,0.8-1.2,1.1-2,0.8s-1.1-1.2-0.8-2s1.2-1.1,2-0.8S204.4,179.7,204.1,180.5
						L204.1,180.5z"/>
					<path id="Path_707" class="st2" d="M143.4,52.6c-0.3,0.8-1.2,1.1-2,0.8s-1.1-1.2-0.8-2s1.2-1.1,2-0.8l0,0
						C143.3,50.9,143.7,51.8,143.4,52.6z"/>
					<path id="Path_708" class="st2" d="M162.8,53.3c-0.3,0.8-1.2,1.1-2,0.8s-1.1-1.2-0.8-2l0,0c0.3-0.8,1.2-1.1,2-0.8
						S163.2,52.5,162.8,53.3C162.8,53.2,162.8,53.3,162.8,53.3z"/>
					<path id="Path_709" class="st2" d="M182.1,91.2c-0.3,0.8-1.2,1.1-2,0.7s-1.1-1.2-0.7-2c0.3-0.7,1.2-1.1,2-0.8
						C182.1,89.5,182.4,90.4,182.1,91.2z"/>
					<path id="Path_710" class="st2" d="M137.9,83.6c-0.3,0.8-1.2,1.1-2,0.8c-0.8-0.3-1.1-1.2-0.8-2s1.2-1.1,2-0.8
						C138,81.9,138.3,82.8,137.9,83.6C138,83.6,138,83.6,137.9,83.6z"/>
					<path id="Path_711" class="st2" d="M14.8,64L3.3,75.6L1.7,61.9H1.4L3,76v0.1L3.3,76l11.8-11.9L14.8,64z"/>
					<path id="Path_712" class="st2" d="M15.4,63.6l-13.9-2l0.1,0.3l13.7,2L15.4,63.6z"/>
				</g>
			</g>
		</g>
	</g>
</g>
</svg>
